<svg viewBox="0 0 330 200" xmlns="http://www.w3.org/2000/svg"><g><g><g><g><g><line x1="50" y1="177" x2="45" y2="177" style="visibility: inherit;" fill="rgb(0, 0, 0)" stroke="rgb(204, 204, 204)" stroke-width="1px"></line><line x1="50" y1="162.25" x2="45" y2="162.25" style="visibility: inherit;" fill="rgb(0, 0, 0)" stroke="rgb(204, 204, 204)" stroke-width="1px"></line><line x1="50" y1="147.5" x2="45" y2="147.5" style="visibility: inherit;" fill="rgb(0, 0, 0)" stroke="rgb(204, 204, 204)" stroke-width="1px"></line><line x1="50" y1="132.75" x2="45" y2="132.75" style="visibility: inherit;" fill="rgb(0, 0, 0)" stroke="rgb(204, 204, 204)" stroke-width="1px"></line><line x1="50" y1="118.00000000000001" x2="45" y2="118.00000000000001" style="visibility: inherit;" fill="rgb(0, 0, 0)" stroke="rgb(204, 204, 204)" stroke-width="1px"></line><line x1="50" y1="103.24999999999999" x2="45" y2="103.24999999999999" style="visibility: inherit;" fill="rgb(0, 0, 0)" stroke="rgb(204, 204, 204)" stroke-width="1px"></line><line x1="50" y1="88.5" x2="45" y2="88.5" style="visibility: inherit;" fill="rgb(0, 0, 0)" stroke="rgb(204, 204, 204)" stroke-width="1px"></line><line x1="50" y1="73.75" x2="45" y2="73.75" style="visibility: inherit;" fill="rgb(0, 0, 0)" stroke="rgb(204, 204, 204)" stroke-width="1px"></line><line x1="50" y1="59.00000000000001" x2="45" y2="59.00000000000001" style="visibility: inherit;" fill="rgb(0, 0, 0)" stroke="rgb(204, 204, 204)" stroke-width="1px"></line><line x1="50" y1="44.25" x2="45" y2="44.25" style="visibility: inherit;" fill="rgb(0, 0, 0)" stroke="rgb(204, 204, 204)" stroke-width="1px"></line><line x1="50" y1="29.499999999999993" x2="45" y2="29.499999999999993" style="visibility: inherit;" fill="rgb(0, 0, 0)" stroke="rgb(204, 204, 204)" stroke-width="1px"></line><line x1="50" y1="14.750000000000007" x2="45" y2="14.750000000000007" style="visibility: inherit;" fill="rgb(0, 0, 0)" stroke="rgb(204, 204, 204)" stroke-width="1px"></line><line x1="50" y1="0" x2="45" y2="0" style="visibility: inherit;" fill="rgb(0, 0, 0)" stroke="rgb(204, 204, 204)" stroke-width="1px"></line></g><g transform="translate(40, 0)"><text x="0" y="177" dx="0em" dy="0.3em" style="text-anchor: end; visibility: hidden; font-family: Roboto, sans-serif; font-size: 12px; font-weight: 200;" fill="rgb(33, 33, 33)" stroke="none" stroke-width="1px">-150</text><text x="0" y="162.25" dx="0em" dy="0.3em" style="text-anchor: end; visibility: inherit; font-family: Roboto, sans-serif; font-size: 12px; font-weight: 200;" fill="rgb(33, 33, 33)" stroke="none" stroke-width="1px">-100</text><text x="0" y="147.5" dx="0em" dy="0.3em" style="text-anchor: end; visibility: hidden; font-family: Roboto, sans-serif; font-size: 12px; font-weight: 200;" fill="rgb(33, 33, 33)" stroke="none" stroke-width="1px">-50</text><text x="0" y="132.75" dx="0em" dy="0.3em" style="text-anchor: end; visibility: inherit; font-family: Roboto, sans-serif; font-size: 12px; font-weight: 200;" fill="rgb(33, 33, 33)" stroke="none" stroke-width="1px">0</text><text x="0" y="118.00000000000001" dx="0em" dy="0.3em" style="text-anchor: end; visibility: hidden; font-family: Roboto, sans-serif; font-size: 12px; font-weight: 200;" fill="rgb(33, 33, 33)" stroke="none" stroke-width="1px">50</text><text x="0" y="103.24999999999999" dx="0em" dy="0.3em" style="text-anchor: end; visibility: inherit; font-family: Roboto, sans-serif; font-size: 12px; font-weight: 200;" fill="rgb(33, 33, 33)" stroke="none" stroke-width="1px">100</text><text x="0" y="88.5" dx="0em" dy="0.3em" style="text-anchor: end; visibility: hidden; font-family: Roboto, sans-serif; font-size: 12px; font-weight: 200;" fill="rgb(33, 33, 33)" stroke="none" stroke-width="1px">150</text><text x="0" y="73.75" dx="0em" dy="0.3em" style="text-anchor: end; visibility: inherit; font-family: Roboto, sans-serif; font-size: 12px; font-weight: 200;" fill="rgb(33, 33, 33)" stroke="none" stroke-width="1px">200</text><text x="0" y="59.00000000000001" dx="0em" dy="0.3em" style="text-anchor: end; visibility: hidden; font-family: Roboto, sans-serif; font-size: 12px; font-weight: 200;" fill="rgb(33, 33, 33)" stroke="none" stroke-width="1px">250</text><text x="0" y="44.25" dx="0em" dy="0.3em" style="text-anchor: end; visibility: inherit; font-family: Roboto, sans-serif; font-size: 12px; font-weight: 200;" fill="rgb(33, 33, 33)" stroke="none" stroke-width="1px">300</text><text x="0" y="29.499999999999993" dx="0em" dy="0.3em" style="text-anchor: end; visibility: hidden; font-family: Roboto, sans-serif; font-size: 12px; font-weight: 200;" fill="rgb(33, 33, 33)" stroke="none" stroke-width="1px">350</text><text x="0" y="14.750000000000007" dx="0em" dy="0.3em" style="text-anchor: end; visibility: inherit; font-family: Roboto, sans-serif; font-size: 12px; font-weight: 200;" fill="rgb(33, 33, 33)" stroke="none" stroke-width="1px">400</text><text x="0" y="0" dx="0em" dy="0.3em" style="text-anchor: end; visibility: hidden; font-family: Roboto, sans-serif; font-size: 12px; font-weight: 200;" fill="rgb(33, 33, 33)" stroke="none" stroke-width="1px">450</text></g><line x1="50" y1="0" x2="50" y2="177" fill="rgb(0, 0, 0)" stroke="rgb(204, 204, 204)" stroke-width="1px"></line></g></g><g transform="translate(50, 0)" clip-path="url(#clip_0)"><clipPath id="clip_0"><rect width="280" height="177"></rect></clipPath><g><g><g><line x1="0" y1="0" x2="0" y2="177" fill="rgb(0, 0, 0)" stroke="rgb(66, 66, 66)" stroke-width="1px" opacity="0.25"></line><line x1="21.53846153846154" y1="0" x2="21.53846153846154" y2="177" fill="rgb(0, 0, 0)" stroke="rgb(66, 66, 66)" stroke-width="1px" opacity="0.25"></line><line x1="43.07692307692308" y1="0" x2="43.07692307692308" y2="177" fill="rgb(0, 0, 0)" stroke="rgb(66, 66, 66)" stroke-width="1px" opacity="0.25"></line><line x1="64.61538461538461" y1="0" x2="64.61538461538461" y2="177" fill="rgb(0, 0, 0)" stroke="rgb(66, 66, 66)" stroke-width="1px" opacity="0.25"></line><line x1="86.15384615384616" y1="0" x2="86.15384615384616" y2="177" fill="rgb(0, 0, 0)" stroke="rgb(66, 66, 66)" stroke-width="1px" opacity="0.25"></line><line x1="107.6923076923077" y1="0" x2="107.6923076923077" y2="177" fill="rgb(0, 0, 0)" stroke="rgb(66, 66, 66)" stroke-width="1px" opacity="0.25"></line><line x1="129.23076923076923" y1="0" x2="129.23076923076923" y2="177" fill="rgb(0, 0, 0)" stroke="rgb(66, 66, 66)" stroke-width="1px" opacity="0.25"></line><line x1="150.76923076923077" y1="0" x2="150.76923076923077" y2="177" fill="rgb(0, 0, 0)" stroke="rgb(66, 66, 66)" stroke-width="1px" opacity="0.25"></line><line x1="172.30769230769232" y1="0" x2="172.30769230769232" y2="177" fill="rgb(0, 0, 0)" stroke="rgb(66, 66, 66)" stroke-width="1px" opacity="0.25"></line><line x1="193.84615384615384" y1="0" x2="193.84615384615384" y2="177" fill="rgb(0, 0, 0)" stroke="rgb(66, 66, 66)" stroke-width="1px" opacity="0.25"></line><line x1="215.3846153846154" y1="0" x2="215.3846153846154" y2="177" fill="rgb(0, 0, 0)" stroke="rgb(66, 66, 66)" stroke-width="1px" opacity="0.25"></line><line x1="236.92307692307693" y1="0" x2="236.92307692307693" y2="177" fill="rgb(0, 0, 0)" stroke="rgb(66, 66, 66)" stroke-width="1px" opacity="0.25"></line><line x1="258.46153846153845" y1="0" x2="258.46153846153845" y2="177" fill="rgb(0, 0, 0)" stroke="rgb(66, 66, 66)" stroke-width="1px" opacity="0.25"></line><line x1="280" y1="0" x2="280" y2="177" fill="rgb(0, 0, 0)" stroke="rgb(66, 66, 66)" stroke-width="1px" opacity="0.25"></line></g><g><line x1="0" y1="177" x2="280" y2="177" fill="rgb(0, 0, 0)" stroke="rgb(66, 66, 66)" stroke-width="1px" opacity="0.25"></line><line x1="0" y1="162.25" x2="280" y2="162.25" fill="rgb(0, 0, 0)" stroke="rgb(66, 66, 66)" stroke-width="1px" opacity="0.25"></line><line x1="0" y1="147.5" x2="280" y2="147.5" fill="rgb(0, 0, 0)" stroke="rgb(66, 66, 66)" stroke-width="1px" opacity="0.25"></line><line x1="0" y1="132.75" x2="280" y2="132.75" fill="rgb(0, 0, 0)" stroke="rgb(66, 66, 66)" stroke-width="1px" opacity="0.25"></line><line x1="0" y1="118.00000000000001" x2="280" y2="118.00000000000001" fill="rgb(0, 0, 0)" stroke="rgb(66, 66, 66)" stroke-width="1px" opacity="0.25"></line><line x1="0" y1="103.24999999999999" x2="280" y2="103.24999999999999" fill="rgb(0, 0, 0)" stroke="rgb(66, 66, 66)" stroke-width="1px" opacity="0.25"></line><line x1="0" y1="88.5" x2="280" y2="88.5" fill="rgb(0, 0, 0)" stroke="rgb(66, 66, 66)" stroke-width="1px" opacity="0.25"></line><line x1="0" y1="73.75" x2="280" y2="73.75" fill="rgb(0, 0, 0)" stroke="rgb(66, 66, 66)" stroke-width="1px" opacity="0.25"></line><line x1="0" y1="59.00000000000001" x2="280" y2="59.00000000000001" fill="rgb(0, 0, 0)" stroke="rgb(66, 66, 66)" stroke-width="1px" opacity="0.25"></line><line x1="0" y1="44.25" x2="280" y2="44.25" fill="rgb(0, 0, 0)" stroke="rgb(66, 66, 66)" stroke-width="1px" opacity="0.25"></line><line x1="0" y1="29.499999999999993" x2="280" y2="29.499999999999993" fill="rgb(0, 0, 0)" stroke="rgb(66, 66, 66)" stroke-width="1px" opacity="0.25"></line><line x1="0" y1="14.750000000000007" x2="280" y2="14.750000000000007" fill="rgb(0, 0, 0)" stroke="rgb(66, 66, 66)" stroke-width="1px" opacity="0.25"></line><line x1="0" y1="0" x2="280" y2="0" fill="rgb(0, 0, 0)" stroke="rgb(66, 66, 66)" stroke-width="1px" opacity="0.25"></line></g></g></g><g><g><line x1="0" y1="132.75" x2="280" y2="132.75" fill="rgb(0, 0, 0)" stroke="rgb(153, 153, 153)" stroke-width="1.5px"></line></g></g><g><g><line x1="21.53846153846154" y1="0" x2="21.53846153846154" y2="177" fill="rgb(0, 0, 0)" stroke="rgb(153, 153, 153)" stroke-width="1.5px"></line></g></g><g><g><g><g><g><path stroke="rgb(51, 187, 238)" stroke-width="2px" d="M21.75384615384615,133.10683251917362L22.184615384615384,133.8638449339596L22.22769230769231,134.0859646948491L22.356923076923078,134.3016094984251L22.400000000000002,134.4353418849494L22.701538461538462,134.5453835196369L22.744615384615386,134.67041335990461L23.304615384615385,134.77217475161447L23.606153846153845,134.88699590594567L23.64923076923077,135.02527758736952L23.692307692307693,135.09116659230583L24.252307692307696,135.30767614230476L24.295384615384613,135.49316853506903L24.467692307692307,135.7084876747063L24.59692307692308,135.84420320073488L24.639999999999997,136.00732881326203L24.89846153846154,136.13455484054177L25.113846153846154,136.24033574630917L25.415384615384614,136.42888364855676L25.846153846153847,136.6892892850336L26.01846153846154,137.01902795768962L26.19076923076923,137.33713656285607L26.793846153846154,137.67258064770834L26.966153846153844,137.97976482220037L27.00923076923077,138.20019019798002L27.095384615384617,138.20511441184834L27.181538461538462,138.4439620236125L27.44,138.63242221429817L27.784615384615385,138.70460522670865L27.87076923076923,138.89941876570086L27.913846153846155,139.0190350220998L28.04307692307692,139.095193368994L28.344615384615388,139.27942513300025L28.473846153846154,139.4366358058153L28.56,140.0740995559879L28.646153846153847,140.12826143973749L28.99076923076923,140.2368019694455L29.206153846153846,140.37670340637962L29.507692307692306,140.61623094145727L29.55076923076923,140.76195741142487L29.809230769230766,140.98680186482542L29.85230769230769,141.16691626436634L30.326153846153847,141.38634005279772L30.412307692307692,141.5674627916251L30.756923076923076,141.99589878548935L31.446153846153845,142.45804320004245L32.09230769230769,143.18830979210625L32.135384615384616,143.73399541580613L32.69538461538461,144.4933296532255L32.738461538461536,145.14214090625083L33.255384615384614,145.78244441064578L33.38461538461539,146.38345110852435L33.72923076923077,147.01030896245678L33.85846153846154,147.53736247782592L33.987692307692306,147.94897303910352L34.073846153846155,148.29001268098108L34.28923076923077,148.6855727039212L34.37538461538462,149.00470477415436L34.41846153846154,149.29937770619983L34.849230769230765,149.7134297514038L35.02153846153846,150.1448487978584L35.19384615384615,150.4401451463068L35.28,150.74548921235987L35.32307692307692,151.0220012384241L35.45230769230769,151.2204900616685L36.44307692307692,151.86394257535105L36.48615384615385,152.32845285461386L37.003076923076925,153.2072146822084L37.26153846153846,153.580004083686L37.30461538461539,154.04413020141303L37.347692307692306,154.25184183579756L37.864615384615384,154.7062688353435L38.20923076923077,155.09094278567346L38.38153846153846,155.47000221100595L38.46769230769231,155.858588783896L38.683076923076925,156.13977087991995L38.89846153846154,156.50604967505623L38.98461538461539,156.74711613895883L39.45846153846154,157.19719685010705L39.716923076923074,157.57178807781588L39.76,158.0823530445024L40.363076923076925,158.5723494442348L40.40615384615384,159.06674233804296L40.49230769230769,159.2649954046885L40.793846153846154,159.35906582360613L41.05230769230769,159.5859525230837L41.22461538461538,159.86369545248837L41.44,160.1346604058837L41.612307692307695,160.3374276251509L41.74153846153846,160.52963133302998L41.82769230769231,160.45662802572798L42,160.8155970879433L42.043076923076924,160.93695428634624L42.25846153846153,161.14320463596064L42.30153846153846,161.17737773766024L42.56,161.1539252579499L43.550769230769234,161.75274308137094L43.63692307692308,161.9941076506446L43.68,162.21345470669098L43.72307692307692,162.45986828195834L43.8523076923077,162.66111975613308L43.93846153846154,162.88594129082898L44.541538461538465,163.17479699410038L44.58461538461538,163.2997198696354L44.67076923076923,163.53140646147781L44.75692307692308,163.71181912873476L44.84307692307692,163.87771493374396L45.01538461538462,164.04540745150965L45.10153846153847,164.20345058150667L45.27384615384615,164.11931696306587L45.36,164.65598253327147L45.53230769230769,164.407623835353L45.790769230769236,164.41598520586766L45.87692307692308,164.6877392128569L46.04923076923077,164.67970334798667L46.738461538461536,164.699227345934L46.78153846153846,164.77854225683L46.996923076923075,164.8840389374541L47.16923076923077,165.12692328320884L47.25538461538462,165.3818749005233L47.987692307692306,165.54238382061308L48.03076923076923,165.85419204138483L48.37538461538461,165.80716227965524L48.41846153846154,165.80807663127857L48.63384615384616,166.08643054420824L48.676923076923075,166.246697000941L49.02153846153846,166.31714878052307L49.279999999999994,166.56962125826917L49.323076923076925,166.77311132563125L49.53846153846154,167.06548739528506L49.62461538461538,167.14464836984803L49.926153846153845,167.16716974917028L50.012307692307694,167.3764974594273L50.31384615384615,167.44037100400263L50.658461538461545,167.4520664862568L50.70153846153846,167.56577886978081L51.04615384615385,167.6743167357238L51.39076923076923,167.9646180825084L51.47692307692308,168.07672699016004L52.16615384615385,167.92462265665458L52.64,168.0089414928547L52.72615384615385,168.1388951516777L52.8123076923077,168.22326998225643L52.941538461538464,168.32212709361764L52.98461538461538,168.57011648368697L53.07076923076923,168.68698904858098L53.113846153846154,168.79378030376782L53.15692307692308,168.8729803923152L53.372307692307686,168.6723920022458L53.63076923076923,168.7158193939061L54.49230769230769,168.97339623871812L54.966153846153844,168.68699484858246L55.00923076923077,168.8218952463773L55.18153846153846,169.17160966842957L55.26769230769231,169.3449444559944L55.526153846153846,169.5253641557749L56.215384615384615,169.39794370118105L56.25846153846154,169.3930405958813L56.34461538461539,169.6678406970047L56.473846153846154,169.58682836696147L56.86153846153846,169.50821897085189L57.42153846153846,169.59201664927951L57.76615384615384,169.69291417567987L57.895384615384614,169.5626385383219L58.49846153846154,169.7406942878073L58.713846153846156,169.6392710286815L58.886153846153846,169.41708541336956L59.10153846153846,169.3171293608538L59.66153846153846,169.04151669949772L59.74769230769231,169.10950273793333L60.135384615384616,168.72821805750314L60.221538461538465,168.663745478827L60.39384615384615,168.57273210505556L60.69538461538462,168.5331842388287L61.64307692307692,168.62100603313098L61.72923076923077,168.67941473510905L62.160000000000004,168.6756073748478L62.46153846153847,168.57115991485585L63.06461538461539,168.34587634301351L63.753846153846155,168.1814747531277L63.88307692307692,168.23951259000145L64.31384615384616,167.95934023435944L64.4,167.89236841248308L64.61538461538461,167.77095530892072L64.74461538461539,167.57201468403574L64.83076923076922,167.3868181007544L65.30461538461539,167.46988273816643L65.60615384615384,167.50144260191928L65.77846153846154,167.2330443101271L65.86461538461539,167.079399852271L66.20923076923077,166.39404098966548L66.2523076923077,166.31329191096316L67.07076923076923,166.65871000970105L67.24307692307693,166.40619531238164L67.67384615384616,166.6280707968422L67.71692307692308,166.3922719005476L67.80307692307693,166.39063218052686L67.97538461538461,166.5006183166096L68.36307692307693,166.37887679853637L68.88,166.27387103788027L69.05230769230769,166.16044074908368L69.13846153846154,166.1871770832601L69.26769230769231,165.974635042252L69.35384615384615,166.10378201051054L69.44,165.6364999927562L69.87076923076923,165.26608185814726L69.91384615384615,165.2823912551856L70.04307692307692,165.16800879683342L70.08615384615383,165.07505559304587L70.21538461538461,165.24124764050694L70.3446153846154,165.11005059493306L70.43076923076923,164.80022072240598L70.64615384615384,164.8468197188039L70.94769230769231,164.64793646154155L71.16307692307693,165.30036290317176L71.20615384615384,165.21293071682365L71.72307692307693,165.14904323519136L72.15384615384615,164.8724462051692L72.24000000000001,164.76127113594148L72.28307692307693,164.75692086945944L72.58461538461538,164.5729652193147L72.8,164.38784656021295L72.9723076923077,164.47674908303685L73.0153846153846,164.58219697936067L73.5323076923077,164.35493131031538L73.87692307692308,164.31183427148886L74.04923076923077,164.529925087659L74.26461538461538,164.23323498278873L74.35076923076923,163.55034058881088L74.52307692307691,163.34228773238144L75.16923076923078,162.74269775088004L75.25538461538461,163.00883987766613L75.47076923076924,162.5984589815006L75.51384615384615,162.40512415961635L75.60000000000001,162.26345780206637L75.72923076923077,161.35756908358556L75.90153846153846,161.34713766368498L76.16000000000001,161.35414810381798L76.33230769230768,161.21351747840166L76.54769230769232,161.41846226377672L76.80615384615385,161.40305302401987L76.93538461538462,161.62458863223813L77.15076923076924,161.30335710674544L77.28,161.78415577444002L77.49538461538461,161.44229721274758L77.6676923076923,161.62933203768551L77.84,162.1402790662606L78.22769230769231,161.64544734805233L78.52923076923078,160.9374307056771L78.65846153846154,160.67324375374926L78.70153846153846,160.19416336674576L79.08923076923078,160.19739924868955L79.52,159.6580572216348L79.90769230769232,159.85265947982953L80.16615384615385,159.9219943987182L80.33846153846154,159.82913783797633L80.81230769230768,160.07176479493324L80.85538461538462,159.9294616834624L81.02769230769232,159.41104312131807L81.58769230769231,159.54501146446182L82.62153846153846,158.68604333825883L83.44,158.26428486948993L83.52615384615385,157.97823766613868L83.56923076923077,157.06801065844934L83.6123076923077,156.63840527597998L84,156.1423998909551L84.3446153846154,156.6911468459035L84.3876923076923,156.4498375112786L84.51692307692306,155.9465893673454L85.07692307692307,155.53811800620622L85.16307692307693,155.45649602889557L85.63692307692307,155.79511830754873L85.76615384615384,155.21098135939002L85.93846153846154,154.78979233123178L86.11076923076924,154.54549076376568L86.28307692307693,153.76219389231048L86.58461538461539,153.2549230054082L86.6276923076923,153.17428853923596L86.75692307692307,152.77983188707265L86.88615384615385,152.60257979039147L87.40307692307692,152.06008387821922L87.66153846153847,151.9008244509709L87.79076923076923,151.63915021204426L87.83384615384617,151.33578658238068L88.26461538461538,151.17992040247466L88.39384615384616,150.48387980392894L88.86769230769231,149.85126281307475L88.99692307692307,150.06526520425584L89.12615384615384,149.43321516918803L89.34153846153846,149.29117496762512L89.47076923076924,148.4835677053852L89.85846153846154,147.72574999271575L90.3323076923077,147.54911405719662L90.5476923076923,146.4602108720014L90.63384615384615,145.84583732239582L91.6676923076923,144.66496197470823L92.0123076923077,143.77774876147288L92.09846153846154,142.53728366719338L92.22769230769231,141.02504566652155L92.48615384615384,139.97082313572986L92.52923076923078,138.8743429678743L92.83076923076923,138.44102021625733L93.17538461538462,138.23636954842644L93.34769230769231,137.9649580243534L93.52000000000001,137.5456732738715L93.69230769230768,136.78634595806164L93.82153846153845,136.3520278494631L93.90769230769232,136.690173931487L94.16615384615385,136.53354862616413L94.55384615384615,135.17966248456798L94.89846153846155,134.29128153851153L94.98461538461538,133.6774358667396L95.11384615384615,132.95490122700883L95.2,132.43837353256373L95.24307692307691,132.33387139964296L95.28615384615385,131.9487341433328L95.58769230769231,131.41536198733036L95.76,131.43210435004994L95.80307692307692,130.73974589022603L96.10461538461539,130.02838001184043L96.49230769230769,129.48108686001913L96.66461538461539,128.56405086394102L96.75076923076922,128.0549014700654L97.13846153846154,127.41284716665565L97.6123076923077,127.09734788564121L98.04307692307692,125.79017075675159L98.12923076923076,126.42154173134348L98.43076923076923,125.2140970795162L98.47384615384615,125.08135952202404L98.64615384615385,123.72066831130746L98.77538461538462,122.68606199633756L99.11999999999999,123.05650199608823L99.93846153846152,122.39955272792893L100.11076923076922,121.48873443167113L100.41230769230769,120.54999511799926L100.67076923076922,118.20298617866041L100.75692307692309,117.42772308247861L101.14461538461539,116.77670726146118L101.31692307692309,116.04257500816477L101.7046153846154,115.11283631886175L101.92,113.90090678020307L101.96307692307693,113.10742645520293L102.00615384615385,111.27406223683724L102.69538461538463,111.95113982741805L102.91076923076923,109.61955993176464L103.21230769230769,108.45933935161874L103.38461538461539,107.02351691474021L103.51384615384616,106.01525800385072L103.77230769230769,104.87890729644785L103.81538461538462,103.83876084650336L103.9876923076923,102.53717632848056L104.20307692307692,101.52390787659604L104.46153846153847,100.41567922892418L104.50461538461539,99.8780821794478L104.97846153846153,98.50882566755443L105.15076923076923,97.83088872358606L105.19384615384617,96.45579944064981L105.36615384615384,96.20133270658789L105.4523076923077,95.45852980721043L105.71076923076923,95.11291596206902L105.84,95.11556173612509L106.0123076923077,93.93953563001075L106.05538461538461,93.17147841544143L106.14153846153846,92.07011907068564L106.18461538461538,90.86255521994397L106.27076923076923,90.76207167294524L106.74461538461537,90.09272931392523L106.83076923076923,89.38796762963413L107.17538461538462,88.22086610022784L107.21846153846154,86.62641069504416L107.34769230769231,86.49415224875119L108.85538461538461,85.09684496249248L109.28615384615384,83.26580072501056L109.76,81.2368937552984L110.10461538461539,78.54936952665338L110.62153846153846,76.70048687454094L110.75076923076924,75.18662894505711L111.13846153846154,73.82859738583078L111.56923076923077,72.00820154845125L111.91384615384615,70.8302030018873L112.04307692307692,69.44664805653117L112.17230769230768,68.28345294947864L112.43076923076923,66.68333569267494L112.64615384615385,65.24641053067673L112.68923076923078,63.51852414408836L112.86153846153846,63.15031909335986L112.90461538461538,62.42137242122234L113.20615384615385,61.84807816378481L113.59384615384616,60.935293143381486L113.72307692307692,60.12082710305185L114.58461538461539,58.29970772667397L115.01538461538462,56.62621596269558L115.79076923076923,54.59935684188318L116.09230769230768,52.65267421130062L116.39384615384616,50.916609825739364L116.73846153846154,48.60039719331278L116.82461538461538,47.3578465584645L116.99692307692308,46.43916516342216L117.25538461538461,45.154181841628706L117.42769230769231,44.74368579681661L117.90153846153846,43.45081106044735L118.03076923076922,39.7706408792172L118.24615384615385,38.88360708989991L118.80615384615385,38.63665240623838L119.84,37.11377358919563L120.65846153846154,36.41768796541792L120.87384615384616,35.18517549120776L120.91692307692307,34.33156489191423L121.3476923076923,33.0261823650802L121.47692307692307,33.13643002471882L121.6923076923077,32.62411940221066L122.03692307692307,31.79988757813445L122.16615384615383,31.81363347504045L122.4676923076923,32.007345078769816L122.89846153846153,32.43682615228626L123.2,32.544430338164865L123.80307692307693,31.606019746507002L124.49230769230769,32.68824743293635L124.66461538461537,31.063161381463303L124.70769230769231,30.8234823989318L124.83692307692307,30.620728013605362L124.88,29.4517097236941L126.1723076923077,29.161211147803463L126.30153846153847,28.84707521193666L126.47384615384615,29.092197213652923L126.51692307692308,27.512158795456042L126.7323076923077,28.051066287131864L126.77538461538461,28.230082467703625L127.29230769230769,28.5507591740496L127.63692307692308,28.329435336178573L127.72307692307692,28.356533194642587L127.76615384615384,28.672169188067155L128.6276923076923,29.223345222899958L128.97230769230768,29.079659937510403L129.18769230769232,29.63305314981222L129.27384615384614,29.531798193852097L129.40307692307692,29.063902020428575L129.48923076923077,28.75721639463762L129.53230769230768,28.35696910988927L130.00615384615384,27.990494404685403L130.04923076923077,28.17414376076099L130.09230769230768,28.36906129967726L130.17846153846153,28.02864809614823L130.26461538461538,27.674575784941588L130.48000000000002,27.785549438065367L130.56615384615384,27.581875228464206L130.91076923076923,27.763839160359137L132.07384615384615,27.567577306795403L132.1169230769231,27.415066840177428L132.5907692307692,27.169174616504332L132.63384615384615,32.69924759628468L132.9353846153846,31.276161918988034L133.0646153846154,29.788581297387392L133.1076923076923,29.372911381029137L133.2369230769231,28.756918091611187L133.53846153846155,28.279667064561487L133.84,28.095997044971924L134.4,29.418923816452757L134.7446153846154,29.053966476431185L134.7876923076923,29.133011989296254L135.08923076923077,28.806903275425736L135.21846153846153,28.68659541283009L135.26153846153846,28.630083689595946L135.30461538461537,28.45824619525632L135.43384615384616,28.389724910175918L136.25230769230768,27.66204378324336L136.59692307692308,27.727876576130047L136.64,27.816870438073032L136.76923076923077,27.510329669898002L137.07076923076923,27.07924359360387L137.2,26.77288375737434L137.28615384615387,27.16490794829048L137.41538461538462,27.001250982333946L137.5876923076923,26.78983794177157L137.97538461538463,26.7274764458632L138.23384615384614,26.975590796362006L138.44923076923078,26.958789423451105L138.62153846153845,27.465463257578243L138.7076923076923,27.328948848397495L139.13846153846154,26.721546926128575L139.18153846153845,26.614043820574242L139.35384615384615,26.370617095937284L139.56923076923076,26.492013764579497L139.6123076923077,25.985251402921406L139.6553846153846,26.420255901823307L139.7846153846154,26.166181876984265L140.17230769230767,25.896237858331315L140.2153846153846,25.369124675855964L140.25846153846155,25.02252606677579L140.47384615384615,25.027035308862146L140.6892307692308,24.937161263263878L140.81846153846155,25.175753903740876L140.9476923076923,25.18258096868288L141.03384615384616,24.870459812871328L141.12,24.69780864070121L141.2492307692308,25.725197540161997L141.55076923076922,24.469731813685595L142.0676923076923,24.29166710684768L142.15384615384613,24.19512377522117L142.71384615384613,24.34114989447307L142.75692307692307,24.484236656203603L143.23076923076923,23.994121062259858L143.66153846153847,24.004033006797112L143.83384615384614,24.56353740809373L144.09230769230768,24.806560425238413L144.39384615384614,24.53704499747533L144.43692307692308,24.274468008681513L144.6523076923077,23.75083761910465L144.82461538461538,24.645460487595717L144.8676923076923,24.795488619117027L145.68615384615387,24.84243635511728L145.72923076923075,24.583518922613386L146.1169230769231,24.730579048875846L146.20307692307694,24.2991706617412L146.28923076923076,24.738957826704123L146.63384615384615,25.192500524349814L146.97846153846154,24.848891154945154L147.1507692307692,24.785868881977468L147.28,24.67686035900991L147.36615384615382,24.877352030594537L147.40923076923076,23.149966775862044L147.53846153846155,23.02558704498223L147.79692307692306,22.942443795103536L147.96923076923076,24.084932163068117L148.0123076923077,24.504218678762726L148.6153846153846,23.72995262249444L148.7446153846154,23.399594712658132L148.87384615384616,23.697256047170846L149.17538461538462,23.712045219570296L149.3046153846154,23.607593367297937L149.39076923076922,23.742312701613727L149.64923076923077,23.31377533819389L149.86461538461538,23.10631917582935L150.12307692307695,22.70069771211506L150.20923076923077,22.409946966127148L150.51076923076923,22.393845229142492L150.64000000000001,22.986161973771786L150.76923076923077,22.614451297038173L150.89846153846153,22.25869613618064L151.24307692307693,21.947290921855497L151.63076923076923,22.855408355694493L152.06153846153848,22.772962267075254L152.27692307692308,20.913943501161036L152.83692307692309,20.72757056571391L152.9230769230769,20.766605761925334L153.65538461538463,20.915585258855234L153.78461538461536,20.904872290203823L154,21.197158556759103L154.3876923076923,21.24426876630221L154.43076923076922,20.843356083978687L154.68923076923076,20.530950315940306L154.9476923076923,21.274080126724755L155.24923076923076,21.322300472285928L155.2923076923077,21.333595914995193L155.3353846153846,21.3921014255509L155.42153846153843,21.27181240076824L155.59384615384616,21.130494005202035L155.76615384615383,20.343465339570074L155.93846153846155,20.310557265377675L155.98153846153843,20.4891839603947L156.02461538461537,20.955727266579316L156.24,20.815348278030935L156.32615384615383,21.870891408477583L156.7569230769231,21.370813384115078L157.05846153846156,20.960830181144775L157.48923076923077,20.685934469359477L158.26461538461538,20.460087281760636L158.48,18.656372238117832L158.8676923076923,18.520536002362835L158.99692307692308,18.74933692975659L159.0830769230769,19.786213451501776L159.3846153846154,19.763663778271372L159.55692307692308,19.51899086048315L159.6,19.731093702863657L159.9446153846154,12.406825593266612L160.1169230769231,14.026883784022438L160.16,15.955075784394376L160.28923076923078,17.126377758767894L160.37538461538463,17.54450713713529L160.6769230769231,18.381498732044438L161.02153846153846,18.39600186883986L161.19384615384615,18.486832567774915L161.28,19.101621970294577L161.53846153846152,20.130906168122298L162.2276923076923,20.044545049756053L162.3569230769231,19.962698987029793L162.87384615384616,19.556589153831307L163.47692307692307,19.903664986280724L163.64923076923077,19.418865343367454L163.99384615384616,18.934929567265943L165.45846153846153,18.990155180777435L165.67384615384617,18.91766879428792L166.14769230769232,18.587642038227003L166.5353846153846,18.377912849174116L166.75076923076924,18.692855324880917L166.83692307692306,18.706423222978458L166.92307692307693,18.62683923929604L167.0523076923077,18.382397696144103L167.13846153846154,18.689580012568634L167.35384615384618,18.999670991409786L167.39692307692306,18.165897795986545L167.74153846153845,18.737942409828435L167.7846153846154,18.30197742248566L167.91384615384618,19.036741312431253L168.2153846153846,19.71232411118522L168.3876923076923,19.61951181609883L168.43076923076924,19.42796534910927L168.81846153846152,19.476960327690794L168.99076923076925,19.576311824709883L169.16307692307691,19.290766791124586L169.5076923076923,19.609071197686017L169.72307692307692,19.32367181120545L170.36923076923077,19.268799104836962L170.4123076923077,19.33077535798237L170.58461538461538,19.739376371636382L170.67076923076925,20.52354060964981L170.97230769230768,20.48314775929948L171.14461538461538,19.695168501920868L171.53230769230768,19.73915539250055L171.5753846153846,19.2344369292864L171.61846153846153,19.128299717834253L171.66153846153847,19.089232825687116L171.70461538461538,18.24298061438196L171.96307692307693,18.549840844764724L172.04923076923077,18.550348491283923L172.17846153846153,18.44297229902274L172.30769230769232,18.62360891285525L172.35076923076923,18.764876514805838L172.48,18.881033226601144L172.95384615384614,19.09367843164147L173.2123076923077,19.41314602156023L173.47076923076924,19.593147304710293L173.85846153846154,19.813196075544212L173.90153846153845,19.41457303969489L174.11692307692306,19.707849617804705L174.24615384615385,19.70139639990375L174.5046153846154,20.375763162689598L174.67692307692306,20.27217306566785L174.8492307692308,21.3313292542582L175.19384615384615,21.376942267724683L175.32307692307694,21.344994828291014L175.58153846153846,21.54954876565605L175.6246153846154,20.910861478873983L175.9692307692308,20.308720545020016L176.09846153846155,20.095881267445L176.14153846153846,18.91703937319057L176.65846153846155,19.21536251239935L177.21846153846153,19.75200067057488L177.26153846153846,19.195730981991723L177.3046153846154,19.109353758074892L177.3476923076923,19.23319422479449L177.95076923076923,18.94319306588582L178.98461538461538,19.471031566274306L179.11384615384614,19.553474190807986L179.20000000000002,19.208678809555867L179.28615384615387,21.245675915209947L179.41538461538462,20.00508164666603L179.5876923076923,20.277675558794474L179.71692307692308,20.170083236068344L179.76,19.34762366687724L180.5353846153846,19.761031767937418L180.96615384615387,20.03737434233446L181.2676923076923,19.998016436692648L181.44,19.989267056880283L181.48307692307694,20.569099193281346L181.69846153846154,20.15817262423087L181.74153846153848,19.856412950646426L181.8707692307692,19.64235566715874L182.3446153846154,19.588795361561793L182.3876923076923,19.6481914593894L182.9046153846154,18.776697405359766L182.9476923076923,18.257994586914393L183.03384615384616,18.01260545128907L183.07692307692307,18.196039773384932L183.20615384615382,18.446369208873367L183.24923076923076,18.670140951551392L183.2923076923077,19.141349851972812L183.59384615384616,19.264668409298995L183.68,18.88193654366076L183.76615384615383,18.751332754928676L184.41230769230768,18.923693219568115L184.45538461538462,19.229293366214424L184.49846153846156,19.786344150058675L184.54153846153847,19.908029012192852L184.71384615384616,19.38963738172996L184.84307692307695,20.249306001908852L185.48923076923077,20.50973845132282L185.57538461538462,21.038803776743958L185.83384615384617,20.635232980040982L185.92000000000002,20.711035521605105L186.09230769230768,20.3814289442066L186.26461538461538,20.095778112625215L186.3076923076923,19.231093463752455L186.95384615384614,19.187632082728605L187.34153846153848,19.217176625911627L187.4276923076923,18.834818013200486L187.51384615384615,18.91814080913231L187.6430769230769,19.374244993001767L187.72923076923075,19.19203631988621L187.85846153846154,18.857586997714694L188.24615384615385,18.770146328207517L188.37538461538463,18.588088698180698L188.50461538461536,18.56549851261457L189.4523076923077,18.944890887977696L189.6676923076923,18.47936353794805L189.92615384615385,18.343951757608217L190.0553846153846,18.00865360111364L190.2276923076923,17.820330814136465L190.48615384615383,17.917088310189094L190.6153846153846,17.63110566392159L190.70153846153843,17.83708755976986L190.9169230769231,17.97644910219485L191.00307692307692,18.698723484659162L191.1323076923077,19.176268680823707L191.86461538461538,18.786263844807518L192.03692307692307,18.03078950096607L192.38153846153844,18.259849547013893L192.42461538461538,17.88065701295609L192.81230769230768,17.5531836257151L193.07076923076923,18.333516101550714L193.11384615384617,18.752818640691594L193.15692307692308,18.916073679535454L193.28615384615384,18.650550523483197L193.54461538461538,19.095556085233277L193.76,18.842007132053595L193.88923076923078,19.20561888792674L194.23384615384617,19.059676214374704L194.40615384615384,18.850193767173952L194.4923076923077,19.148599040669733L194.88,18.37756129053282L195.09538461538463,18.395963662749246L195.35384615384615,18.23223121550496L195.6123076923077,18.064762463941832L195.91384615384615,18.564978005518412L196.68923076923076,18.499201940700324L196.7323076923077,18.877480074308597L197.03384615384616,18.295864104322227L197.37846153846152,18.18175042714083L197.42153846153846,18.057177570686783L197.5076923076923,17.828602080736047L197.67999999999998,17.643739463634528L197.8523076923077,17.51484532584505L198.0676923076923,16.45221146616733L198.58461538461538,16.96667926914774L198.84307692307692,17.149048295108237L199.10153846153847,16.33887779023883L199.23076923076923,16.192133359906727L199.48923076923077,15.752175315197041L200.00615384615384,15.739392075122147L200.17846153846153,16.124021331556968L200.48,16.054629041504512L200.60923076923078,15.81423863997166L201.08307692307693,15.741587048992635L201.51384615384617,15.70311305652354L201.55692307692306,15.870140106765056L201.68615384615384,15.7335304920243L202.16,14.992754781188463L202.80615384615385,15.477639528970242L202.8492307692308,15.73589163051271L203.19384615384618,16.043190439766587L203.4092307692308,15.561813516964872L203.6676923076923,13.425817672328407L203.75384615384613,14.177070132448677L203.79692307692306,14.277871519664362L204.0553846153846,14.53606173301378L204.48615384615385,14.910127398463244L204.6153846153846,14.599726769626606L204.70153846153846,14.985108351354686L204.7446153846154,14.860873730546619L204.7876923076923,15.364489225745343L204.96,15.497768483085167L205.39076923076925,15.074430819379021L205.43384615384613,14.53304525002755L205.51999999999998,14.593957237855594L205.95076923076925,15.14490619798742L205.99384615384614,14.68292812171787L206.72615384615386,14.997040175113343L207.02769230769232,14.55521768048964L207.2,13.744654764945887L207.58769230769232,13.349291509516393L207.80307692307693,13.795227114342646L208.01846153846154,13.402982568714705L208.27692307692308,13.831272360828647L208.6646153846154,13.503525797017478L208.83692307692309,12.71332557556512L209.00923076923078,12.123611978939017L209.39692307692306,12.925158756543524L209.61230769230767,12.726201155474653L209.8707692307692,12.590095342371713L210.08615384615385,12.85299055919853L210.2153846153846,12.393349992600896L210.25846153846155,12.378269892521223L210.56,12.384986066914081L210.9046153846154,12.558827763318725L211.2492307692308,13.398816188101287L211.42153846153846,12.670282765484636L211.55076923076922,12.932374685605005L211.68,13.138692916639377L211.72307692307692,11.40655071022044L212.0676923076923,11.570509241708248L212.15384615384613,11.555771061340641L212.6276923076923,10.84946371864144L212.97230769230768,11.33418884204183L213.23076923076923,11.337870028411558L213.44615384615386,11.239901883000345L213.61846153846153,11.595773152844542L213.96307692307693,11.4989448429938L214.95384615384614,11.676874541927196L215.2123076923077,11.610838553984568L215.3846153846154,11.571140468610066L216.0307692307692,11.950467741980095L216.28923076923076,10.553036269732006L216.41846153846154,11.64432751867239L216.5046153846154,12.03612856190681L216.80615384615382,11.920178708899966L216.9353846153846,11.959141550905017L217.1076923076923,11.720928566579088L217.28,11.636994183650016L217.32307692307694,11.48077667968769L217.36615384615382,11.535924288034792L217.4523076923077,11.66394497518212L217.71076923076922,12.095648352349452L218.0123076923077,12.291038429301773L218.09846153846155,12.232715558634313L218.1846153846154,12.306139355507996L218.35692307692307,11.811398936011333L218.48615384615383,11.49828768145233L218.52923076923076,11.665494472547705L218.6153846153846,11.942733076813322L218.96,11.786059272967172L219.3046153846154,11.60604817240829L219.39076923076922,11.892744647375041L219.99384615384616,12.02576547906225L220.12307692307695,12.058643133294808L220.25230769230768,11.532992614474509L220.68307692307692,11.687654034086409L220.85538461538462,11.726740556470693L220.98461538461538,11.88869756017042L221.63076923076923,11.603013797295187L221.84615384615384,11.224432091676245L221.88923076923075,11.787484847368685L222.06153846153848,11.673633056595214L222.23384615384614,11.319681515283833L222.27692307692308,10.883426432251179L222.32000000000002,10.103150220772736L222.40615384615384,10.080850206829378L222.62153846153848,10.917099792476387L222.66461538461536,11.197780680630336L222.7076923076923,11.159876507199574L223.09538461538463,11.022878341876751L223.44,11.38057875435629L223.6123076923077,11.486114644190632L223.69846153846154,11.55261889224379L223.9569230769231,11.306671610650886L224.30153846153848,10.809187746669986L224.34461538461537,10.998423295218668L224.6030769230769,10.877144027203867L224.7323076923077,10.436327265116855L225.0769230769231,9.91720952914171L225.3353846153846,10.408986160363016L225.46461538461537,10.416153374258432L225.5076923076923,10.884207558373634L225.6369230769231,10.65614439698244L225.76615384615383,10.24016359750531L225.89538461538461,10.505866519778479L226.4123076923077,10.415563659736351L226.58461538461538,10.170860828301297L226.88615384615383,10.107841825990885L227.14461538461538,10.423104216051538L227.27384615384616,10.577387605700709L227.31692307692308,10.469270238080888L227.36,10.489606767853338L227.48923076923077,10.49570956873265L227.53230769230768,10.339593766038467L227.83384615384617,11.598395879692365L227.92,11.575514722146826L228.00615384615384,11.996149793467358L228.26461538461538,11.51091911852552L228.5230769230769,11.478004092771737L228.6523076923077,11.451867069786752L228.78153846153845,11.086960269873611L228.8676923076923,11.774051475210964L228.95384615384617,11.6642941993894L229.6430769230769,10.716854780401455L229.72923076923078,11.453990969032182L229.81538461538463,10.899760085787497L229.85846153846154,10.765123424176931L229.90153846153845,11.327632156835929L230.2030769230769,10.680487506517146L230.24615384615385,11.284775644944697L231.02153846153846,11.812039109146243L231.15076923076924,11.976694933627423L231.8830769230769,12.174174250213234L232.44307692307692,12.364442349303356L233.00307692307692,11.886412103981446L233.08923076923077,11.203986352259777L233.26153846153846,10.795321556217752L233.73538461538462,10.391080197785532L233.82153846153847,10.870774296428863L233.90769230769232,10.56918106937523L234.07999999999998,10.371027051637617L234.38153846153847,10.64315356480261L234.55384615384617,10.984201345888735L234.76923076923077,11.0229973284531L236.01846153846154,10.605890424096387L236.10461538461539,10.16347901448104L236.5353846153846,8.17431836196245L236.57846153846154,8.979738545203718L237.56923076923078,8.994169747492773L237.87076923076924,8.595269861257139L237.95692307692306,9.594335052833388L238.0430769230769,9.896938844205216L238.99076923076925,9.368628501379511L239.5076923076923,10.304381049207493L239.59384615384613,10.202551343499792L239.68,10.495903644777666L239.80923076923077,10.210087038917077L240.24,10.469871014964264L240.36923076923077,10.525364024375966L240.4123076923077,9.942397094639475L240.67076923076925,9.889085889640416L240.75692307692307,9.953547132274412L240.84307692307692,10.098856467507389L241.05846153846153,10.099422175315393L241.14461538461538,9.991488233541961L241.31692307692308,9.729766358163605L241.40307692307692,10.703754491463446L242.22153846153847,10.648352318749543L242.6523076923077,10.114360962163149L242.82461538461538,9.955351853987818L242.99692307692308,9.801125391214546L243.29846153846154,9.86644847862913L243.47076923076924,10.361118157865615L243.51384615384615,9.63823004025188L243.6,9.836777033034258L243.64307692307693,10.364306502564808L244.16,9.437846976089554L244.54769230769233,9.894289874329074L245.02153846153846,9.725048071667384L245.45230769230767,10.141490276136189L245.4953846153846,10.269680349156662L245.58153846153846,10.678795712132704L245.79692307692306,10.29531521212359L245.88307692307694,10.370815923449587L246.09846153846155,10.929422137463984L246.35692307692307,10.14504589914349L246.65846153846155,9.923441028147717L246.83076923076922,9.92781172619641L247.21846153846153,10.219582833639382L247.8646153846154,10.481171153781354L247.90769230769232,10.031321477939326L248.08,10.787189468871142L248.25230769230768,11.121850442692983L248.38153846153847,10.550580125054557L248.89846153846153,10.778278738203912L249.28615384615387,11.035877549008744L249.50153846153847,10.78698506155558L249.5876923076923,10.412322064122426L249.67384615384614,10.108460780546578L249.76,7.374769128740295L250.06153846153848,8.02845356322557L250.6646153846154,9.467559841561943L250.7076923076923,9.358602775708706L250.83692307692309,8.87771671717092L250.92307692307693,9.72515438616603L251.0953846153846,9.867648637030932L251.13846153846154,9.823675536707032L251.35384615384615,9.803705861192181L251.44,10.661614868073102L251.52615384615387,10.927002942676891L251.74153846153848,10.519876984971L252.56,10.508994677322992L252.81846153846155,11.270047141452338L252.9046153846154,11.62354335775055L253.03384615384616,11.24437019336515L253.42153846153846,7.742270134413995L253.89538461538461,8.439814728309052L253.98153846153846,9.33116199037674L254.28307692307695,9.242047687464193L254.32615384615383,9.86008322091377L254.49846153846156,9.444651902692904L254.92923076923077,9.892394086856717L255.01538461538462,10.099082908155214L255.23076923076923,10.253522142987153L255.40307692307692,9.937227535402005L255.70461538461538,10.091809454525206L256.1353846153846,9.987152772499508L256.2215384615385,10.513492489626053L256.26461538461535,10.772923022972197L256.4369230769231,10.490483647982348L256.5230769230769,11.36506797727749L256.60923076923075,10.87712822238728L256.6523076923077,10.8274862983646L256.73846153846154,10.768653547597516L257.04,9.758112153839312L257.2123076923077,10.516414947729684L258.33230769230767,10.293295157492503L258.41846153846154,10.314397523087356L258.67692307692306,9.77576222146502L258.76307692307694,9.636955660951603" style="fill: none;" fill="none"></path></g></g></g></g><g opacity="0.2"><g><g><g><path stroke="rgb(51, 187, 238)" stroke-width="2px" d="M21.75384615384615,133.10683251917362L22.184615384615384,134.46415577888487L22.22769230769231,134.40178545475007L22.356923076923078,134.71576100587845L22.400000000000002,134.74506305932996L22.701538461538462,134.83474570274353L22.744615384615386,135.03028037548066L23.304615384615385,135.08513697385789L23.606153846153845,135.2580787038803L23.64923076923077,135.48932928085327L23.692307692307693,135.31875933647157L24.252307692307696,136.07242422103883L24.295384615384613,136.1598298883438L24.467692307692307,136.49290590286256L24.59692307692308,136.34389935970307L24.639999999999997,136.61297781467437L24.89846153846154,136.61002802848816L25.113846153846154,136.6377149438858L25.415384615384614,137.1400870227814L25.846153846153847,137.6747160053253L26.01846153846154,138.2700135231018L26.19076923076923,138.5464387321472L26.793846153846154,138.94982431411742L26.966153846153844,139.15088691711426L27.00923076923077,139.04139231681825L27.095384615384617,138.22392146110536L27.181538461538462,139.35676708221436L27.44,139.35302083969117L27.784615384615385,138.98071421623231L27.87076923076923,139.64483839035034L27.913846153846155,139.4768392753601L28.04307692307692,139.38672970771788L28.344615384615388,139.98477979660035L28.473846153846154,140.03861135482788L28.56,142.5152523994446L28.646153846153847,140.3356892871857L28.99076923076923,140.65251348495482L29.206153846153846,140.91255380630494L29.507692307692306,141.53370478630066L29.55076923076923,141.3201577091217L29.809230769230766,141.84808194160462L29.85230769230769,141.85686856269837L30.326153846153847,142.22688512802125L30.412307692307692,142.26129676818846L30.756923076923076,143.6371411895752L31.446153846153845,144.2284285736084L32.09230769230769,145.9858360671997L32.135384615384616,145.82443367004393L32.69538461538461,147.402234210968L32.738461538461536,147.6276547050476L33.255384615384614,148.23537199020384L33.38461538461539,148.68584161758423L33.72923076923077,149.41173603057862L33.85846153846154,149.55645195007324L33.987692307692306,149.52581356048586L34.073846153846155,149.5965037727356L34.28923076923077,150.20092720031738L34.37538461538462,150.22727130889893L34.41846153846154,150.4282438850403L34.849230769230765,151.29962732315062L35.02153846153846,151.79757823944092L35.19384615384615,151.5714003944397L35.28,151.91523658752442L35.32307692307692,152.08129562377928L35.45230769230769,151.98088417053222L36.44307692307692,154.32895561218263L36.48615384615385,154.10795318603516L37.003076923076925,156.57367847442626L37.26153846153846,155.0081294631958L37.30461538461539,155.8221590423584L37.347692307692306,155.0475679779053L37.864615384615384,156.44714122772217L38.20923076923077,156.56459701538085L38.38153846153846,156.92214767456056L38.46769230769231,157.34723197937012L38.683076923076925,157.21695636749268L38.89846153846154,157.90923362731934L38.98461538461539,157.6706219482422L39.45846153846154,158.92141906738283L39.716923076923074,159.0068162918091L39.76,160.03828548431397L40.363076923076925,160.44948539733886L40.40615384615384,160.96072090148925L40.49230769230769,160.02448661804198L40.793846153846154,159.71944187164306L41.05230769230769,160.45513683319092L41.22461538461538,160.92770580291747L41.44,161.17270488739013L41.612307692307695,161.1142121887207L41.74153846153846,161.26594795227052L41.82769230769231,160.17695835113526L42,162.19077808380126L42.043076923076924,161.40186374664307L42.25846153846153,161.93333278656004L42.30153846153846,161.30829208374024L42.56,161.06408073425294L43.550769230769234,164.04676498413087L43.63692307692308,162.91875549316407L43.68,163.05375526428222L43.72307692307692,163.40385845184326L43.8523076923077,163.4320976257324L43.93846153846154,163.74721412658693L44.541538461538465,164.2813794708252L44.58461538461538,163.77828914642333L44.67076923076923,164.41897876739503L44.75692307692308,164.40296524047852L44.84307692307692,164.51324813842774L45.01538461538462,164.68782371520996L45.10153846153847,164.80890083312988L45.27384615384615,163.79700798034668L45.36,166.71190425872803L45.53230769230769,163.4561820602417L45.790769230769236,164.44801692962648L45.87692307692308,165.7288064956665L46.04923076923077,164.64891860961913L46.738461538461536,164.7740221786499L46.78153846153846,165.08239116668702L46.996923076923075,165.28818805694578L47.16923076923077,166.05739326477052L47.25538461538462,166.35857360839844L47.987692307692306,166.15728031158446L48.03076923076923,167.04870372772217L48.37538461538461,165.6269951248169L48.41846153846154,165.81157943725586L48.63384615384616,167.1527815246582L48.676923076923075,166.8606646347046L49.02153846153846,166.58704376220703L49.279999999999994,167.53682258605957L49.323076923076925,167.55266506195068L49.53846153846154,168.1855561065674L49.62461538461538,167.44790756225586L49.926153846153845,167.25344730377196L50.012307692307694,168.17841472625733L50.31384615384615,167.68506530761718L50.658461538461545,167.4968709182739L50.70153846153846,168.00140167236327L51.04615384615385,168.09011638641357L51.39076923076923,169.0767387008667L51.47692307692308,168.5062070083618L52.16615384615385,167.34192344665527L52.64,168.33196002960204L52.72615384615385,168.63673694610597L52.8123076923077,168.54650302886964L52.941538461538464,168.70084056854247L52.98461538461538,169.52014347076417L53.07076923076923,169.13471824645995L53.113846153846154,169.2028888320923L53.15692307692308,169.17638942718506L53.372307692307686,167.90395435333252L53.63076923076923,168.88218616485594L54.49230769230769,169.96015197753906L54.966153846153844,167.58981464385988L55.00923076923077,169.33868759155274L55.18153846153846,170.5113368988037L55.26769230769231,170.00897579193116L55.526153846153846,170.21653720855713L56.215384615384615,168.90980640411377L56.25846153846154,169.37425720214844L56.34461538461539,170.7205773162842L56.473846153846154,169.27647678375246L56.86153846153846,169.2070728302002L57.42153846153846,169.91303867340088L57.76615384615384,170.07944431304932L57.895384615384614,169.06356327056884L58.49846153846154,170.4228112411499L58.713846153846156,169.250726852417L58.886153846153846,168.5659105682373L59.10153846153846,168.93420593261717L59.66153846153846,167.98566722869873L59.74769230769231,169.36995166778564L60.135384615384616,167.26754776000976L60.221538461538465,168.41675632476807L60.39384615384615,168.22406734466554L60.69538461538462,168.38167961120607L61.64307692307692,168.95744411468507L61.72923076923077,168.90317367553712L62.160000000000004,168.66102169036867L62.46153846153847,168.17103027343748L63.06461538461539,167.48283348083496L63.753846153846155,167.551665763855L63.88307692307692,168.46185077667235L64.31384615384616,166.88602294921876L64.4,167.63580486297607L64.61538461538461,167.30583168029787L64.74461538461539,166.80988948822022L64.83076923076922,166.67734519958495L65.30461538461539,167.7880965423584L65.60615384615384,167.62234584808348L65.77846153846154,166.20483249664306L65.86461538461539,166.49080055236817L66.20923076923077,163.76848747253416L66.2523076923077,166.00394882202147L67.07076923076923,167.9819783782959L67.24307692307693,165.43883224487305L67.67384615384616,167.47805755615235L67.71692307692308,165.48894569396973L67.80307692307693,166.38435054779055L67.97538461538461,166.92196617126464L68.36307692307693,165.91249504089356L68.88,165.87160259246826L69.05230769230769,165.72589862823486L69.13846153846154,166.28960178375243L69.26769230769231,165.16040393829346L69.35384615384615,166.59853343963624L69.44,163.84638095855712L69.87076923076923,163.84704040527342L69.91384615384615,165.34487121582032L70.04307692307692,164.72981899261475L70.08615384615383,164.71895950317383L70.21538461538461,165.877915725708L70.3446153846154,164.60744548797607L70.43076923076923,163.61328792572021L70.64615384615384,165.0253366470337L70.94769230769231,163.88603103637695L71.16307692307693,167.7997550201416L71.20615384615384,164.8779851913452L71.72307692307693,164.90429553985595L72.15384615384615,163.81282569885255L72.24000000000001,164.3353685760498L72.28307692307693,164.74025535583496L72.58461538461538,163.8682462310791L72.8,163.6786721801758L72.9723076923077,164.81732734680176L73.0153846153846,164.98615921020507L73.5323076923077,163.4842951965332L73.87692307692308,164.14673305511477L74.04923076923077,165.3654130935669L74.26461538461538,163.09663955688475L74.35076923076923,160.93422824859618L74.52307692307691,162.5452543258667L75.16923076923078,160.4457177734375L75.25538461538461,164.02840850830077L75.47076923076924,161.02632347106933L75.51384615384615,161.6644743347168L75.60000000000001,161.72074562072754L75.72923076923077,157.88718379974364L75.90153846153846,161.30717575073243L76.16000000000001,161.38100452423095L76.33230769230768,160.67477310180664L76.54769230769232,162.20358890533447L76.80615384615385,161.3440214920044L76.93538461538462,162.47327335357664L77.15076923076924,160.072745513916L77.28,163.62605598449707L77.49538461538461,160.13266513824462L77.6676923076923,162.3458470916748L77.84,164.09767517089844L78.22769230769231,159.74978767395018L78.52923076923078,158.22507709503174L78.65846153846154,159.66116523742676L78.70153846153846,158.35884574890136L79.08923076923078,160.2097956466675L79.52,157.59188220977782L79.90769230769232,160.5981647491455L80.16615384615385,160.1876107788086L80.33846153846154,159.4734119796753L80.81230769230768,161.0012487411499L80.85538461538462,159.3843101501465L81.02769230769232,157.42502418518066L81.58769230769231,160.05823318481444L82.62153846153846,155.39540699005127L83.44,156.64856281280518L83.52615384615385,156.8824143218994L83.56923076923077,153.5810057449341L83.6123076923077,154.99262233734132L84,154.2422439956665L84.3446153846154,158.79335136413573L84.3876923076923,155.52540126800537L84.51692307692306,154.01868705749513L85.07692307692307,153.97329776763917L85.16307692307693,155.14380893707275L85.63692307692307,157.09235244750977L85.76615384615384,152.97320068359375L85.93846153846154,153.17625175476076L86.11076923076924,153.6095915222168L86.28307692307693,150.76144790649414L86.58461538461539,151.31160989761352L86.6276923076923,152.86538452148437L86.75692307692307,151.26870084762575L86.88615384615385,151.9235415649414L87.40307692307692,149.9818265914917L87.66153846153847,151.29071466445924L87.79076923076923,150.6366976928711L87.83384615384617,150.1736254310608L88.26461538461538,150.58280986785888L88.39384615384616,147.81740543365478L88.86769230769231,147.4277590751648L88.99692307692307,150.88509078979493L89.12615384615384,147.01188339233397L89.34153846153846,148.74703062057495L89.47076923076924,145.38969060897827L89.85846153846154,144.82261257171632L90.3323076923077,146.87243629455565L90.5476923076923,142.2887121963501L90.63384615384615,143.49222270965578L91.6676923076923,140.141125497818L92.0123076923077,140.37890780448913L92.09846153846154,137.7851637649536L92.22769230769231,135.23178607940676L92.48615384615384,135.9321831989288L92.52923076923078,134.67381749391555L92.83076923076923,136.78099634170533L93.17538461538462,137.45236964702607L93.34769230769231,136.92520276546477L93.52000000000001,135.93942782878875L93.69230769230768,133.87742537140846L93.82153846153845,134.688190844059L93.90769230769232,137.9855838012695L94.16615384615385,135.93352994441986L94.55384615384615,129.99303586483L94.89846153846155,130.88796709299086L94.98461538461538,131.32584351062775L95.11384615384615,130.18693036079407L95.2,130.45959835529328L95.24307692307691,131.93353231072425L95.28615384615385,130.47330494403838L95.58769230769231,129.3720570611954L95.76,131.4962429666519L95.80307692307692,128.0873774909973L96.10461538461539,127.30319575309754L96.49230769230769,127.38445174217223L96.66461538461539,125.05096127510072L96.75076923076922,126.10439195632935L97.13846153846154,124.95318985939026L97.6123076923077,125.88869605064393L98.04307692307692,120.78248252868653L98.12923076923076,128.84027208328246L98.43076923076923,120.58847578048706L98.47384615384615,124.57285284042358L98.64615384615385,118.50797203063966L98.77538461538462,118.7225701713562L99.11999999999999,124.47562721252442L99.93846153846152,119.88283403396606L100.11076923076922,117.99946434020997L100.41230769230769,116.95376190185547L100.67076923076922,109.21178768157961L100.75692307692309,114.45775382995608L101.14461538461539,114.28271911621096L101.31692307692309,113.23017463684081L101.7046153846154,111.55108375549315L101.92,109.25810424804688L101.96307692307693,110.06766849517822L102.00615384615385,104.25059448242187L102.69538461538463,114.5449684715271L102.91076923076923,100.68746883392335L103.21230769230769,104.0146295928955L103.38461538461539,101.52299907684326L103.51384615384616,102.15270092010498L103.77230769230769,100.5256410598755L103.81538461538462,99.85404521942137L103.9876923076923,97.55091293334962L104.20307692307692,97.64215965270996L104.46153846153847,96.17014629364012L104.50461538461539,97.81859203338624L104.97846153846153,93.26331642150879L105.15076923076923,95.23376796722414L105.19384615384617,91.1879453277588L105.36615384615384,95.22649154663087L105.4523076923077,92.61291290283202L105.71076923076923,93.78889770507811L105.84,95.12569747924803L106.0123076923077,89.43427619934083L106.05538461538461,90.22911430358886L106.14153846153846,87.85090187072754L106.18461538461538,86.23647727966309L106.27076923076923,90.37712745666504L106.74461538461537,87.52853370666504L106.83076923076923,86.68808349609375L107.17538461538462,83.74979598999025L107.21846153846154,80.51818298339845L107.34769230769231,85.98748100280761L108.85538461538461,79.74387550354004L109.28615384615384,76.25122062683106L109.76,73.46431777954102L110.10461538461539,68.25368492126465L110.62153846153846,69.61756927490234L110.75076923076924,69.38716354370118L111.13846153846154,68.62609001159669L111.56923076923077,65.03441459655762L111.91384615384615,66.31738731384277L112.04307692307692,64.14636268615722L112.17230769230768,63.82734802246093L112.43076923076923,60.553417892456046L112.64615384615385,59.74166824340821L112.68923076923078,56.89913330078125L112.86153846153846,61.739755783081044L112.90461538461538,59.62883758544921L113.20615384615385,59.6518349456787L113.59384615384616,57.43848869323731L113.72307692307692,57.000674591064445L114.58461538461539,51.32314895629884L115.01538461538462,50.215206451416016L115.79076923076923,46.83462600708007L116.09230769230768,45.19509292602539L116.39384615384616,44.26588973999023L116.73846153846154,39.727176818847646L116.82461538461538,42.59773712158202L116.99692307692308,42.9197721862793L117.25538461538461,40.231516265869146L117.42769230769231,43.17110916137695L117.90153846153846,38.497914123535146L118.03076923076922,25.672211151123044L118.24615384615385,35.485453491210926L118.80615384615385,37.690589294433586L119.84,31.27974990844726L120.65846153846154,33.75104110717774L120.87384615384616,30.463521423339838L120.91692307692307,31.061452789306635L121.3476923076923,28.025369110107416L121.47692307692307,33.55877975463868L121.6923076923077,30.661499481201176L122.03692307692307,28.642323150634763L122.16615384615383,31.86629287719726L122.4676923076923,32.749438323974616L122.89846153846153,34.08213287353515L123.2,32.95665313720703L123.80307692307693,28.01104583740235L124.49230769230769,36.83417282104492L124.66461538461537,24.837590179443364L124.70769230769231,29.905291900634776L124.83692307692307,29.843992614746092L124.88,24.973296661376956L126.1723076923077,28.048334960937495L126.30153846153847,27.643646240234382L126.47384615384615,30.03123947143555L126.51692307692308,21.459161376953126L126.7323076923077,30.115576629638664L126.77538461538461,28.915878753662106L127.29230769230769,29.779245300292963L127.63692307692308,27.481561889648436L127.72307692307692,28.46034286499024L127.76615384615384,29.881344757080083L128.6276923076923,31.33485534667969L128.97230769230768,28.529213409423832L129.18769230769232,31.753057098388666L129.27384615384614,29.143898773193357L129.40307692307692,27.271430206298838L129.48923076923077,27.582328948974602L129.53230769230768,26.823654632568363L130.00615384615384,26.586559906005863L130.04923076923077,28.877689361572266L130.09230769230768,29.115774383544927L130.17846153846153,26.724553070068357L130.26461538461538,26.31815383911132L130.48000000000002,28.210680389404295L130.56615384615384,26.801616058349605L130.91076923076923,28.460928039550787L132.07384615384615,26.815714263916014L132.1169230769231,26.830811767578133L132.5907692307692,26.227181701660164L132.63384615384615,53.88450302124023L132.9353846153846,25.824437561035158L133.0646153846154,24.089782104492198L133.1076923076923,27.78051406860352L133.2369230769231,26.397098388671875L133.53846153846155,26.451357574462882L133.84,27.392372283935554L134.4,34.48694763183593L134.7446153846154,27.655844879150386L134.7876923076923,29.435828857421882L135.08923076923077,27.557607574462896L135.21846153846153,28.225705871582026L135.26153846153846,28.413591918945304L135.30461538461537,27.799950866699213L135.43384615384616,28.12722549438476L136.25230769230768,24.874357147216802L136.59692307692308,27.980076599121098L136.64,28.157798614501946L136.76923076923077,26.335997161865226L137.07076923076923,25.427788238525387L137.2,25.599244384765633L137.28615384615387,28.666720428466792L137.41538461538462,26.374294586181634L137.5876923076923,25.979931945800786L137.97538461538463,26.48857467651368L138.23384615384614,27.926096496582023L138.44923076923078,26.894424743652344L138.62153846153845,29.406489105224615L138.7076923076923,26.805973358154297L139.13846153846154,24.394640045166014L139.18153846153845,26.202208251953117L139.35384615384615,25.438069305419912L139.56923076923076,26.957074432373055L139.6123076923077,24.04388641357421L139.6553846153846,28.08672241210937L139.7846153846154,25.192845153808598L140.17230769230767,24.862104492187505L140.2153846153846,23.349797363281247L140.25846153846155,23.694735260009764L140.47384615384615,25.04430984497071L140.6892307692308,24.59286117553711L140.81846153846155,26.08978271484375L140.9476923076923,25.208734893798827L141.03384615384616,23.674749298095698L141.12,24.03639617919922L141.2492307692308,29.661040039062506L141.55076923076922,19.66014572143555L142.0676923076923,23.609515838623054L142.15384615384613,23.82527420043946L142.71384615384613,24.90056396484375L142.75692307692307,25.032390289306637L143.23076923076923,22.116528472900395L143.66153846153847,24.042004852294923L143.83384615384614,26.706952819824227L144.09230769230768,25.73756164550782L144.39384615384614,23.504553527832037L144.43692307692308,23.26855712890624L144.6523076923077,21.744852600097655L144.82461538461538,28.072687225341802L144.8676923076923,25.370234069824225L145.68615384615387,25.022289276123047L145.72923076923075,23.591627502441405L146.1169230769231,25.293954315185555L146.20307692307694,22.64648056030274L146.28923076923076,26.42374633789063L146.63384615384615,26.929985351562493L146.97846153846154,23.53255187988282L147.1507692307692,24.544435729980467L147.28,24.25925765991212L147.36615384615382,25.64541915893555L147.40923076923076,16.53249572753906L147.53846153846155,22.549098510742184L147.79692307692306,22.623928833007803L147.96923076923076,28.46171127319337L148.0123076923077,26.110470886230477L148.6153846153846,20.763802947998048L148.7446153846154,22.13402069091796L148.87384615384616,24.837572174072264L149.17538461538462,23.768701324462885L149.3046153846154,23.207446899414062L149.39076923076922,24.258411407470696L149.64923076923077,21.672083892822275L149.86461538461538,22.311571655273443L150.12307692307695,21.146795196533198L150.20923076923077,21.296104736328118L150.51076923076923,22.332160797119133L150.64000000000001,25.255278778076182L150.76923076923077,21.190458221435552L150.89846153846153,20.895827331542964L151.24307692307693,20.754323120117185L151.63076923076923,26.33433166503907L152.06153846153848,22.45711807250977L152.27692307692308,13.792195281982412L152.83692307692309,20.01359115600587L152.9230769230769,20.916146392822274L153.65538461538463,21.48631347656249L153.78461538461536,20.863831787109376L154,22.3168832397461L154.3876923076923,21.424744110107426L154.43076923076922,19.30749252319336L154.68923076923076,19.334149475097664L154.9476923076923,24.12094940185546L155.24923076923076,21.507028656005865L155.2923076923077,21.37686782836914L155.3353846153846,21.61623123168946L155.42153846153843,20.81099502563477L155.59384615384616,20.589114837646484L155.76615384615383,17.32842315673827L155.93846153846155,20.18448913574219L155.98153846153843,21.173488159179694L156.02461538461537,22.74301635742188L156.24,20.27756790161133L156.32615384615383,25.914590454101557L156.7569230769231,19.455055541992188L157.05846153846156,19.390218200683588L157.48923076923077,19.632831573486328L158.26461538461538,19.59488525390624L158.48,11.746488037109376L158.8676923076923,18.00015853881835L158.99692307692308,19.625854492187493L159.0830769230769,23.758402252197264L159.3846153846154,19.677277832031244L159.55692307692308,18.581669006347663L159.6,20.54364227294921L159.9446153846154,-15.651844024658203L160.1169230769231,20.233193664550782L160.16,23.34182098388672L160.28923076923078,21.61353942871093L160.37538461538463,19.14632644653321L160.6769230769231,21.587944793701176L161.02153846153846,18.451562194824227L161.19384615384615,18.83479751586913L161.28,21.45682968139648L161.53846153846152,24.07400939941406L162.2276923076923,19.713702697753913L162.3569230769231,19.64915344238282L162.87384615384616,18.00081573486329L163.47692307692307,21.23328399658204L163.64923076923077,17.561637725830085L163.99384615384616,17.081011352539054L165.45846153846153,19.201719970703117L165.67384615384617,18.63997940063476L166.14769230769232,17.323336639404292L166.5353846153846,17.574457550048834L166.75076923076924,19.89937408447266L166.83692307692306,18.75840072631835L166.92307692307693,18.321959533691402L167.0523076923077,17.445962219238282L167.13846153846154,19.866370239257815L167.35384615384618,20.187604064941414L167.39692307692306,14.971781158447257L167.74153846153845,20.929398345947263L167.7846153846154,16.631831359863277L167.91384615384618,21.851561431884768L168.2153846153846,22.3004263305664L168.3876923076923,19.263955535888666L168.43076923076924,18.694166564941398L168.81846153846152,19.66465606689453L168.99076923076925,19.95691925048828L169.16307692307691,18.196867218017577L169.5076923076923,20.82846923828124L169.72307692307692,18.23033020019531L170.36923076923077,19.058586273193352L170.4123076923077,19.56820129394531L170.58461538461538,21.30469329833984L170.67076923076925,23.527609405517584L170.97230769230768,20.328406066894537L171.14461538461538,16.676484680175776L171.53230769230768,19.907665557861332L171.5753846153846,17.30090194702149L171.61846153846153,18.72169677734375L171.66153846153847,18.939570770263668L171.70461538461538,15.001057891845706L171.96307692307693,19.72539718627929L172.04923076923077,18.552293243408197L172.17846153846153,18.031622924804683L172.30769230769232,19.315612945556648L172.35076923076923,19.30606109619141L172.48,19.326020050048832L172.95384615384614,19.908304748535155L173.2123076923077,20.637000122070322L173.47076923076924,20.282717437744132L173.85846153846154,20.65618484497071L173.90153846153845,17.887480926513682L174.11692307692306,20.831368103027334L174.24615384615385,19.6766746520996L174.5046153846154,22.95920684814454L174.67692307692306,19.875327911376953L174.8492307692308,25.38886962890626L175.19384615384615,21.551681976318363L175.32307692307694,21.22260681152343L175.58153846153846,22.333178100585943L175.6246153846154,18.464102935791026L175.9692307692308,18.001968078613288L176.09846153846155,19.280511474609384L176.14153846153846,14.400992889404298L176.65846153846155,20.35821395874024L177.21846153846153,21.807817382812495L177.26153846153846,17.064707489013664L177.3046153846154,18.778449707031257L177.3476923076923,19.707616882324224L177.95076923076923,17.832222442626946L178.98461538461538,21.49313751220704L179.11384615384614,19.869305114746087L179.20000000000002,17.887796020507807L179.28615384615387,29.049244537353506L179.41538461538462,15.252466888427726L179.5876923076923,21.321960449218743L179.71692307692308,19.757905883789057L179.76,16.196848602294928L180.5353846153846,21.344764251708988L180.96615384615387,21.096020050048832L181.2676923076923,19.8472395324707L181.44,19.955748901367183L181.48307692307694,22.790388488769537L181.69846153846154,18.583946685791012L181.74153846153848,18.700396423339846L181.8707692307692,18.822319793701176L182.3446153846154,19.38361022949219L182.3876923076923,19.875733032226567L182.9046153846154,15.438075256347652L182.9476923076923,16.270886688232416L183.03384615384616,17.07253982543945L183.07692307692307,18.89876159667968L183.20615384615382,19.405360717773434L183.24923076923076,19.527392120361327L183.2923076923077,20.94651245117188L183.59384615384616,19.737091674804685L183.68,17.41572219848632L183.76615384615383,18.251000366210942L184.41230769230768,19.583992004394524L184.45538461538462,20.400022430419916L184.49846153846156,21.920359954833994L184.54153846153847,20.374193725585936L184.71384615384616,17.403721618652348L184.84307692307695,23.542625885009762L185.48923076923077,21.50743377685546L185.57538461538462,23.065609588623037L185.83384615384617,19.089186401367186L185.92000000000002,21.001428833007804L186.09230769230768,19.118733215332036L186.26461538461538,19.001473236083974L186.3076923076923,15.918557586669923L186.95384615384614,19.021135101318368L187.34153846153848,19.330359344482424L187.4276923076923,17.370033569335938L187.51384615384615,19.237343597412107L187.6430769230769,21.121542663574218L187.72923076923075,18.494009857177726L187.85846153846154,17.57633911132812L188.24615384615385,18.43516830444337L188.37538461538463,17.89064086914063L188.50461538461536,18.47895736694337L189.4523076923077,20.398311920166016L189.6676923076923,16.695966491699213L189.92615384615385,17.825200347900385L190.0553846153846,16.724153900146483L190.2276923076923,17.098881683349607L190.48615384615383,18.287758331298832L190.6153846153846,16.535529632568366L190.70153846153843,18.62618728637695L190.9169230769231,18.510331726074213L191.00307692307692,21.465697326660152L191.1323076923077,21.005705108642577L191.86461538461538,17.292187347412106L192.03692307692307,15.136629333496087L192.38153846153844,19.137359771728523L192.42461538461538,16.428001556396477L192.81230769230768,16.298659973144527L193.07076923076923,21.322905731201182L193.11384615384617,20.35913223266601L193.15692307692308,19.541490325927736L193.28615384615384,17.63335311889648L193.54461538461538,20.800335845947263L193.76,17.87068191528321L193.88923076923078,20.598585662841803L194.23384615384617,18.500581817626948L194.40615384615384,18.04768371582032L194.4923076923077,20.291765136718755L194.88,15.42377899169921L195.09538461538463,18.466461639404294L195.35384615384615,17.604985656738275L195.6123076923077,17.423203430175786L195.91384615384615,20.48126266479492L196.68923076923076,18.24721923828125L196.7323076923077,20.326632537841792L197.03384615384616,16.067741088867184L197.37846153846152,17.744590301513675L197.42153846153846,17.579949188232426L197.5076923076923,16.952948150634764L197.67999999999998,16.935545959472666L197.8523076923077,17.021062469482423L198.0676923076923,12.38134841918945L198.58461538461538,18.937563171386717L198.84307692307692,17.847689056396483L199.10153846153847,13.235181121826168L199.23076923076923,15.629967498779301L199.48923076923077,14.06673217773437L200.00615384615384,15.690420532226561L200.17846153846153,17.597504425048832L200.48,15.788792877197261L200.60923076923078,14.893322753906254L201.08307692307693,15.463264770507811L201.51384615384617,15.555722351074229L201.55692307692306,16.510007019042966L201.68615384615384,15.210190277099615L202.16,12.154903869628912L202.80615384615385,17.335193176269527L202.8492307692308,16.725234222412112L203.19384615384618,17.220426940917967L203.4092307692308,13.717698059082034L203.6676923076923,5.242993011474601L203.75384615384613,17.05505661010743L203.79692307692306,14.664033355712892L204.0553846153846,15.52516723632812L204.48615384615385,16.34314224243164L204.6153846153846,13.410607452392588L204.70153846153846,16.46147354125976L204.7446153846154,14.384941101074212L204.7876923076923,17.29379882812499L204.96,16.008350372314453L205.39076923076925,13.45265899658204L205.43384615384613,12.459041595458991L205.51999999999998,14.827306060791011L205.95076923076925,17.255546417236328L205.99384615384614,12.913128051757813L206.72615384615386,16.200377655029293L207.02769230769232,12.8626319885254L207.2,10.6394548034668L207.58769230769232,11.83468734741212L207.80307692307693,15.503569793701168L208.01846153846154,11.900325927734375L208.27692307692308,15.472015380859368L208.6646153846154,12.247955627441405L208.83692307692309,9.68613342285156L209.00923076923078,9.864467620849602L209.39692307692306,15.995818634033204L209.61230769230767,11.964010925292973L209.8707692307692,12.068685150146493L210.08615384615385,13.860120544433588L210.2153846153846,10.632504730224612L210.25846153846155,12.320499267578125L210.56,12.410715179443365L210.9046153846154,13.224801025390628L211.2492307692308,16.616742858886727L211.42153846153846,9.879331054687496L211.55076923076922,13.936427307128902L211.68,13.92908111572265L211.72307692307692,4.770856170654293L212.0676923076923,12.198620910644541L212.15384615384613,11.499310302734365L212.6276923076923,8.143658294677726L212.97230769230768,13.191130981445315L213.23076923076923,11.35197235107422L213.44615384615386,10.864593963623053L213.61846153846153,12.959086761474618L213.96307692307693,11.128003540039064L214.95384615384614,12.358508605957033L215.2123076923077,11.357860107421876L215.3846153846154,11.419060363769523L216.0307692307692,13.403639373779301L216.28923076923076,5.199591064453117L216.41846153846154,15.824974670410153L216.5046153846154,13.53708618164062L216.80615384615382,11.475984344482416L216.9353846153846,12.108404998779301L217.1076923076923,10.808354187011723L217.28,11.315448455810554L217.32307692307694,10.882320251464844L217.36615384615382,11.747190246582038L217.4523076923077,12.154381713867185L217.71076923076922,13.749468536376945L218.0123076923077,13.03956176757812L218.09846153846155,12.009285430908195L218.1846153846154,12.587419891357428L218.35692307692307,9.916089019775388L218.48615384615383,10.298784179687507L218.52923076923076,12.306049957275395L218.6153846153846,13.004811401367197L218.96,11.185854797363278L219.3046153846154,10.916440429687496L219.39076923076922,12.99105529785156L219.99384615384616,12.535357360839834L220.12307692307695,12.184594726562501L220.25230769230768,9.519268646240231L220.68307692307692,12.280149230957026L220.85538461538462,11.876477813720697L220.98461538461538,12.509141540527338L221.63076923076923,10.508582763671882L221.84615384615384,9.774116668701172L221.88923076923075,13.944493713378915L222.06153846153848,11.237476196289062L222.23384615384614,9.9637222290039L222.27692307692308,9.212169036865237L222.32000000000002,7.113976135253898L222.40615384615384,9.995420684814459L222.62153846153848,14.120703277587895L222.66461538461536,12.273046112060548L222.7076923076923,11.014668731689456L223.09538461538463,10.498049621582036L223.44,12.750899658203128L223.6123076923077,11.89041397094727L223.69846153846154,11.807391204833994L223.9569230769231,10.364467773437505L224.30153846153848,8.90336791992187L224.34461538461537,11.723369140625008L224.6030769230769,10.412533111572259L224.7323076923077,8.747594451904291L225.0769230769231,7.928512115478517L225.3353846153846,12.292942047119148L225.46461538461537,10.443610382080074L225.5076923076923,12.677284698486327L225.6369230769231,9.782453155517587L225.76615384615383,8.64657531738282L225.89538461538461,11.52375259399414L226.4123076923077,10.069620819091789L226.58461538461538,9.233424377441416L226.88615384615383,9.86642120361328L227.14461538461538,11.63084854125977L227.27384615384616,11.168434600830084L227.31692307692308,10.05508148193359L227.36,10.567514343261726L227.48923076923077,10.519088897705084L227.53230769230768,9.741526947021487L227.83384615384617,16.42076339721679L227.92,11.487858886718746L228.00615384615384,13.607568206787118L228.26461538461538,9.652040252685554L228.5230769230769,11.351909332275397L228.6523076923077,11.351738281249993L228.78153846153845,9.689032287597653L228.8676923076923,14.406241455078135L228.95384615384617,11.243823089599607L229.6430769230769,7.087292175292967L229.72923076923078,14.277899169921874L229.81538461538463,8.776547088623044L229.85846153846154,10.249341430664058L229.90153846153845,13.482556915283212L230.2030769230769,8.201329498291024L230.24615384615385,13.59975387573243L231.02153846153846,13.831942138671867L231.15076923076924,12.607477874755864L231.8830769230769,12.930701293945315L232.44307692307692,13.093343811035162L233.00307692307692,10.055117492675786L233.08923076923077,8.589669342041026L233.26153846153846,9.229760284423838L233.73538461538462,8.842464752197271L233.82153846153847,12.708442993164061L233.90769230769232,9.413802185058604L234.07999999999998,9.611915283203132L234.38153846153847,11.6856478881836L234.55384615384617,12.290727386474616L234.76923076923077,11.171621551513677L236.01846153846154,9.007988128662115L236.10461538461539,8.468637237548823L236.5353846153846,0.5540072631835848L236.57846153846154,12.065237121582024L237.56923076923078,9.04945449829102L237.87076923076924,7.067117156982417L237.95692307692306,13.421671752929692L238.0430769230769,11.056189117431632L238.99076923076925,7.344714965820306L239.5076923076923,13.889172210693356L239.59384615384613,9.812450103759772L239.68,11.619712219238277L239.80923076923077,9.115147094726568L240.24,11.46508209228515L240.36923076923077,10.737953186035163L240.4123076923077,7.709098663330085L240.67076923076925,9.684855041503898L240.75692307692307,10.200492858886726L240.84307692307692,10.655524597167965L241.05846153846153,10.10158935546875L241.14461538461538,9.578002166748043L241.31692307692308,8.727131347656242L241.40307692307692,14.435023040771481L242.22153846153847,10.436111145019533L242.6523076923077,8.068683929443365L242.82461538461538,9.346201019287102L242.99692307692308,9.210296478271479L243.29846153846154,10.116695861816398L243.47076923076924,12.25615707397461L243.51384615384615,6.868905029296872L243.6,10.5973942565918L243.64307692307693,12.385228576660158L244.16,5.888656616210944L244.54769230769233,11.642885131835937L245.02153846153846,9.076696624755852L245.45230769230767,11.736846160888675L245.4953846153846,10.760765991210935L245.58153846153846,12.246083068847646L245.79692307692306,8.82623291015625L245.88307692307694,10.660052947998041L246.09846153846155,13.06939666748047L246.35692307692307,7.140164947509767L246.65846153846155,9.074490966796871L246.83076923076922,9.944555511474608L247.21846153846153,11.337333984375006L247.8646153846154,11.483294525146494L247.90769230769232,8.307984313964846L248.08,13.682857666015625L248.25230769230768,12.403909149169918L248.38153846153847,8.362090454101565L248.89846153846153,11.650573425292963L249.28615384615387,12.022717437744138L249.50153846153847,9.83349838256835L249.5876923076923,8.977018890380863L249.67384615384614,8.944393157958984L249.76,-3.0977790832519636L250.06153846153848,10.532664947509767L250.6646153846154,14.980657806396477L250.7076923076923,8.941197204589841L250.83692307692309,7.035481719970699L250.92307692307693,12.971618499755866L251.0953846153846,10.413532409667969L251.13846153846154,9.6552182006836L251.35384615384615,9.7272036743164L251.44,13.948193817138668L251.52615384615387,11.943682861328135L251.74153846153848,8.960210876464844L252.56,10.467305450439461L252.81846153846155,14.185576629638668L252.9046153846154,12.977758331298828L253.03384615384616,9.791788940429692L253.42153846153846,-5.673987579345718L253.89538461538461,11.112050781249994L253.98153846153846,12.745840148925774L254.28307692307695,8.900658111572257L254.32615384615383,12.227726593017582L254.49846153846156,7.853168640136718L254.92923076923077,11.607657623291011L255.01538461538462,10.890890808105466L255.23076923076923,10.845166168212888L255.40307692307692,8.725528869628906L255.70461538461538,10.684000091552734L256.1353846153846,9.586221618652344L256.2215384615385,12.529856719970713L256.26461538461535,11.766780090332041L256.4369230769231,9.408481597900398L256.5230769230769,14.715528717041014L256.60923076923075,9.007871093750001L256.6523076923077,10.637312164306639L256.73846153846154,10.543270111083984L257.04,5.886811065673832L257.2123076923077,13.421410675048838L258.33230769230767,9.438541564941406L258.41846153846154,10.395238952636724L258.67692307692306,7.7122946166992286L258.76307692307694,9.105199127197269" style="fill: none;" fill="none"></path></g></g></g></g></g></g><g transform="translate(50, 177)" clip-path="url(#clip_1)"><clipPath id="clip_1"><rect width="280" height="23"></rect></clipPath><g><g><line x1="0" y1="0" x2="0" y2="5" style="visibility: inherit;" fill="rgb(0, 0, 0)" stroke="rgb(204, 204, 204)" stroke-width="1px"></line><line x1="21.53846153846154" y1="0" x2="21.53846153846154" y2="5" style="visibility: inherit;" fill="rgb(0, 0, 0)" stroke="rgb(204, 204, 204)" stroke-width="1px"></line><line x1="43.07692307692308" y1="0" x2="43.07692307692308" y2="5" style="visibility: inherit;" fill="rgb(0, 0, 0)" stroke="rgb(204, 204, 204)" stroke-width="1px"></line><line x1="64.61538461538461" y1="0" x2="64.61538461538461" y2="5" style="visibility: inherit;" fill="rgb(0, 0, 0)" stroke="rgb(204, 204, 204)" stroke-width="1px"></line><line x1="86.15384615384616" y1="0" x2="86.15384615384616" y2="5" style="visibility: inherit;" fill="rgb(0, 0, 0)" stroke="rgb(204, 204, 204)" stroke-width="1px"></line><line x1="107.6923076923077" y1="0" x2="107.6923076923077" y2="5" style="visibility: inherit;" fill="rgb(0, 0, 0)" stroke="rgb(204, 204, 204)" stroke-width="1px"></line><line x1="129.23076923076923" y1="0" x2="129.23076923076923" y2="5" style="visibility: inherit;" fill="rgb(0, 0, 0)" stroke="rgb(204, 204, 204)" stroke-width="1px"></line><line x1="150.76923076923077" y1="0" x2="150.76923076923077" y2="5" style="visibility: inherit;" fill="rgb(0, 0, 0)" stroke="rgb(204, 204, 204)" stroke-width="1px"></line><line x1="172.30769230769232" y1="0" x2="172.30769230769232" y2="5" style="visibility: inherit;" fill="rgb(0, 0, 0)" stroke="rgb(204, 204, 204)" stroke-width="1px"></line><line x1="193.84615384615384" y1="0" x2="193.84615384615384" y2="5" style="visibility: inherit;" fill="rgb(0, 0, 0)" stroke="rgb(204, 204, 204)" stroke-width="1px"></line><line x1="215.3846153846154" y1="0" x2="215.3846153846154" y2="5" style="visibility: inherit;" fill="rgb(0, 0, 0)" stroke="rgb(204, 204, 204)" stroke-width="1px"></line><line x1="236.92307692307693" y1="0" x2="236.92307692307693" y2="5" style="visibility: inherit;" fill="rgb(0, 0, 0)" stroke="rgb(204, 204, 204)" stroke-width="1px"></line><line x1="258.46153846153845" y1="0" x2="258.46153846153845" y2="5" style="visibility: inherit;" fill="rgb(0, 0, 0)" stroke="rgb(204, 204, 204)" stroke-width="1px"></line><line x1="280" y1="0" x2="280" y2="5" style="visibility: inherit;" fill="rgb(0, 0, 0)" stroke="rgb(204, 204, 204)" stroke-width="1px"></line></g><g transform="translate(0, 8)"><text x="0" y="0" dx="0em" dy="0.95em" style="text-anchor: middle; visibility: hidden; font-family: Roboto, sans-serif; font-size: 12px; font-weight: 200;" fill="rgb(33, 33, 33)" stroke="none" stroke-width="1px">-500</text><text x="21.53846153846154" y="0" dx="0em" dy="0.95em" style="text-anchor: middle; visibility: inherit; font-family: Roboto, sans-serif; font-size: 12px; font-weight: 200;" fill="rgb(33, 33, 33)" stroke="none" stroke-width="1px">0</text><text x="43.07692307692308" y="0" dx="0em" dy="0.95em" style="text-anchor: middle; visibility: hidden; font-family: Roboto, sans-serif; font-size: 12px; font-weight: 200;" fill="rgb(33, 33, 33)" stroke="none" stroke-width="1px">500</text><text x="64.61538461538461" y="0" dx="0em" dy="0.95em" style="text-anchor: middle; visibility: inherit; font-family: Roboto, sans-serif; font-size: 12px; font-weight: 200;" fill="rgb(33, 33, 33)" stroke="none" stroke-width="1px">1k</text><text x="86.15384615384616" y="0" dx="0em" dy="0.95em" style="text-anchor: middle; visibility: hidden; font-family: Roboto, sans-serif; font-size: 12px; font-weight: 200;" fill="rgb(33, 33, 33)" stroke="none" stroke-width="1px">1.5k</text><text x="107.6923076923077" y="0" dx="0em" dy="0.95em" style="text-anchor: middle; visibility: inherit; font-family: Roboto, sans-serif; font-size: 12px; font-weight: 200;" fill="rgb(33, 33, 33)" stroke="none" stroke-width="1px">2k</text><text x="129.23076923076923" y="0" dx="0em" dy="0.95em" style="text-anchor: middle; visibility: hidden; font-family: Roboto, sans-serif; font-size: 12px; font-weight: 200;" fill="rgb(33, 33, 33)" stroke="none" stroke-width="1px">2.5k</text><text x="150.76923076923077" y="0" dx="0em" dy="0.95em" style="text-anchor: middle; visibility: inherit; font-family: Roboto, sans-serif; font-size: 12px; font-weight: 200;" fill="rgb(33, 33, 33)" stroke="none" stroke-width="1px">3k</text><text x="172.30769230769232" y="0" dx="0em" dy="0.95em" style="text-anchor: middle; visibility: hidden; font-family: Roboto, sans-serif; font-size: 12px; font-weight: 200;" fill="rgb(33, 33, 33)" stroke="none" stroke-width="1px">3.5k</text><text x="193.84615384615384" y="0" dx="0em" dy="0.95em" style="text-anchor: middle; visibility: inherit; font-family: Roboto, sans-serif; font-size: 12px; font-weight: 200;" fill="rgb(33, 33, 33)" stroke="none" stroke-width="1px">4k</text><text x="215.3846153846154" y="0" dx="0em" dy="0.95em" style="text-anchor: middle; visibility: hidden; font-family: Roboto, sans-serif; font-size: 12px; font-weight: 200;" fill="rgb(33, 33, 33)" stroke="none" stroke-width="1px">4.5k</text><text x="236.92307692307693" y="0" dx="0em" dy="0.95em" style="text-anchor: middle; visibility: inherit; font-family: Roboto, sans-serif; font-size: 12px; font-weight: 200;" fill="rgb(33, 33, 33)" stroke="none" stroke-width="1px">5k</text><text x="258.46153846153845" y="0" dx="0em" dy="0.95em" style="text-anchor: middle; visibility: hidden; font-family: Roboto, sans-serif; font-size: 12px; font-weight: 200;" fill="rgb(33, 33, 33)" stroke="none" stroke-width="1px">5.5k</text><text x="280" y="0" dx="0em" dy="0.95em" style="text-anchor: middle; visibility: hidden; font-family: Roboto, sans-serif; font-size: 12px; font-weight: 200;" fill="rgb(33, 33, 33)" stroke="none" stroke-width="1px">6k</text></g><line x1="0" y1="0" x2="280" y2="0" fill="rgb(0, 0, 0)" stroke="rgb(204, 204, 204)" stroke-width="1px"></line></g></g></g></g></svg>