<svg viewBox="0 0 330 200" xmlns="http://www.w3.org/2000/svg"><g><g><g><g><g><line x1="80" y1="177" x2="75" y2="177" style="visibility: inherit;" fill="rgb(0, 0, 0)" stroke="rgb(204, 204, 204)" stroke-width="1px"></line><line x1="80" y1="164.35714285714286" x2="75" y2="164.35714285714286" style="visibility: inherit;" fill="rgb(0, 0, 0)" stroke="rgb(204, 204, 204)" stroke-width="1px"></line><line x1="80" y1="151.71428571428572" x2="75" y2="151.71428571428572" style="visibility: inherit;" fill="rgb(0, 0, 0)" stroke="rgb(204, 204, 204)" stroke-width="1px"></line><line x1="80" y1="139.07142857142856" x2="75" y2="139.07142857142856" style="visibility: inherit;" fill="rgb(0, 0, 0)" stroke="rgb(204, 204, 204)" stroke-width="1px"></line><line x1="80" y1="126.42857142857143" x2="75" y2="126.42857142857143" style="visibility: inherit;" fill="rgb(0, 0, 0)" stroke="rgb(204, 204, 204)" stroke-width="1px"></line><line x1="80" y1="113.78571428571428" x2="75" y2="113.78571428571428" style="visibility: inherit;" fill="rgb(0, 0, 0)" stroke="rgb(204, 204, 204)" stroke-width="1px"></line><line x1="80" y1="101.14285714285714" x2="75" y2="101.14285714285714" style="visibility: inherit;" fill="rgb(0, 0, 0)" stroke="rgb(204, 204, 204)" stroke-width="1px"></line><line x1="80" y1="88.5" x2="75" y2="88.5" style="visibility: inherit;" fill="rgb(0, 0, 0)" stroke="rgb(204, 204, 204)" stroke-width="1px"></line><line x1="80" y1="75.85714285714286" x2="75" y2="75.85714285714286" style="visibility: inherit;" fill="rgb(0, 0, 0)" stroke="rgb(204, 204, 204)" stroke-width="1px"></line><line x1="80" y1="63.21428571428571" x2="75" y2="63.21428571428571" style="visibility: inherit;" fill="rgb(0, 0, 0)" stroke="rgb(204, 204, 204)" stroke-width="1px"></line><line x1="80" y1="50.57142857142857" x2="75" y2="50.57142857142857" style="visibility: inherit;" fill="rgb(0, 0, 0)" stroke="rgb(204, 204, 204)" stroke-width="1px"></line><line x1="80" y1="37.92857142857143" x2="75" y2="37.92857142857143" style="visibility: inherit;" fill="rgb(0, 0, 0)" stroke="rgb(204, 204, 204)" stroke-width="1px"></line><line x1="80" y1="25.285714285714295" x2="75" y2="25.285714285714295" style="visibility: inherit;" fill="rgb(0, 0, 0)" stroke="rgb(204, 204, 204)" stroke-width="1px"></line><line x1="80" y1="12.642857142857137" x2="75" y2="12.642857142857137" style="visibility: inherit;" fill="rgb(0, 0, 0)" stroke="rgb(204, 204, 204)" stroke-width="1px"></line><line x1="80" y1="0" x2="75" y2="0" style="visibility: inherit;" fill="rgb(0, 0, 0)" stroke="rgb(204, 204, 204)" stroke-width="1px"></line></g><g transform="translate(70, 0)"><text x="0" y="177" dx="0em" dy="0.3em" style="text-anchor: end; visibility: hidden; font-family: Roboto, sans-serif; font-size: 12px; font-weight: 200;" fill="rgb(33, 33, 33)" stroke="none" stroke-width="1px">450</text><text x="0" y="164.35714285714286" dx="0em" dy="0.3em" style="text-anchor: end; visibility: inherit; font-family: Roboto, sans-serif; font-size: 12px; font-weight: 200;" fill="rgb(33, 33, 33)" stroke="none" stroke-width="1px">500</text><text x="0" y="151.71428571428572" dx="0em" dy="0.3em" style="text-anchor: end; visibility: hidden; font-family: Roboto, sans-serif; font-size: 12px; font-weight: 200;" fill="rgb(33, 33, 33)" stroke="none" stroke-width="1px">550</text><text x="0" y="139.07142857142856" dx="0em" dy="0.3em" style="text-anchor: end; visibility: inherit; font-family: Roboto, sans-serif; font-size: 12px; font-weight: 200;" fill="rgb(33, 33, 33)" stroke="none" stroke-width="1px">600</text><text x="0" y="126.42857142857143" dx="0em" dy="0.3em" style="text-anchor: end; visibility: hidden; font-family: Roboto, sans-serif; font-size: 12px; font-weight: 200;" fill="rgb(33, 33, 33)" stroke="none" stroke-width="1px">650</text><text x="0" y="113.78571428571428" dx="0em" dy="0.3em" style="text-anchor: end; visibility: inherit; font-family: Roboto, sans-serif; font-size: 12px; font-weight: 200;" fill="rgb(33, 33, 33)" stroke="none" stroke-width="1px">700</text><text x="0" y="101.14285714285714" dx="0em" dy="0.3em" style="text-anchor: end; visibility: hidden; font-family: Roboto, sans-serif; font-size: 12px; font-weight: 200;" fill="rgb(33, 33, 33)" stroke="none" stroke-width="1px">750</text><text x="0" y="88.5" dx="0em" dy="0.3em" style="text-anchor: end; visibility: inherit; font-family: Roboto, sans-serif; font-size: 12px; font-weight: 200;" fill="rgb(33, 33, 33)" stroke="none" stroke-width="1px">800</text><text x="0" y="75.85714285714286" dx="0em" dy="0.3em" style="text-anchor: end; visibility: hidden; font-family: Roboto, sans-serif; font-size: 12px; font-weight: 200;" fill="rgb(33, 33, 33)" stroke="none" stroke-width="1px">850</text><text x="0" y="63.21428571428571" dx="0em" dy="0.3em" style="text-anchor: end; visibility: inherit; font-family: Roboto, sans-serif; font-size: 12px; font-weight: 200;" fill="rgb(33, 33, 33)" stroke="none" stroke-width="1px">900</text><text x="0" y="50.57142857142857" dx="0em" dy="0.3em" style="text-anchor: end; visibility: hidden; font-family: Roboto, sans-serif; font-size: 12px; font-weight: 200;" fill="rgb(33, 33, 33)" stroke="none" stroke-width="1px">950</text><text x="0" y="37.92857142857143" dx="0em" dy="0.3em" style="text-anchor: end; visibility: inherit; font-family: Roboto, sans-serif; font-size: 12px; font-weight: 200;" fill="rgb(33, 33, 33)" stroke="none" stroke-width="1px">1e+3</text><text x="0" y="25.285714285714295" dx="0em" dy="0.3em" style="text-anchor: end; visibility: hidden; font-family: Roboto, sans-serif; font-size: 12px; font-weight: 200;" fill="rgb(33, 33, 33)" stroke="none" stroke-width="1px">1.05e+3</text><text x="0" y="12.642857142857137" dx="0em" dy="0.3em" style="text-anchor: end; visibility: inherit; font-family: Roboto, sans-serif; font-size: 12px; font-weight: 200;" fill="rgb(33, 33, 33)" stroke="none" stroke-width="1px">1.1e+3</text><text x="0" y="0" dx="0em" dy="0.3em" style="text-anchor: end; visibility: hidden; font-family: Roboto, sans-serif; font-size: 12px; font-weight: 200;" fill="rgb(33, 33, 33)" stroke="none" stroke-width="1px">1.15e+3</text></g><line x1="80" y1="0" x2="80" y2="177" fill="rgb(0, 0, 0)" stroke="rgb(204, 204, 204)" stroke-width="1px"></line></g></g><g transform="translate(80, 0)" clip-path="url(#clip_0)"><clipPath id="clip_0"><rect width="250" height="177"></rect></clipPath><g><g><g><line x1="0" y1="0" x2="0" y2="177" fill="rgb(0, 0, 0)" stroke="rgb(66, 66, 66)" stroke-width="1px" opacity="0.25"></line><line x1="19.230769230769234" y1="0" x2="19.230769230769234" y2="177" fill="rgb(0, 0, 0)" stroke="rgb(66, 66, 66)" stroke-width="1px" opacity="0.25"></line><line x1="38.46153846153847" y1="0" x2="38.46153846153847" y2="177" fill="rgb(0, 0, 0)" stroke="rgb(66, 66, 66)" stroke-width="1px" opacity="0.25"></line><line x1="57.69230769230769" y1="0" x2="57.69230769230769" y2="177" fill="rgb(0, 0, 0)" stroke="rgb(66, 66, 66)" stroke-width="1px" opacity="0.25"></line><line x1="76.92307692307693" y1="0" x2="76.92307692307693" y2="177" fill="rgb(0, 0, 0)" stroke="rgb(66, 66, 66)" stroke-width="1px" opacity="0.25"></line><line x1="96.15384615384616" y1="0" x2="96.15384615384616" y2="177" fill="rgb(0, 0, 0)" stroke="rgb(66, 66, 66)" stroke-width="1px" opacity="0.25"></line><line x1="115.38461538461539" y1="0" x2="115.38461538461539" y2="177" fill="rgb(0, 0, 0)" stroke="rgb(66, 66, 66)" stroke-width="1px" opacity="0.25"></line><line x1="134.6153846153846" y1="0" x2="134.6153846153846" y2="177" fill="rgb(0, 0, 0)" stroke="rgb(66, 66, 66)" stroke-width="1px" opacity="0.25"></line><line x1="153.84615384615387" y1="0" x2="153.84615384615387" y2="177" fill="rgb(0, 0, 0)" stroke="rgb(66, 66, 66)" stroke-width="1px" opacity="0.25"></line><line x1="173.07692307692307" y1="0" x2="173.07692307692307" y2="177" fill="rgb(0, 0, 0)" stroke="rgb(66, 66, 66)" stroke-width="1px" opacity="0.25"></line><line x1="192.30769230769232" y1="0" x2="192.30769230769232" y2="177" fill="rgb(0, 0, 0)" stroke="rgb(66, 66, 66)" stroke-width="1px" opacity="0.25"></line><line x1="211.53846153846155" y1="0" x2="211.53846153846155" y2="177" fill="rgb(0, 0, 0)" stroke="rgb(66, 66, 66)" stroke-width="1px" opacity="0.25"></line><line x1="230.76923076923077" y1="0" x2="230.76923076923077" y2="177" fill="rgb(0, 0, 0)" stroke="rgb(66, 66, 66)" stroke-width="1px" opacity="0.25"></line><line x1="250" y1="0" x2="250" y2="177" fill="rgb(0, 0, 0)" stroke="rgb(66, 66, 66)" stroke-width="1px" opacity="0.25"></line></g><g><line x1="0" y1="177" x2="250" y2="177" fill="rgb(0, 0, 0)" stroke="rgb(66, 66, 66)" stroke-width="1px" opacity="0.25"></line><line x1="0" y1="164.35714285714286" x2="250" y2="164.35714285714286" fill="rgb(0, 0, 0)" stroke="rgb(66, 66, 66)" stroke-width="1px" opacity="0.25"></line><line x1="0" y1="151.71428571428572" x2="250" y2="151.71428571428572" fill="rgb(0, 0, 0)" stroke="rgb(66, 66, 66)" stroke-width="1px" opacity="0.25"></line><line x1="0" y1="139.07142857142856" x2="250" y2="139.07142857142856" fill="rgb(0, 0, 0)" stroke="rgb(66, 66, 66)" stroke-width="1px" opacity="0.25"></line><line x1="0" y1="126.42857142857143" x2="250" y2="126.42857142857143" fill="rgb(0, 0, 0)" stroke="rgb(66, 66, 66)" stroke-width="1px" opacity="0.25"></line><line x1="0" y1="113.78571428571428" x2="250" y2="113.78571428571428" fill="rgb(0, 0, 0)" stroke="rgb(66, 66, 66)" stroke-width="1px" opacity="0.25"></line><line x1="0" y1="101.14285714285714" x2="250" y2="101.14285714285714" fill="rgb(0, 0, 0)" stroke="rgb(66, 66, 66)" stroke-width="1px" opacity="0.25"></line><line x1="0" y1="88.5" x2="250" y2="88.5" fill="rgb(0, 0, 0)" stroke="rgb(66, 66, 66)" stroke-width="1px" opacity="0.25"></line><line x1="0" y1="75.85714285714286" x2="250" y2="75.85714285714286" fill="rgb(0, 0, 0)" stroke="rgb(66, 66, 66)" stroke-width="1px" opacity="0.25"></line><line x1="0" y1="63.21428571428571" x2="250" y2="63.21428571428571" fill="rgb(0, 0, 0)" stroke="rgb(66, 66, 66)" stroke-width="1px" opacity="0.25"></line><line x1="0" y1="50.57142857142857" x2="250" y2="50.57142857142857" fill="rgb(0, 0, 0)" stroke="rgb(66, 66, 66)" stroke-width="1px" opacity="0.25"></line><line x1="0" y1="37.92857142857143" x2="250" y2="37.92857142857143" fill="rgb(0, 0, 0)" stroke="rgb(66, 66, 66)" stroke-width="1px" opacity="0.25"></line><line x1="0" y1="25.285714285714295" x2="250" y2="25.285714285714295" fill="rgb(0, 0, 0)" stroke="rgb(66, 66, 66)" stroke-width="1px" opacity="0.25"></line><line x1="0" y1="12.642857142857137" x2="250" y2="12.642857142857137" fill="rgb(0, 0, 0)" stroke="rgb(66, 66, 66)" stroke-width="1px" opacity="0.25"></line><line x1="0" y1="0" x2="250" y2="0" fill="rgb(0, 0, 0)" stroke="rgb(66, 66, 66)" stroke-width="1px" opacity="0.25"></line></g></g></g><g><g><line x1="0" y1="290.7857142857143" x2="250" y2="290.7857142857143" fill="rgb(0, 0, 0)" stroke="rgb(153, 153, 153)" stroke-width="1.5px"></line></g></g><g><g><line x1="19.230769230769234" y1="0" x2="19.230769230769234" y2="177" fill="rgb(0, 0, 0)" stroke="rgb(153, 153, 153)" stroke-width="1.5px"></line></g></g><g><g><g><g><g><path stroke="rgb(51, 187, 238)" stroke-width="2px" d="M27.076923076923077,180.07633857942713L27.153846153846153,173.71726566861955L27.46153846153846,174.9191055051647L28.076923076923077,170.44906321535396L28.653846153846153,163.912190493029L28.692307692307693,161.00945068077345L29.19230769230769,162.06913992637098L29.23076923076923,154.86809958677176L29.69230769230769,150.88676794636373L29.80769230769231,169.2752494450649L30.115384615384617,167.4533029262651L30.23076923076923,161.31111049132483L30.346153846153847,159.14148790220958L30.423076923076923,163.61011042502216L30.615384615384613,157.95560403146243L30.692307692307693,161.29390924677347L30.73076923076923,152.10416583167003L31.115384615384613,146.53756339046487L31.26923076923077,152.0648072256828L31.423076923076923,149.70928119705397L31.5,143.66952113317654L31.538461538461537,154.37860675652576L31.65384615384615,143.80519125066218L32.53846153846154,158.06517828066475L32.57692307692308,157.49332272598556L33.03846153846154,184.16655642444485L33.30769230769231,180.8798872549713L33.34615384615385,164.03907564514688L33.80769230769231,154.2168543481544L34.11538461538462,140.10646798161258L34.26923076923077,128.2246314298786L34.34615384615385,121.52013775757365L34.53846153846154,115.01920796654552L34.73076923076923,124.04484658253118L34.807692307692314,124.3799786723675L35.23076923076923,124.42655548864983L35.46153846153846,116.81572574166181L35.5,145.96364395225078L36.03846153846154,153.69462408521758L36.07692307692307,141.51453663666283L36.15384615384615,124.14224788201318L36.42307692307693,114.03635060249587L36.65384615384615,105.12090605224469L36.80769230769231,124.99237995312275L37,122.40286481471743L37.15384615384615,124.48478025831957L37.26923076923077,112.40990237639379L37.34615384615385,98.53283125892213L37.5,99.99440712802837L37.53846153846154,88.44342110132101L37.730769230769226,89.52686713119101L37.769230769230774,91.94960583570891L38,91.05783086589834L38.88461538461539,102.69328226597764L38.96153846153847,96.55155507250939L39,93.63525712238419L39.03846153846153,93.90907061237698L39.15384615384616,88.25328493685107L39.230769230769226,83.98235669149466L39.769230769230774,83.31662914005348L39.80769230769231,100.97881997322843L39.88461538461539,87.74003851000795L39.96153846153847,77.23327644554648L40.03846153846154,86.71305148336964L40.19230769230769,96.29975977856989L40.269230769230774,88.14853371269449L40.42307692307692,82.84921781221276L40.5,119.76120179697041L40.65384615384615,112.72341182971796L40.88461538461539,96.56451130128853L40.96153846153846,88.07650436357498L41.11538461538461,81.76772528320934L41.73076923076923,99.53027648984913L41.76923076923077,89.21205048794849L41.96153846153846,80.13876526518543L42.11538461538462,73.13365611416104L42.19230769230769,84.73051117380079L42.84615384615385,76.90363334805387L42.88461538461538,71.39069553952466L43.192307692307686,81.62504087733528L43.23076923076923,95.87078831687194L43.42307692307693,87.95576448621215L43.46153846153846,81.78907269996733L43.76923076923077,86.32365612629455L44,76.59728794767672L44.03846153846154,73.28690325782536L44.23076923076923,84.65219055290049L44.30769230769231,76.84613500055688L44.57692307692307,76.80079557703058L44.65384615384615,69.23782835247616L44.92307692307692,63.8095924057825L45.23076923076923,69.10925410950304L45.26923076923077,70.15394446429771L45.57692307692308,67.3598580514792L45.88461538461539,68.33723663168755L45.96153846153846,83.8095690856785L46.57692307692308,91.63127334667581L47,84.20223638474604L47.07692307692308,83.85652437133395L47.15384615384616,75.01720982788032L47.269230769230774,69.37115891694661L47.30769230769231,64.9251450891667L47.38461538461539,61.4643270373463L47.42307692307692,58.91494873249617L47.46153846153847,62.21598118664891L47.65384615384615,60.735705339313355L47.88461538461539,64.91931957952404L48.65384615384615,63.53475880886932L49.07692307692307,59.4131134388897L49.11538461538461,52.25660122074628L49.26923076923077,50.36961486326661L49.34615384615385,64.70927062783021L49.57692307692307,63.20406076445069L50.192307692307686,75.27371667398494L50.23076923076923,71.85347196515282L50.307692307692314,96.65667786723442L50.42307692307693,84.43662236111227L50.76923076923077,82.93482047566908L51.26923076923077,87.98079896341235L51.57692307692307,77.55858316408045L51.69230769230769,82.17939577493888L52.23076923076923,85.26095133440724L52.42307692307693,90.86994595071775L52.57692307692308,87.36908008927143L52.76923076923077,94.67722170010587L53.269230769230774,94.22260442545864L53.34615384615385,84.85662938252628L53.69230769230769,69.38378860564468L53.769230769230774,59.60820929626566L53.92307692307692,50.99244549248139L54.19230769230769,44.83144022977882L55.03846153846153,34.754435130081504L55.11538461538461,45.33584939789375L55.5,42.13788480456795L55.769230769230774,40.904933379305334L56.30769230769231,39.9229795489395L56.92307692307693,38.705112862352266L57.03846153846154,40.96045091743047L57.42307692307693,42.39791353934922L57.5,34.75783108106081L57.69230769230769,42.767256929779826L57.80769230769231,54.63459941293537L57.88461538461538,47.66510976104117L58.307692307692314,38.41377607161613L58.57692307692307,30.509322439056355L58.73076923076923,57.360461882404095L58.807692307692314,42.495832650745875L59.11538461538462,34.69068583699825L59.15384615384615,26.28140902830294L59.88461538461539,23.975566816580095L60.03846153846154,36.76286991915917L60.42307692307692,43.15112846281912L60.46153846153846,42.09879518883438L60.53846153846154,49.163755053408465L60.69230769230769,51.661345547793054L61.03846153846154,42.26161312029973L61.5,45.273770592511525L61.65384615384615,48.12037341063731L61.730769230769226,47.57080852491371L61.84615384615385,50.93762560745243L61.92307692307692,67.96805527940441L62,64.83192778817553L62.38461538461539,68.68593638355391L62.42307692307692,54.98171394271351L62.53846153846154,49.03200855772972L62.57692307692307,48.59423198942212L62.692307692307686,52.400104287313866L62.807692307692314,48.36301628713762L62.88461538461539,54.15816870411741L63.07692307692307,41.65961906933495L63.34615384615385,43.006072213974804L63.53846153846155,74.48487918980659L63.57692307692307,66.74057279370804L64.03846153846155,62.26803074004146L64.42307692307692,62.66648576071171L64.5,47.24277581095783L64.53846153846155,47.7995093713401L64.8076923076923,45.74577546054288L65,50.69870297339619L65.15384615384616,42.163552575369685L65.1923076923077,47.78559948108653L65.65384615384616,42.75512667372762L65.96153846153847,38.07129411803748L66.11538461538461,79.1284214043005L66.3076923076923,59.896351713823755L66.38461538461539,49.27624623226956L66.53846153846153,51.5858819281356L67.11538461538461,41.29054913481092L67.1923076923077,34.40203837510761L67.38461538461539,40.31703959168633L67.42307692307692,43.33949531543159L67.5,45.57508062585292L67.61538461538461,37.10354745977376L67.76923076923077,45.405809866732L68,33.50031600867257L68.15384615384615,38.864357028854734L68.34615384615385,46.16103241636228L68.57692307692308,40.54827592157709L68.6923076923077,42.66172718874519L68.88461538461539,42.078652170789326L69,55.08705145734205L69.1923076923077,54.69659937228777L69.34615384615385,57.96986688551105L69.5,64.39896429023814L69.84615384615385,61.04874286411338L70.11538461538463,49.441000443362434L70.23076923076924,48.35116089535733L70.26923076923076,53.507105678344935L70.61538461538463,43.030690788383716L71,44.95765251207237L71.34615384615385,65.75783182455456L71.57692307692308,62.27365009470521L71.73076923076924,54.34314715972735L72.15384615384615,64.80468472336831L72.1923076923077,71.1590866412533L72.34615384615385,54.283118799078025L72.84615384615385,55.59469982754191L73.76923076923077,53.419897262748975L74.5,51.14179952946458L74.57692307692308,37.85852808451749L74.61538461538461,43.84617312572381L74.65384615384616,34.66997108843391L75,42.45482757902234L75.3076923076923,47.103503122198056L75.34615384615384,36.43489865548591L75.46153846153845,35.274145836018505L75.96153846153845,26.8646148249995L76.03846153846155,32.23378470724304L76.46153846153845,31.585236711424912L76.57692307692307,29.663610545760662L76.73076923076923,20.351104685179354L76.88461538461539,22.87948064564857L77.03846153846155,20.24978729192675L77.3076923076923,13.94577371211149L77.34615384615384,19.84414186948285L77.46153846153845,25.490349836275L77.57692307692307,23.47359645302044L78.03846153846155,21.814411008764495L78.26923076923077,29.4264046568964L78.38461538461539,31.914072825675536L78.42307692307693,31.20556694680564L78.8076923076923,34.853350821465455L78.92307692307693,37.488179475940804L79.34615384615384,31.729470361809465L79.46153846153845,53.792538113544374L79.57692307692307,41.222214559106256L79.76923076923077,42.331405628665074L79.88461538461539,38.39107823740138L80.23076923076923,28.526053201962164L80.65384615384616,27.281674980415755L80.84615384615384,31.933946789830337L80.92307692307692,33.94089932834841L81.84615384615384,25.585289022395614L82.15384615384616,26.775120200793456L82.23076923076923,24.092785644459376L82.34615384615384,21.966058533355383L82.57692307692308,19.527111173193834L82.61538461538461,22.0410761663067L82.88461538461539,18.343171760825697L83.1923076923077,23.919749012138315L83.34615384615385,28.51015164158729L83.5,29.853506140101818L83.65384615384615,27.688626232835375L83.76923076923076,25.14643833683911L83.84615384615385,33.52917641776381L84.07692307692308,32.74172579699179L84.42307692307692,23.85720965163643L84.73076923076924,20.888714101194644L84.8076923076923,16.11447470904007L84.92307692307692,16.00704083649814L85,14.132122887563186L85.03846153846153,16.602790097612452L85.07692307692308,15.860056289210512L85.34615384615385,15.89531275327585L85.5,13.985085663842998L85.53846153846153,9.411675579132556L85.8076923076923,20.688304634171892L86.15384615384615,15.986800236937967L86.3076923076923,24.426605136545525L86.38461538461537,16.354059158506626L86.73076923076924,14.773276720836082L87.15384615384615,18.34427400873225L87.53846153846153,22.28774878573342L87.61538461538461,28.372863515637125L87.88461538461539,28.173013702819297L87.92307692307692,26.53540824402126L88.07692307692308,27.901299352743244L88.1923076923077,29.18715583498503L88.5,27.335866026117753L89.23076923076923,26.041813123283074L89.38461538461539,21.072004105068448L89.65384615384616,15.572305728010418L89.88461538461539,17.238474770262844L89.96153846153847,18.40874128819369L90.3076923076923,15.127564880390846L90.46153846153847,12.882404376524102L90.8076923076923,13.708789475584961L91,14.380501502241572L91.03846153846155,10.022114379161199L91.07692307692308,15.417013806818264L91.6923076923077,20.03363446633267L91.88461538461539,16.315364532924878L92.15384615384616,13.318473106591863L92.3076923076923,11.383083419655934L92.42307692307693,13.497543096471876L92.65384615384616,14.213724286411765L92.6923076923077,15.345930050147105L92.84615384615384,9.787257214999617L93.03846153846155,14.520191818505694L93.26923076923077,13.047249575453943L93.30769230769232,16.593794106206044L93.73076923076923,15.217452033106174L93.88461538461539,11.198719980528864L93.92307692307693,11.438797823326135L94.07692307692307,10.979064762974064L94.15384615384616,11.518644787876891L94.38461538461539,9.526986596432002L94.5,8.817650113925412L94.65384615384616,10.988784731260814L94.6923076923077,9.68219909375224L94.76923076923077,5.572359514890469L94.8076923076923,6.718594277158059L94.88461538461539,8.680444104210968L95.3076923076923,10.090840045558643L95.38461538461539,11.78681597633585L95.6923076923077,10.648503630199734L95.73076923076923,11.845874806447908L95.84615384615384,14.045974599198704L97.1923076923077,12.008091013728462L97.57692307692308,10.073547392845915L98,9.631781324191136L98.3076923076923,11.772470689797565L98.76923076923077,18.74524766163765L98.88461538461539,19.21208015962957L99.23076923076923,19.388962624621943L99.61538461538461,18.6620954926031L99.92307692307692,19.112283405844916L100.03846153846153,18.93422037846061L100.15384615384615,14.27835094608465L100.38461538461537,11.73739372271301L100.57692307692308,13.484825404554194L100.61538461538463,14.092266666312275L100.76923076923076,13.392445453969339L100.8076923076923,5.856628098234304L101.07692307692308,8.072650485324754L101.42307692307692,7.155821662917784L101.53846153846153,7.710144670560389L102.3076923076923,7.710334668474014L102.6923076923077,8.991994165990784L103.38461538461539,9.93156951432545L103.65384615384615,9.296281763008816L103.92307692307692,10.429695270027493L104.23076923076923,16.05066405068731L104.3076923076923,15.241945259884751L104.46153846153847,13.385354271473659L104.6923076923077,13.12740259412152L104.84615384615385,12.14120767273547L105.26923076923077,13.292510228598966L105.38461538461539,11.02741898599998L105.57692307692308,14.007829798517966L106.07692307692308,15.067328232756873L107,16.13923887629244L107.73076923076923,17.18744839545265L107.92307692307693,17.406957265721772L107.96153846153845,17.173816341453698L108.34615384615384,18.849260623211958L108.46153846153845,19.32847063657456L108.65384615384616,19.962140758504827L108.96153846153845,19.650058515048986L109.07692307692307,18.480296022795137L109.34615384615384,17.994516018049225L109.73076923076923,19.02470258746233L110,22.171843623293142L110.53846153846155,21.34167976601144L111.15384615384616,18.25166855102909L111.3076923076923,17.651998743764587L111.34615384615384,20.230428321850802L111.46153846153845,21.319898295179094L111.5,19.403100972484122L112.65384615384616,18.349936591931833L112.76923076923077,18.003708285342793L112.92307692307692,17.73378789509551L112.96153846153847,20.47343454456769L113.15384615384616,16.049024758567334L113.1923076923077,18.502694494523244L113.65384615384615,21.87719924950293L113.96153846153847,21.697359827784112L114.03846153846153,21.458012641389026L114.07692307692308,21.459040577355832L114.84615384615385,21.712368621028176L115.15384615384615,21.535750317556488L115.34615384615385,22.655445147957906L115.42307692307692,23.283598363309984L115.53846153846153,21.61361180480431L115.61538461538461,19.448782726186113L115.65384615384615,20.014707757459902L116.07692307692308,21.570342676714517L116.11538461538461,21.58795579624092L116.15384615384615,17.58978509946032L116.23076923076924,17.825824456221383L116.3076923076923,19.04826115270513L116.5,18.93231636230106L116.57692307692308,16.492687837916375L116.88461538461537,15.021244447062289L117.92307692307692,16.821992938352118L117.96153846153847,17.33134075010629L118.38461538461539,16.64180201924279L118.42307692307692,23.76292125136419L118.6923076923077,22.26630303461418L118.8076923076923,21.54152951616585L118.84615384615385,21.838231843610256L118.96153846153847,21.725087208672345L119.23076923076924,19.403639240182535L119.5,19.515643882727037L120,21.00767004846542L120.3076923076923,21.794279970852187L120.34615384615385,21.41046358196666L120.61538461538461,22.219713470980857L120.73076923076923,20.76798317014824L120.76923076923077,21.140355367236708L120.8076923076923,21.116959291221498L120.92307692307692,20.243046819745324L121.65384615384616,19.97231173910713L121.96153846153847,20.204936131475197L122,19.85085665537788L122.11538461538461,20.561146869044215L122.38461538461539,20.541725255551906L122.5,18.180121936072005L122.57692307692308,22.480700813259915L122.6923076923077,20.7060382096891L122.84615384615384,20.28043284949522L123.1923076923077,20.71917444175352L123.42307692307693,15.607582669957036L123.61538461538461,15.671058107324777L123.76923076923077,15.323549435205058L123.84615384615384,14.240113988006312L124.23076923076923,14.682380452652241L124.26923076923077,14.319025730656678L124.42307692307693,13.452791225385893L124.61538461538461,15.146335243837623L124.65384615384616,19.808319371870507L124.69230769230768,18.894511742222548L124.80769230769232,19.22588511574679L125.15384615384615,20.21492069038375L125.19230769230768,19.650085965768145L125.23076923076923,21.056024667959324L125.42307692307692,20.50139455353043L125.61538461538463,20.369756035107017L125.73076923076923,20.26968588014793L125.84615384615385,18.529563298325606L125.92307692307692,19.41839016826332L126,19.007901249066155L126.11538461538463,19.931849852583934L126.38461538461537,21.62885780032144L126.84615384615385,23.3556386256521L126.92307692307692,22.27891493059551L127.42307692307692,21.09098751586209L127.46153846153845,23.348206305383442L127.88461538461537,22.907577860701995L128.26923076923077,23.145824937942375L128.4230769230769,23.56116093970429L128.65384615384616,21.269924047862645L128.9230769230769,22.258964464953653L128.96153846153845,22.783067866467192L129.15384615384616,20.83949675609675L129.30769230769232,19.3027173997527L129.34615384615384,20.018154050835935L130.0769230769231,19.684861107381263L130.1153846153846,17.72176353508555L130.46153846153845,17.86947798946121L130.53846153846155,19.15266910577109L130.6153846153846,17.389243465413294L130.9230769230769,19.418245714522218L131.23076923076923,20.368721344117482L131.3846153846154,20.15852156264577L131.5,20.09893116153861L131.57692307692307,21.5130637380044L131.6153846153846,26.581523815390497L131.73076923076923,26.147941654124494L131.96153846153845,27.796874161338458L132.1153846153846,28.92213561572054L132.15384615384616,26.246596452550733L132.69230769230768,24.405743485303276L132.80769230769232,23.645093625244726L132.92307692307693,22.51043982831518L133.19230769230768,23.280569454019943L133.30769230769232,20.367564247064337L133.3846153846154,20.275825841720856L133.6153846153846,19.407292058360728L133.8076923076923,19.264762588852317L134.03846153846155,17.7150692903329L134.1153846153846,17.115051924947444L134.3846153846154,16.833818948351343L134.5,17.02564152174578L134.6153846153846,13.616380084515042L134.73076923076923,14.469810251223842L135.03846153846155,15.824092629632032L135.3846153846154,15.398065599864305L135.76923076923077,14.586833979676731L135.96153846153845,13.77944919381891L136.46153846153848,13.780388337302734L136.53846153846152,12.16665685790543L137.1923076923077,15.51281405677605L137.3076923076923,16.875524183218975L137.5,16.774043361793197L137.84615384615384,20.15832948605197L137.8846153846154,21.000914546180802L138.1153846153846,19.09661062539765L138.34615384615384,19.495701060168837L138.6153846153846,20.09092088368963L138.65384615384616,18.890681620629163L138.6923076923077,19.626219297654714L138.76923076923075,20.286824402168275L138.92307692307693,18.933178294760108L139.07692307692307,18.987869785066177L139.23076923076925,19.376475050209006L139.26923076923075,17.961186315331943L139.3076923076923,19.33353968465143L139.5,19.982817508781814L139.57692307692307,22.937788074398387L139.96153846153848,21.39092700745104L140.23076923076925,20.73184993676775L140.6153846153846,22.053099875310227L141.3076923076923,24.598140511912L141.5,27.44605755241106L141.84615384615384,26.96292648940375L141.96153846153848,26.880242845292205L142.03846153846152,23.140449550891205L142.3076923076923,24.113958779187346L142.46153846153848,23.547954661365424L142.5,22.173778020827978L142.8076923076923,25.757327042555524L142.96153846153848,26.033485661954952L143,25.55838686779298L143.1153846153846,27.17513145859284L143.1923076923077,24.490583248477744L143.46153846153848,21.610005751603694L143.76923076923077,20.39489264957503L143.92307692307693,20.790383310182488L144,21.860523781869226L144.23076923076923,22.540907608080612L144.84615384615384,21.048784163139565L144.96153846153848,20.263988341369675L145.42307692307693,20.883712721747145L145.96153846153845,20.866160597734428L146.1153846153846,19.797081499720456L146.42307692307693,21.632624213437076L147.73076923076923,21.743804147007566L147.92307692307693,20.618520196703393L148.34615384615384,21.072045009463725L148.69230769230768,19.963663902849294L148.8846153846154,18.553508411448068L148.96153846153845,18.04803701472589L149.03846153846155,16.07625251318266L149.15384615384616,16.710500982037292L149.23076923076923,15.477599220022315L149.42307692307693,14.702002774320926L149.46153846153845,17.407421671890535L149.76923076923077,16.417508504356913L149.80769230769232,15.562742218634178L149.92307692307693,18.6779473944927L150.19230769230768,19.642556184676728L150.34615384615384,17.69475840995229L150.3846153846154,16.01371692477715L150.73076923076923,14.779123451000908L150.8846153846154,15.510017315205415L151.03846153846155,16.863089821220157L151.34615384615384,15.867529260384398L151.53846153846155,15.867803431756306L152.1153846153846,14.779961902423482L152.15384615384616,16.109528976505462L152.30769230769232,15.11801074577255L152.3846153846154,13.097655989938346L152.65384615384613,13.876717423165626L152.80769230769232,14.956053109720441L153.15384615384613,13.093016941308273L153.19230769230768,14.174781370701874L153.23076923076923,15.619340375571458L153.26923076923077,15.857417649378148L153.30769230769232,16.235982552750972L153.53846153846155,16.478546334218514L153.6153846153846,18.33155135384025L153.73076923076923,17.904872636925365L153.84615384615387,16.861772814384025L153.8846153846154,20.450353208052338L154,19.3842657226476L154.4230769230769,20.078445176730035L154.65384615384613,19.79260392822308L154.8846153846154,18.633140089641447L155.23076923076923,18.943223247649566L155.26923076923077,18.19789060970953L155.46153846153845,17.54155560746867L155.5769230769231,18.129197019051055L155.80769230769232,17.243322087949025L155.96153846153845,15.374801660267888L156.11538461538464,18.630775692317894L156.4230769230769,18.321838403339836L156.53846153846155,17.563289201330374L156.76923076923077,17.673039573401645L156.80769230769232,17.721908123232314L157.11538461538464,15.992118639246936L157.23076923076923,19.374558846094423L157.26923076923077,20.07883652115411L157.73076923076923,19.20953607395654L158.23076923076923,17.279199539160132L158.26923076923077,19.379539823525775L158.30769230769232,21.85916839374176L158.34615384615387,18.743909965645667L158.8846153846154,12.87895242980083L159.80769230769232,12.678135940650403L159.9230769230769,11.127316958755243L160,14.57910432269301L160.0769230769231,17.970320092711432L160.19230769230768,17.64171814992644L160.34615384615384,19.290819453340866L160.46153846153845,17.570152779205795L160.5,13.560409323378696L161.19230769230768,13.418344916402452L161.5769230769231,15.738970062129304L161.84615384615384,14.227176443036669L162,12.902888687359614L162.03846153846155,13.830240316652922L162.23076923076923,15.246829060921616L162.26923076923077,16.077769650458702L162.3846153846154,15.95650389698785L162.80769230769232,14.39486321583452L162.84615384615384,14.638462745453918L163.30769230769232,16.26329536336007L163.34615384615384,16.16769803410993L163.42307692307693,13.350066166502549L163.46153846153845,12.557220197610508L163.57692307692307,13.501720020653222L163.6153846153846,11.485947483806829L163.65384615384616,13.91828573419283L163.92307692307693,13.053125086029098L164,13.085054161238663L164.07692307692307,13.760610104926394L164.65384615384616,13.664184376648318L164.69230769230768,13.375682317999333L164.73076923076923,16.822300987667038L164.76923076923077,16.68439016940857L164.92307692307693,15.478751259077299L165.03846153846155,15.239134853428807L165.6153846153846,15.649575925376192L165.6923076923077,16.36769308173069L165.92307692307693,14.899166726396153L166,14.835399049585995L166.15384615384616,14.983533196809981L166.3076923076923,14.42228373512195L166.34615384615384,16.330264258613244L166.92307692307693,15.143811748242427L167.26923076923077,14.95483262846561L167.34615384615384,15.36620494335343L167.42307692307693,14.427820539087357L167.53846153846152,14.908715207655304L167.6153846153846,14.048738375595606L167.73076923076923,14.960583470707528L168.07692307692307,14.442260876213561L168.1923076923077,12.081276439116097L168.3076923076923,12.19303833194169L169.15384615384616,13.774265176735929L169.34615384615384,12.633647158198471L169.57692307692307,13.832160976794595L169.6923076923077,14.185211601898597L169.84615384615384,22.598043289284394L170.07692307692307,20.206575854386074L170.1923076923077,18.873636759810545L170.26923076923075,18.335430022655864L170.46153846153848,17.935454506501294L170.53846153846152,16.37140806490834L170.65384615384616,16.870756131256382L171.3076923076923,16.336043121084618L171.46153846153848,16.5233664010399L171.76923076923075,12.848970446614782L171.8076923076923,14.378477428911655L172.15384615384616,14.891750722813613L172.3846153846154,16.01429246294427L172.42307692307693,14.693764700528332L172.46153846153848,15.609351420353786L172.57692307692307,16.186431575649987L172.8076923076923,15.587809688255772L173,14.957554182117196L173.1153846153846,15.909060571050617L173.42307692307693,16.606286417294893L173.57692307692307,14.329394969874649L173.65384615384616,15.05555552849343L174,18.359563639738436L174.1923076923077,18.0830180891502L174.42307692307693,18.885122876818006L174.65384615384616,18.964585094776503L174.92307692307693,19.20820595312793L175.6153846153846,18.344646085827645L175.65384615384616,18.09483539604043L175.92307692307693,16.835760960933705L176.23076923076923,21.717643139983558L176.26923076923077,21.725274827494406L176.34615384615384,19.843393406429932L176.5,17.375295046877866L176.65384615384616,16.308018730823722L176.84615384615384,18.922029971009714L177.3076923076923,19.59234777639268L177.53846153846155,18.988863682605697L177.76923076923077,17.839101202552385L177.8846153846154,18.378759958527784L178.1153846153846,21.21230019656843L178.57692307692307,19.269031447061813L178.73076923076923,19.644838859429875L179,20.808148935847377L179.1153846153846,20.08347060274387L179.53846153846155,18.673759385241542L179.92307692307693,18.066449281049845L179.96153846153845,16.79038334341888L180.07692307692307,16.044144363819996L180.5,15.639514072410751L181.07692307692307,15.072288679371459L181.1153846153846,16.11868219115673L181.42307692307693,15.728748281856241L181.6153846153846,15.100121468671324L181.84615384615384,19.60755220643999L181.9230769230769,18.708161486900014L181.96153846153845,17.110967433693208L182.19230769230768,18.221991719422068L182.5769230769231,16.470123389102973L182.69230769230768,16.71121996233959L182.76923076923077,16.381621275698894L182.80769230769232,15.696809149063618L182.84615384615384,15.389232057202436L183,17.084933710396133L183.3846153846154,16.665951550298935L183.4230769230769,15.821625480440352L183.5,14.795588375583234L183.8846153846154,14.977169257095621L183.9230769230769,14.742256189766373L184.5769230769231,13.616469597589116L184.84615384615387,15.166823457643192L185,15.812160272802474L185.34615384615387,15.501445278251998L185.53846153846155,15.96214955204752L185.73076923076923,15.080705245234093L185.96153846153845,15.77743809404788L186.30769230769232,15.874873279708597L186.46153846153845,16.113738431184213L186.61538461538464,16.572583955288742L186.96153846153845,19.17222995632215L187.15384615384613,17.81163443289555L187.38461538461536,16.710805101345027L187.5769230769231,14.70584265121203L187.69230769230768,13.360031122452968L187.73076923076923,13.660765495011724L188,16.964588603183216L188.30769230769232,15.471367048282705L188.61538461538464,14.767413624777864L188.76923076923077,13.865886004309358L188.8846153846154,13.338667692795651L189,13.776364651041234L189.03846153846155,16.031965345417163L189.34615384615387,16.74389409229746L189.4230769230769,15.670298494579473L189.84615384615387,18.25636083339881L190.15384615384613,16.790731613332227L190.3846153846154,15.573347684718442L190.5769230769231,15.304188846410543L190.73076923076923,14.861579625599747L191.03846153846155,16.26536374155903L191.9230769230769,15.275917608956448L192.15384615384616,16.904806834521867L192.30769230769232,16.94722218598675L192.8846153846154,16.713508634440362L193.1153846153846,18.379873221134638L193.23076923076923,19.374517823211598L193.30769230769232,21.888646892491206L193.57692307692307,20.600661236756956L193.69230769230768,19.551463059827537L193.84615384615384,16.557745349788668L194,17.361724703112042L194.03846153846155,16.89958001553049L194.07692307692307,17.453195399058167L194.15384615384616,14.438860139371673L194.3846153846154,15.935795360715659L194.65384615384616,15.439722592734178L194.73076923076923,14.626225362892303L194.80769230769232,15.008290648669215L194.96153846153845,15.319804571238983L195.07692307692307,15.07465189336583L195.1153846153846,15.335562577973699L195.19230769230768,16.63875955032369L195.5,16.5765516620646L195.80769230769232,16.578309925676287L195.8846153846154,17.26905592183556L196.42307692307693,17.471473964772567L196.53846153846155,18.494155497305407L196.65384615384616,19.68703247820386L197.03846153846155,20.970570803939196L197.1923076923077,21.05037932407231L197.3076923076923,19.837928220458387L197.8846153846154,18.423936265660842L198.07692307692307,18.32821829024691L198.1153846153846,17.471792828042766L198.26923076923077,17.58680977346379L198.42307692307693,16.12912212074602L198.46153846153845,15.780289330207246L198.5,13.865465107974025L198.57692307692307,13.985017639042795L198.76923076923077,15.29460780472522L198.8076923076923,15.897142952944542L198.84615384615384,15.991970223675825L199.1923076923077,15.865348339174572L199.5,15.00688097731531L199.65384615384616,12.94698488771615L199.73076923076923,12.757547177928755L199.96153846153848,13.46088066492257L200.26923076923077,14.468554669250702L200.3076923076923,14.573720087369837L200.53846153846152,14.298815161468962L200.65384615384616,15.49740130596201L200.96153846153848,14.850105618858889L201.1923076923077,15.22585048322441L201.3076923076923,15.18440193110433L201.34615384615384,15.818368907460895L201.46153846153848,15.397941718351392L201.57692307692307,15.60780251619061L201.6923076923077,16.788222299426778L202.15384615384616,14.949196347724175L202.3076923076923,17.153106709046643L202.57692307692307,17.525458639979643L202.8076923076923,16.352087672625498L202.92307692307693,15.921755214159017L202.96153846153848,17.071880875480982L203,16.933249184751702L203.1153846153846,16.505610983216563L203.15384615384616,15.601114454410322L203.42307692307693,16.165089184187487L203.5,15.599720238615946L203.57692307692307,17.833606137678025L203.8076923076923,24.498994837728326L204.03846153846152,23.050046674454745L204.15384615384616,21.448320871310795L204.26923076923075,20.571818378579216L204.34615384615384,17.85569037805679L204.42307692307693,16.375735102506912L205.03846153846152,15.849280707458433L205.1153846153846,14.889482045559742L205.1923076923077,14.310988055899811L205.23076923076925,14.390620429312056L205.26923076923077,14.880071691432185L205.53846153846152,14.255771758706684L205.57692307692307,15.815978322316216L206.26923076923077,14.918801030020894L206.3846153846154,14.497747470852325L207.03846153846152,14.560770238875286L207.53846153846152,14.41493335819626L208.03846153846155,11.650196327854315L208.1153846153846,11.776014893485131L208.26923076923077,11.906630333866605L208.6923076923077,12.99644689005198L208.76923076923077,13.048031126661412L208.84615384615384,13.36367242228181L209,12.963528934622241L209.26923076923077,13.697624873203708L209.42307692307693,13.246006959544019L209.6153846153846,14.125136641476997L210.73076923076923,14.078932130582173L210.80769230769232,15.98868132443171L211.19230769230768,20.577283246224393L211.23076923076923,20.190514624440077L212.1153846153846,19.62799732029065L212.3846153846154,17.571329593321952L212.46153846153845,18.1825437527931L212.53846153846155,17.263889531693174L213.3846153846154,17.54357622114243L213.84615384615384,16.321403716629042L213.9230769230769,15.738296460275148L214,14.631515238715261L214.1153846153846,14.994237580743736L214.5,15.51313836173486L214.6153846153846,12.96590475583758L214.65384615384616,11.673974841461497L214.8846153846154,12.15751071539926L214.96153846153845,12.516751864185254L215.03846153846155,12.677657837046105L215.23076923076923,12.220715224243248L215.30769230769232,13.223824417349173L215.46153846153845,14.307589560704823L215.53846153846155,14.641575614621594L216.26923076923077,14.412192360518551L216.65384615384613,14.481028095462625L216.80769230769232,15.750942935254313L216.96153846153845,16.394809238484L217.23076923076923,16.877377984976608L217.3846153846154,16.43075771334764L217.4230769230769,17.514213667326445L217.5,16.805049014047878L217.53846153846155,17.044312913026964L218,16.713082014332823L218.34615384615387,16.58384438491756L218.76923076923077,17.13056644897652L219.15384615384613,16.73780357740893L219.19230769230768,16.922091087401444L219.26923076923077,17.266006544251304L219.46153846153845,15.122221284248104L219.53846153846155,15.753412174209542L219.73076923076923,15.950612892547985L219.96153846153845,15.601117499795008L220.23076923076923,15.233028254799807L220.3846153846154,16.135274552156975L220.73076923076923,16.893276887340996L221.30769230769232,14.985849715111497L221.34615384615387,14.69292642766879L221.5,14.59745308128335L221.65384615384613,15.74455911966447L221.76923076923077,14.8755640368535L222.23076923076923,15.545769081413141L222.5769230769231,15.631745330779411L222.76923076923077,15.646605499770443L222.84615384615384,14.614998504335516L222.9230769230769,15.167695600349871L223,19.042494370459366L223.26923076923077,16.45451496396204L223.80769230769232,15.86310474438644L223.84615384615384,15.889181248612605L223.96153846153845,15.553226430310234L224.03846153846155,15.005747432875818L224.19230769230768,14.877492368462752L224.23076923076923,12.942737136841936L224.4230769230769,13.631977437594635L224.5,14.334674774969816L224.5769230769231,14.185636723190287L224.76923076923077,15.178069235629124L225.5,13.16846287811451L225.73076923076923,14.0533126309483L225.80769230769232,13.712521050340357L225.92307692307693,14.208718730622198L226.26923076923077,20.95408694907606L226.69230769230768,20.937685122980625L226.76923076923077,18.57082207212464L227.03846153846155,18.475738121979727L227.07692307692307,18.801062833345714L227.23076923076923,17.795241346304607L227.6153846153846,15.984500075363655L227.6923076923077,15.081005494926602L227.8846153846154,13.441499077970647L228.03846153846155,17.602219714701274L228.3076923076923,17.11802227163477L228.6923076923077,17.041482920125674L228.76923076923077,16.85078981377906L228.8076923076923,16.77706002977657L228.96153846153845,14.379022460337165L229.03846153846155,13.847597017729846L229.1153846153846,14.454054446918041L229.15384615384616,13.817825600861934L229.23076923076923,13.695007750172124L229.5,13.811930643131202L229.65384615384616,14.915251541820895L230.65384615384616,12.48778078422228L230.73076923076923,14.66688967674594L230.96153846153848,13.904628775936331L231.03846153846152,13.121631485144805" style="fill: none;" fill="none"></path></g></g></g></g><g opacity="0.2"><g><g><g><path stroke="rgb(51, 187, 238)" stroke-width="2px" d="M25.884615384615383,181.00274832589287L26.076923076923077,169.6184280395508L26.346153846153847,164.49755388532367L26.384615384615383,193.2610184587751L26.615384615384613,177.08288386753628L26.653846153846153,163.31780338832309L27.076923076923077,152.51136291503906L27.153846153846153,149.35731576102123L27.46153846153846,179.52308493477958L28.076923076923077,153.32520054408482L28.653846153846153,138.8705503627232L28.692307692307693,149.8894979422433L29.19230769230769,166.12866302490235L29.23076923076923,127.28182538713729L29.69230769230769,135.634753679548L29.80769230769231,239.71949811662944L30.115384615384617,160.47361580984932L30.23076923076923,137.78098362513953L30.346153846153847,150.8298721749442L30.423076923076923,180.72898694719586L30.615384615384613,136.29370396205357L30.692307692307693,174.08265917096818L30.73076923076923,116.89906415666852L31.115384615384613,125.21239092145647L31.26923076923077,173.2392052786691L31.423076923076923,140.68546090262276L31.5,120.53170950753348L31.538461538461537,195.40421578543524L31.65384615384615,103.29931928362166L32.53846153846154,212.69400198800224L32.57692307692308,155.30259155273438L33.03846153846154,286.34950594220845L33.26923076923077,211.87496337890624L33.30769230769231,146.31616228376114L33.34615384615385,99.52331516810827L33.80769230769231,116.58873386928015L34.11538461538462,86.05073965890067L34.26923076923077,82.70629342215402L34.34615384615385,95.83577401297433L34.53846153846154,90.11468052455359L34.73076923076923,158.62132611955914L34.807692307692314,125.66384216308593L35.23076923076923,124.60498744419642L35.46153846153846,87.65926234654017L35.5,257.6269238499233L36.03846153846154,183.31137385777066L36.07692307692307,94.8536221749442L36.15384615384615,57.59043666294643L36.42307692307693,75.32148821149553L36.65384615384615,70.96657026018414L36.80769230769231,201.11836434500557L37,112.48264500209262L37.15384615384615,132.46042733328682L37.26923076923077,66.15203691755022L37.34615384615385,45.37091151646205L37.5,105.59358424595425L37.53846153846154,44.19254228864397L37.730769230769226,93.67745989118303L37.769230769230774,101.2309188406808L38,87.64151419503348L38.88461538461539,147.2677410016741L38.96153846153847,73.02310259137835L39,82.46315917968751L39.03846153846153,94.95802760532922L39.15384615384616,66.58643450055804L39.230769230769226,67.62078133719308L39.769230769230774,80.76628156389509L39.80769230769231,168.6412225341797L39.88461538461539,37.02335396902902L39.96153846153847,36.982733851841516L40.03846153846154,123.02929112025669L40.19230769230769,133.02565194266182L40.269230769230774,56.92185607910155L40.42307692307692,62.54797380719865L40.5,261.16798102242603L40.65384615384615,85.76221644810268L40.88461538461539,34.661090436662946L40.96153846153846,55.55964686802456L41.11538461538461,57.59931073869977L41.73076923076923,167.57715140206474L41.76923076923077,49.68377406529017L41.96153846153846,45.379754725864956L42.11538461538462,46.29765825544085L42.19230769230769,129.15711050851004L42.84615384615385,46.91950718470983L42.88461538461538,50.27108354840959L43.192307692307686,120.83197736467635L43.23076923076923,150.4450768171038L43.42307692307693,57.63395821707589L43.46153846153846,58.16498291015626L43.76923076923077,103.69527282714843L44,39.33637023925781L44.03846153846154,60.60509137834822L44.23076923076923,128.19167279924665L44.30769230769231,46.94177725655691L44.57692307692307,76.62710396902902L44.65384615384615,40.26472202845983L44.92307692307692,43.01446629115513L45.23076923076923,89.41182285853795L45.26923076923077,74.15606741768973L45.57692307692308,56.65594247000557L45.88461538461539,72.08149370465961L45.96153846153846,143.0828040422712L46.57692307692308,121.59558000837055L47,55.74220589773995L47.07692307692308,82.53213003976003L47.15384615384616,41.15452174595425L47.269230769230774,47.74160156250001L47.30769230769231,47.89283124651227L47.38461538461539,48.20621730259487L47.42307692307692,49.14848981584821L47.46153846153847,74.86196541922433L47.65384615384615,55.06489013671875L47.88461538461539,80.94640215192523L48.65384615384615,58.23062020438057L49.07692307692307,43.623428519112714L49.11538461538461,24.840590645926337L49.26923076923077,43.140725097656244L49.34615384615385,119.64331420898436L49.57692307692307,57.437725394112725L50.192307692307686,121.51157723563058L50.23076923076923,58.750795375279026L50.307692307692314,191.67572269984655L50.42307692307693,37.62259329659599L50.76923076923077,77.18154078892299L51.26923076923077,107.31152814592633L51.57692307692307,37.63193036760603L51.69230769230769,99.8813494001116L52.23076923076923,97.06613760811942L52.42307692307693,112.35754368373327L52.57692307692308,73.95755048479353L52.76923076923077,122.67411202566964L53.269230769230774,92.48100298200335L53.34615384615385,48.976348179408475L53.69230769230769,10.108606305803564L53.769230769230774,22.15876778738839L53.92307692307692,17.986161934988843L54.19230769230769,21.22913504464285L55.03846153846153,-3.8497438267299264L55.11538461538461,85.87237845284598L55.5,29.886745082310266L55.769230769230774,36.18159772600447L56.30769230769231,36.161195068359376L56.92307692307693,34.03956560407366L57.03846153846154,49.600465785435276L57.42307692307693,47.90471479143415L57.5,5.4893026297433085L57.69230769230769,73.45070957728794L57.80769230769231,100.0974138532366L57.88461538461538,20.965567278180803L58.307692307692314,2.9726764787946482L58.57692307692307,0.2280097307477591L58.73076923076923,160.22497192382812L58.807692307692314,-14.449341169084805L59.11538461538462,4.789809395926336L59.15384615384615,-5.933839808872758L59.88461538461539,15.142074672154013L60.03846153846154,85.74997794015067L60.42307692307692,67.62402230398995L60.46153846153846,38.06739283970425L60.53846153846154,76.22903608049666L60.69230769230769,61.2294096156529L61.03846153846154,6.252010149274563L61.5,56.81309849330357L61.65384615384615,59.025475027901784L61.730769230769226,45.46547058105469L61.84615384615385,63.83562534877233L61.92307692307692,133.21023271833147L62,52.81768092564173L62.38461538461539,83.45032679966518L62.42307692307692,2.4819632393973228L62.53846153846154,26.23917585100447L62.57692307692307,46.91714590890068L62.692307692307686,66.98008850097656L62.807692307692314,32.89726370675224L62.88461538461539,76.35892168317521L63.07692307692307,-6.221298130580362L63.34615384615385,48.164223632812494L63.53846153846155,195.0776034981864L63.57692307692307,37.072770996093745L64.03846153846155,45.13408944266184L64.42307692307692,64.19293422154018L64.5,-11.844190325055786L64.53846153846155,49.93230991908482L64.8076923076923,37.878089512416295L65,69.67296151297433L65.15384615384616,9.466092354910717L65.1923076923077,69.32319946289063L65.65384615384616,23.483798479352682L65.96153846153847,20.12791625976562L66.11538461538461,236.41490419660298L66.3076923076923,-13.780127825055795L66.38461538461539,8.591494315011158L66.53846153846153,60.43390659877232L67.11538461538461,1.8499747140066976L67.1923076923077,8.012719377790184L67.38461538461539,62.976923479352685L67.42307692307692,54.9182749720982L67.5,54.13942435128347L67.61538461538461,4.649799630301346L67.76923076923077,77.21109531947543L68,-12.108653215680821L68.15384615384615,59.41355765206473L68.34615384615385,74.11399658203126L68.57692307692308,19.04626674107143L68.6923076923077,50.758185424804694L68.88461538461539,39.8449396623884L69,104.92116080147879L69.1923076923077,53.20080950055804L69.34615384615385,70.50948590959821L69.5,89.02830845424107L69.84615384615385,48.21431971958706L70.11538461538463,4.972692522321437L70.23076923076924,44.1760750906808L70.26923076923076,73.25910670689173L70.61538461538463,2.8964057268415093L71,52.339684622628354L71.34615384615385,145.44161054338727L71.57692307692308,48.9260360281808L71.73076923076924,23.96204171316964L72.15384615384615,104.88197596958705L72.1923076923077,95.5022785295759L72.34615384615385,-10.367328055245544L72.84615384615385,60.619259033203114L73.76923076923077,45.08840724400112L74.5,42.41459420340401L74.57692307692308,-13.02859392438617L74.61538461538461,66.78434953962054L74.65384615384616,-0.48330531529017273L75,72.27797345842635L75.3076923076923,64.91219735281808L75.34615384615384,-4.435648890904004L75.46153846153845,30.827397112165183L75.96153846153845,-5.351607840401766L76.03846153846155,52.80263357979911L76.46153846153845,29.100702601841512L76.57692307692307,22.302018519810265L76.73076923076923,-15.324340471540195L76.88461538461539,32.56548130580357L77.03846153846155,10.17564801897322L77.3076923076923,-10.204384591238844L77.34615384615384,42.4403058733259L77.46153846153845,47.12050885881696L77.57692307692307,15.747579868861603L78.03846153846155,15.458207833426341L78.26923076923077,58.58732718331474L78.38461538461539,41.444125279017854L78.42307692307693,28.491339111328116L78.8076923076923,48.82771126883371L78.92307692307693,47.58199166434152L79.34615384615384,9.66832868303571L79.46153846153845,138.31433872767857L79.57692307692307,-6.933662632533472L79.76923076923077,46.580625523158474L79.88461538461539,23.296007603236617L80.23076923076923,-9.266047537667394L80.65384615384616,22.51456420898437L80.84615384615384,49.75641802106585L80.92307692307692,41.629369681222094L81.84615384615384,-6.424367850167423L82.15384615384616,31.333265729631705L82.23076923076923,13.81698224748884L82.34615384615384,13.818741629464288L82.57692307692308,10.183704136439724L82.61538461538461,31.671869594029012L82.88461538461539,4.176803676060263L83.1923076923077,45.283158482142866L83.34615384615385,46.09560712541854L83.5,34.9997869001116L83.65384615384615,19.395149100167416L83.76923076923076,15.407525285993309L83.84615384615385,65.64275756835937L84.07692307692308,29.725067138671875L84.42307692307692,-10.178642054966527L84.73076923076924,9.51665143694197L84.8076923076923,-2.1752443150111764L84.92307692307692,15.595470493861605L85,6.949466203962057L85.03846153846153,26.06771327427456L85.07692307692308,13.014704066685264L85.34615384615385,16.03037737165178L85.5,6.667162562779018L85.53846153846153,-8.108682861328145L85.8076923076923,63.88814444405693L86.15384615384615,-2.0242769949776664L86.3076923076923,56.75880458286831L86.38461538461537,-14.571201520647332L86.73076923076924,8.717429024832581L87.15384615384615,32.02447134835379L87.53846153846153,37.39487679617745L87.61538461538461,51.684438302176346L87.88461538461539,27.40740548270089L87.92307692307692,20.261876220703133L88.07692307692308,33.13391601562501L88.1923076923077,34.11316641671317L88.5,20.24372680664063L89.23076923076923,21.084402727399553L89.38461538461539,2.0330739048549082L89.65384615384616,-5.496587088448662L89.88461538461539,23.621431535993306L89.96153846153847,22.89193620954242L90.3076923076923,2.5576475306919724L90.46153846153847,4.281378871372767L90.8076923076923,16.87460292271205L91,16.953775111607147L91.03846153846155,-6.674508754185272L91.07692307692308,36.0844304547991L91.6923076923077,37.71952907017299L91.88461538461539,2.0709777832031326L92.15384615384616,1.8376281738281288L92.3076923076923,3.968764474051336L92.42307692307693,21.597864467075887L92.65384615384616,16.957355608258922L92.6923076923077,19.68331734793527L92.84615384615384,-11.507561907087037L93.03846153846155,32.65167558942523L93.26923076923077,7.404528808593746L93.30769230769232,30.180314941406245L93.73076923076923,9.944798583984385L93.88461538461539,-4.196712472098196L93.92307692307693,12.35851632254464L94.07692307692307,9.217865164620527L94.15384615384616,13.585731549944194L94.38461538461539,1.897107631138384L94.5,6.100240304129473L94.65384615384616,19.30622314453125L94.6923076923077,4.676776820591521L94.76923076923077,-10.172098388671895L94.8076923076923,11.109725516183037L94.88461538461539,16.19612967354911L95.3076923076923,15.493951067243309L95.38461538461539,18.283960484095985L95.6923076923077,6.28772251674108L95.73076923076923,16.432905447823657L95.84615384615384,22.474376220703128L97.1923076923077,4.201126360212061L97.57692307692308,2.6624696568080353L98,7.939411795479901L98.3076923076923,19.973275844029022L98.76923076923077,45.457383597237715L98.88461538461539,21.00047712053572L99.23076923076923,20.066584821428567L99.61538461538461,15.877527204241064L99.92307692307692,20.836916329520083L100.03846153846153,18.252075544084825L100.15384615384615,-3.557902483258946L100.38461538461537,2.0031952776227757L100.57692307692308,20.17909266880581L100.61538461538463,16.41932425362723L100.76923076923076,10.711487862723205L100.8076923076923,-23.012469308035698L101.07692307692308,16.56205025809152L101.42307692307692,3.6435257393973273L101.53846153846153,9.833710588727678L102.3076923076923,7.711062534877232L102.6923076923077,13.901926443917402L103.38461538461539,13.531005510602675L103.65384615384615,6.862546561104917L103.92307692307692,14.771709333147326L104.23076923076923,37.58413382393974L104.3076923076923,12.14380998883928L104.46153846153847,6.272906668526794L104.6923076923077,12.139210902622773L104.84615384615385,8.363175920758918L105.26923076923077,17.703055768694202L105.38461538461539,2.3500404575892846L105.57692307692308,25.425538853236606L106.07692307692308,19.126179722377227L107,20.24564052036831L107.73076923076923,21.203052978515622L107.92307692307693,18.24787772042411L107.96153846153845,16.28067260742188L108.34615384615384,25.26775006975447L108.46153846153845,21.16428484235492L108.65384615384616,22.389678955078125L108.96153846153845,18.4544970703125L109.07692307692307,13.999031982421872L109.34615384615384,16.133532714843746L109.73076923076923,22.97126273018973L110,34.22828247070313L110.53846153846155,18.161390206473207L111.15384615384616,6.414089355468743L111.3076923076923,15.354712960379468L111.34615384615384,30.10818028041294L111.46153846153845,25.49356828962054L111.5,12.060007847377227L112.65384615384616,14.31535034179688L112.76923076923077,16.677336077008924L112.92307692307692,16.69974504743304L112.96153846153847,30.968795863560263L113.15384615384616,-0.9005257742745367L113.1923076923077,27.902501743861613L113.65384615384615,34.804649832589284L113.96153846153847,21.008409772600444L114.03846153846153,20.541093226841515L114.07692307692308,21.462978515624993L114.84615384615385,22.682847551618295L115.15384615384615,20.859140101841522L115.34615384615385,26.944904087611597L115.42307692307692,25.6900017438616L115.53846153846153,15.216030447823666L115.61538461538461,11.155500313895084L115.65384615384615,22.182720075334828L116.07692307692308,27.529852294921866L116.11538461538461,21.655430210658484L116.15384615384615,2.2731215122767763L116.23076923076924,18.730071847098223L116.3076923076923,23.731315743582584L116.5,18.488141392299106L116.57692307692308,7.146671316964285L116.88461538461537,9.384265659877224L117.92307692307692,23.720512520926334L117.96153846153847,19.282610386439742L118.38461538461539,14.000235770089281L118.42307692307692,51.04334420340402L118.6923076923077,16.532881556919637L118.8076923076923,18.76498168945312L118.84615384615385,22.974874093191975L118.96153846153847,21.29163940429688L119.23076923076924,10.51036272321429L119.5,19.944724469866077L120,26.723499755859372L120.3076923076923,24.807717982700897L120.34615384615385,19.9400945172991L120.61538461538461,25.319883335658474L120.73076923076923,15.206523611886155L120.76923076923077,22.56688267299107L120.8076923076923,21.027330845424117L120.92307692307692,16.89515991210937L121.65384615384616,18.935147879464292L121.96153846153847,21.09610107421875L122,18.49440726143973L122.11538461538461,23.28221034458706L122.38461538461539,20.467322649274543L122.5,9.133013567243296L122.57692307692308,38.95586530412946L122.6923076923077,13.907451520647326L122.84615384615384,18.64997366768973L123.1923076923077,22.399957449776785L123.42307692307693,-3.9745056152343907L123.61538461538461,15.91422729492188L123.76923076923077,13.992272251674109L123.84615384615384,10.08956176757813L124.23076923076923,16.37666695731027L124.26923076923077,12.927043631417405L124.42307692307693,10.134317975725448L124.61538461538461,21.634163295200896L124.65384615384616,37.667997698102674L124.69230769230768,15.393789760044651L124.80769230769232,20.49534929547992L125.15384615384615,24.003834751674102L125.19230769230768,17.486250523158485L125.23076923076923,26.442060372488832L125.42307692307692,18.37665213448661L125.61538461538463,19.865459681919653L125.73076923076923,19.886325334821432L125.84615384615385,11.863296595982138L125.92307692307692,22.823412911551344L126,17.43535191127232L126.11538461538463,23.471421072823663L126.38461538461537,28.12995588030133L126.84615384615385,29.9707941545759L126.92307692307692,18.154074881417404L127.42307692307692,16.54013514927456L127.46153846153845,31.995426112583708L127.88461538461537,21.21956647600446L128.26923076923077,24.05852992466517L128.4230769230769,25.152279052734368L128.65384615384616,12.492383684430806L128.9230769230769,26.04789707728794L128.96153846153845,24.79086495535715L129.15384615384616,13.393835449218741L129.30769230769232,13.415441894531241L129.34615384615384,22.758933105468753L130.0769230769231,18.40804321289063L130.1153846153846,10.201297956194187L130.46153846153845,18.435359933035716L130.53846153846155,24.06846888950892L130.6153846153846,10.633704659598218L130.9230769230769,27.19118669782366L131.23076923076923,24.009915422712044L131.3846153846154,19.353263462611604L131.5,19.870645228794647L131.57692307692307,26.930489501953122L131.6153846153846,45.99837812151229L131.73076923076923,24.486924002511163L131.96153846153845,34.113799176897324L132.1153846153846,33.23291983468192L132.15384615384616,15.996825648716522L132.69230769230768,17.35358694893973L132.80769230769232,20.73110648018974L132.92307692307693,18.163674316406247L133.19230769230768,26.23087280273437L133.30769230769232,9.208080531529026L133.3846153846154,19.924383544921866L133.6153846153846,16.080010463169636L133.8076923076923,18.718743896484384L134.03846153846155,11.778321533203128L134.1153846153846,14.816434674944196L134.3846153846154,15.756438511439725L134.5,17.760498046875L134.6153846153846,0.5557795061383857L134.73076923076923,17.73923113141741L135.03846153846155,21.0122372000558L135.3846153846154,13.765991036551348L135.76923076923077,11.479072265624994L135.96153846153845,10.686424386160708L136.46153846153848,13.7839861188616L136.53846153846152,5.984584089006691L137.1923076923077,28.331667480468756L137.3076923076923,22.095954764229916L137.5,16.385278669084812L137.84615384615384,33.123251691545754L137.8846153846154,24.228788713727674L138.1153846153846,11.801378696986616L138.34615384615384,21.02458374023437L138.6153846153846,22.371159144810264L138.65384615384616,14.29266357421875L138.6923076923077,22.444003731863834L138.76923076923075,22.817548304966508L138.92307692307693,13.747471226283485L139.07692307692307,19.19738839285715L139.23076923076925,20.865189906529015L139.26923076923075,12.539331403459814L139.3076923076923,24.590912737165176L139.5,22.47014753069196L139.57692307692307,34.25803763253348L139.96153846153848,15.465029296875004L140.23076923076925,18.206979806082597L140.6153846153846,27.114699881417412L141.3076923076923,34.34798217773437L141.5,38.35619384765626L141.84615384615384,25.112091064453125L141.96153846153848,26.56348859514508L142.03846153846152,8.813608572823652L142.3076923076923,27.843392682756697L142.46153846153848,21.37963936941965L142.5,16.909420166015618L142.8076923076923,39.48560904366629L142.96153846153848,27.09142665318081L143,23.73832240513393L143.1153846153846,33.368747209821436L143.1923076923077,14.20629952566965L143.46153846153848,10.574749930245531L143.76923076923077,15.73989414760044L143.92307692307693,22.305475551060262L144,25.96014404296875L144.23076923076923,25.147402169363833L144.84615384615384,15.332581787109378L144.96153846153848,17.257500000000004L145.42307692307693,23.25782592773438L145.96153846153845,20.798919852120527L146.1153846153846,15.701527273995525L146.42307692307693,28.664437604631697L147.73076923076923,22.16972534179687L147.92307692307693,16.307649797712056L148.34615384615384,22.809461321149556L148.69230769230768,15.71754690987724L148.8846153846154,13.151318533761156L148.96153846153845,16.111617606026787L149.03846153846155,8.522508021763391L149.15384615384616,19.14025477818081L149.23076923076923,10.754453822544646L149.42307692307693,11.73075648716518L149.46153846153845,27.771659284319202L149.76923076923077,12.625232456752224L149.80769230769232,12.288202776227685L149.92307692307693,30.612042585100454L150.19230769230768,23.337893240792408L150.34615384615384,10.232905099051338L150.3846153846154,9.573785051618309L150.73076923076923,10.049497244698667L150.8846153846154,18.310011683872762L151.03846153846155,22.046599469866074L151.34615384615384,12.053618512834822L151.53846153846155,15.86885375976562L152.1153846153846,10.612530343191956L152.15384615384616,21.202991245814722L152.30769230769232,11.319585832868311L152.3846153846154,5.3578428431919605L152.65384615384613,16.86123779296875L152.80769230769232,19.09089948381697L153.15384615384613,5.955878383091517L153.19230769230768,18.318932059151784L153.23076923076923,21.153327287946418L153.26923076923077,16.769472133091526L153.30769230769232,17.68623360770089L153.53846153846155,17.407788260323656L153.6153846153846,25.43026140485491L153.73076923076923,16.27030151367187L153.84615384615387,12.865743059430802L153.8846153846154,34.19790998186384L154,15.300172119140628L154.4230769230769,22.737789655412943L154.65384615384613,18.697569580078124L154.8846153846154,14.191329345703133L155.23076923076923,20.131126360212054L155.26923076923077,15.342582484654008L155.46153846153845,15.02719011579242L155.5769230769231,20.380403006417406L155.80769230769232,13.84960797991072L155.96153846153845,8.216653355189724L156.11538461538464,31.104144810267847L156.4230769230769,17.138325020926345L156.53846153846155,14.657349504743303L156.76923076923077,18.093484235491072L156.80769230769232,17.90911952427455L157.11538461538464,9.3654371861049L157.23076923076923,32.33240949358258L157.26923076923077,22.776866455078128L157.73076923076923,15.879317452566962L158.23076923076923,9.884238804408481L158.26923076923077,27.42577096121652L158.30769230769232,31.358421805245534L158.34615384615387,6.809610770089277L158.8846153846154,-9.589218226841513L159.80769230769232,11.908824462890626L159.9230769230769,5.186256801060269L160,27.802618233816965L160.0769230769231,30.96178920200892L160.19230769230768,16.382871093749994L160.34615384615384,25.608391113281254L160.46153846153845,10.978420061383938L160.5,-1.800588553292423L161.19230769230768,12.874107840401782L161.5769230769231,24.629094412667413L161.84615384615384,8.435619245256701L162,7.829651053292403L162.03846153846155,17.38284824916294L162.23076923076923,20.673664202008922L162.26923076923077,19.26103480747767L162.3846153846154,15.49194475446428L162.80769230769232,8.412346017020083L162.84615384615384,15.571672537667416L163.30769230769232,22.487895682198655L163.34615384615384,15.801472516741073L163.42307692307693,2.555949881417404L163.46153846153845,9.519892403738838L163.57692307692307,17.12002127511161L163.6153846153846,3.7636884416852663L163.65384615384616,23.23637381417411L163.92307692307693,9.738765694754465L164,13.207371826171885L164.07692307692307,16.348609444754466L164.65384615384616,13.294785330636163L164.69230769230768,12.270454624720992L164.73076923076923,30.026014055524556L164.76923076923077,16.156065150669644L164.92307692307693,10.860047607421878L165.03846153846155,14.321184082031245L165.6153846153846,17.22194196428572L165.6923076923077,19.118740931919643L165.92307692307693,9.273362862723216L166,14.591110316685263L166.15384615384616,15.551022949218746L166.3076923076923,12.272183140345991L166.34615384615384,23.63958095005581L166.92307692307693,10.59860961914062L167.26923076923077,14.230869140625007L167.34615384615384,16.94213849748885L167.42307692307693,10.832946951729902L167.53846153846152,16.750983189174114L167.6153846153846,10.754237758091515L167.73076923076923,18.453787144252228L168.07692307692307,12.45660958426339L168.1923076923077,3.0365389578682995L168.3076923076923,12.621188964843757L169.15384615384616,19.831815359933042L169.34615384615384,8.26403320312499L169.57692307692307,18.423568987165186L169.6923076923077,15.537719552176348L169.84615384615384,54.82691057477679L170.07692307692307,11.045060511997766L170.1923076923077,13.767256556919637L170.26923076923075,16.273604213169637L170.46153846153848,16.403181152343755L170.53846153846152,10.379674595424111L170.65384615384616,18.78371756417411L171.3076923076923,14.287601492745535L171.46153846153848,17.240986502511152L171.76923076923075,-1.2273386928013537L171.8076923076923,20.237893066406247L172.15384615384616,16.858058558872766L172.3846153846154,20.314657679966526L172.42307692307693,9.63493129185268L172.46153846153848,19.116888950892864L172.57692307692307,18.39717825753348L172.8076923076923,13.294538399832584L173,12.54309709821429L173.1153846153846,19.55420340401786L173.42307692307693,19.277301374162946L173.57692307692307,5.60681082589285L173.65384615384616,17.83741699218751L174,31.0169473702567L174.1923076923077,17.023594796316964L174.42307692307693,21.957920445033484L174.65384615384616,19.268998325892863L174.92307692307693,20.141497453962046L175.6153846153846,15.036419154575901L175.65384615384616,17.137831159319205L175.92307692307693,12.012350202287951L176.23076923076923,40.419732840401785L176.26923076923077,21.754511195591512L176.34615384615384,12.634060232979916L176.5,7.920212925502239L176.65384615384616,12.21937081473215L176.84615384615384,28.936092354910716L177.3076923076923,22.160280238560276L177.53846153846155,16.676965680803562L177.76923076923077,13.434455566406244L177.8846153846154,20.446148332868304L178.1153846153846,32.067360142299115L178.57692307692307,11.824528459821435L178.73076923076923,21.084526192801334L179,25.264694301060263L179.1153846153846,17.30728742327009L179.53846153846155,13.273271484374995L179.92307692307693,15.73989414760044L179.96153846153845,11.901879534040184L180.07692307692307,13.185364118303575L180.5,14.089408656529008L181.07692307692307,12.899294782366079L181.1153846153846,20.127329799107148L181.42307692307693,14.234943498883924L181.6153846153846,12.691903773716522L181.84615384615384,36.87514918736049L181.9230769230769,15.262669503348212L181.96153846153845,10.992248186383925L182.19230769230768,22.478234514508934L182.5769230769231,9.758859688895097L182.69230769230768,17.634841134207587L182.76923076923077,15.118955775669646L182.80769230769232,13.073350132533488L182.84615384615384,14.210929478236606L183,23.581027483258932L183.3846153846154,15.06086530412946L183.4230769230769,12.587081647600439L183.5,10.864924490792413L183.8846153846154,15.672790701729902L183.9230769230769,13.842323521205367L184.5769230769231,9.303673618861609L184.84615384615387,21.106101771763385L185,18.284392613002225L185.34615384615387,14.311121651785713L185.53846153846155,17.72706978934152L185.73076923076923,11.703964494977686L185.96153846153845,18.446564418247775L186.30769230769232,16.24813947405133L186.46153846153845,17.028811209542408L186.61538461538464,18.3303834751674L186.96153846153845,29.131260288783484L187.15384615384613,12.599304722377228L187.38461538461536,12.493618338448666L187.5769230769231,7.024996163504458L187.69230769230768,8.204337681361606L187.73076923076923,14.812854178292419L188,29.621263602120543L188.30769230769232,9.750957903180804L188.61538461538464,12.070625871930798L188.76923076923077,10.412207728794641L188.8846153846154,11.318937639508922L189,15.453145751953127L189.03846153846155,24.67298636300223L189.34615384615387,19.471234654017856L189.4230769230769,11.557441929408492L189.84615384615387,28.16335327148438L190.15384615384613,11.176026436941955L190.3846153846154,10.909649832589281L190.5769230769231,14.273063441685258L190.73076923076923,13.165980050223213L191.03846153846155,21.643145403180796L191.9230769230769,11.485430733816969L192.15384615384616,23.144947684151777L192.30769230769232,17.1097119140625L192.8846153846154,15.818171212332588L193.1153846153846,24.7635791015625L193.23076923076923,23.184919607979907L193.30769230769232,31.520068882533472L193.57692307692307,15.666493966238848L193.69230769230768,15.532071010044643L193.84615384615384,5.089058663504469L194,20.44170357840401L194.03846153846155,15.129141671316956L194.07692307692307,19.574050467354912L194.15384615384616,2.891189313616064L194.3846153846154,21.67043125697545L194.65384615384616,13.539308558872778L194.73076923076923,11.509784284319196L194.80769230769232,16.471951381138393L194.96153846153845,16.513188825334815L195.07692307692307,14.135492117745535L195.1153846153846,16.335089983258918L195.19230769230768,21.63120012555804L195.5,16.338238351004456L195.80769230769232,16.58504568917411L195.8846153846154,19.915247105189735L196.42307692307693,18.24692086356026L196.53846153846155,22.411964460100446L196.65384615384616,24.25684622628348L197.03846153846155,25.887700718470988L197.1923076923077,21.35611921037947L197.3076923076923,15.193127615792406L197.8846153846154,13.00704921177455L198.07692307692307,17.961530587332582L198.1153846153846,14.190897216796873L198.26923076923077,18.02743024553571L198.42307692307693,10.544840436662948L198.46153846153845,14.4439395577567L198.5,6.529930768694205L198.57692307692307,14.443013567243302L198.76923076923077,20.31154017857142L198.8076923076923,18.205405622209827L198.84615384615384,16.35524571010045L199.1923076923077,15.380270298549103L199.5,11.718163016183032L199.65384615384616,5.05569213867187L199.73076923076923,12.031826869419643L199.96153846153848,16.155293491908477L200.26923076923077,18.328871023995532L200.3076923076923,14.976600167410718L200.53846153846152,13.2456769670759L200.65384615384616,20.089086390904015L200.96153846153848,12.37036900111607L201.1923076923077,16.665298200334814L201.3076923076923,15.025615931919651L201.34615384615384,18.24704432896206L201.46153846153848,13.787319684709818L201.57692307692307,16.411761997767847L201.6923076923077,21.310313546316973L202.15384615384616,7.904038957868294L202.3076923076923,25.596106305803566L202.57692307692307,18.95190830775669L202.8076923076923,11.856999860491065L202.92307692307693,14.273186907087059L202.96153846153848,21.47791782924108L203,16.402162562779026L203.1153846153846,14.867364153180809L203.15384615384616,12.136062534877237L203.42307692307693,18.325630057198666L203.5,13.433838239397325L203.57692307692307,26.3914395577567L203.8076923076923,50.033551548549106L204.03846153846152,17.499245256696423L204.15384615384616,15.312240862165186L204.26923076923075,17.214009312220977L204.34615384615384,7.450427071707593L204.42307692307693,10.70614798409598L205.03846153846152,13.832477155412946L205.1153846153846,11.21257219587054L205.1923076923077,12.094825090680795L205.23076923076925,14.695685511997766L205.26923076923077,16.75511928013393L205.53846153846152,11.864129987444189L205.57692307692307,21.793001534598208L206.26923076923077,11.481788504464292L206.3846153846154,12.884725864955353L207.03846153846152,14.802205287388398L207.53846153846152,13.856244245256704L208.03846153846155,1.0587158203125L208.1153846153846,12.258015485491073L208.26923076923077,12.407007359095985L208.6923076923077,17.171444614955366L208.76923076923077,13.245646100725448L208.84615384615384,14.57286830357143L209,11.430612095424099L209.26923076923077,16.50988612583705L209.42307692307693,11.51589582170759L209.6153846153846,17.49301025390625L210.73076923076923,13.901926443917402L210.80769230769232,23.304773646763387L211.19230769230768,38.15584036690849L211.23076923076923,18.708835797991064L212.1153846153846,17.473039725167418L212.3846153846154,9.692404436383928L212.46153846153845,20.52405500139509L212.53846153846155,13.744600655691958L213.3846153846154,18.61503295898438L213.84615384615384,11.639361223493296L213.9230769230769,13.50446044921876L214,10.39152727399554L214.1153846153846,16.383797084263396L214.5,17.50100463867187L214.6153846153846,3.207662004743301L214.65384615384616,6.724697440011165L214.8846153846154,14.009896937779022L214.96153846153845,13.89297520228795L215.03846153846155,13.294075404575894L215.23076923076923,10.470205601283478L215.30769230769232,17.066653355189732L215.46153846153845,18.459404820033484L215.53846153846155,15.921048758370542L216.26923076923077,13.533443952287943L216.65384615384613,14.744732142857151L216.80769230769232,20.615882393973216L216.96153846153845,18.86140816824777L217.23076923076923,18.726059221540186L217.3846153846154,14.719792131696435L217.4230769230769,21.664844447544645L217.5,14.088297467912948L217.53846153846155,17.960913260323665L218,15.444163643973225L218.34615384615387,16.088745640345977L218.76923076923077,19.225013776506696L219.15384615384613,15.23316127232142L219.19230769230768,17.628081403459824L219.26923076923077,18.583518415178577L219.46153846153845,6.909556012834824L219.53846153846155,18.171452636718758L219.73076923076923,16.706072649274546L219.96153846153845,14.262229352678577L220.23076923076923,13.822908586774554L220.3846153846154,19.591706019810275L220.73076923076923,19.797121582031256L221.30769230769232,7.678652866908482L221.34615384615387,13.570761369977678L221.5,14.231702532087056L221.65384615384613,20.13902814592635L221.76923076923077,11.546515241350441L222.23076923076923,18.113269566127222L222.5769230769231,15.961113281250006L222.76923076923077,15.703533586774554L222.84615384615384,10.662996826171879L222.9230769230769,17.28503278459822L223,33.88653023856026L223.26923076923077,6.540178397042416L223.80769230769232,13.597460763113844L223.84615384615384,15.989078194754459L223.96153846153845,14.266211111886165L224.03846153846155,12.908400355747762L224.19230769230768,14.386157749720974L224.23076923076923,5.530848737444191L224.4230769230769,16.272400425502227L224.5,17.02665056501117L224.5769230769231,13.614684186662947L224.76923076923077,18.97999668666294L225.5,5.469825962611616L225.73076923076923,17.443099365234385L225.80769230769232,12.406976492745535L225.92307692307693,16.10961129324776L226.26923076923077,46.79503862653459L226.69230769230768,20.874851074218757L226.76923076923077,9.503564104352684L227.03846153846155,18.111479317801344L227.07692307692307,20.047355085100452L227.23076923076923,13.942021833147315L227.6153846153846,9.047698974609375L227.6923076923077,11.619791957310275L227.8846153846154,7.160684640066972L228.03846153846155,33.541598772321436L228.3076923076923,15.263101632254472L228.6923076923077,16.748266950334816L228.76923076923077,16.12026018415178L228.8076923076923,16.494607282366072L228.96153846153845,5.192337472098214L229.03846153846155,11.811749790736606L229.1153846153846,16.77734305245535L229.15384615384616,11.380485142299106L229.23076923076923,13.224502650669638L229.5,14.25985264369419L229.65384615384616,19.14198329380581L230.65384615384616,3.1883396693638386L230.73076923076923,23.014876883370537L230.96153846153848,10.984469866071432L231.03846153846152,10.12203316824776" style="fill: none;" fill="none"></path></g></g></g></g></g></g><g transform="translate(80, 177)" clip-path="url(#clip_1)"><clipPath id="clip_1"><rect width="250" height="23"></rect></clipPath><g><g><line x1="0" y1="0" x2="0" y2="5" style="visibility: inherit;" fill="rgb(0, 0, 0)" stroke="rgb(204, 204, 204)" stroke-width="1px"></line><line x1="19.230769230769234" y1="0" x2="19.230769230769234" y2="5" style="visibility: inherit;" fill="rgb(0, 0, 0)" stroke="rgb(204, 204, 204)" stroke-width="1px"></line><line x1="38.46153846153847" y1="0" x2="38.46153846153847" y2="5" style="visibility: inherit;" fill="rgb(0, 0, 0)" stroke="rgb(204, 204, 204)" stroke-width="1px"></line><line x1="57.69230769230769" y1="0" x2="57.69230769230769" y2="5" style="visibility: inherit;" fill="rgb(0, 0, 0)" stroke="rgb(204, 204, 204)" stroke-width="1px"></line><line x1="76.92307692307693" y1="0" x2="76.92307692307693" y2="5" style="visibility: inherit;" fill="rgb(0, 0, 0)" stroke="rgb(204, 204, 204)" stroke-width="1px"></line><line x1="96.15384615384616" y1="0" x2="96.15384615384616" y2="5" style="visibility: inherit;" fill="rgb(0, 0, 0)" stroke="rgb(204, 204, 204)" stroke-width="1px"></line><line x1="115.38461538461539" y1="0" x2="115.38461538461539" y2="5" style="visibility: inherit;" fill="rgb(0, 0, 0)" stroke="rgb(204, 204, 204)" stroke-width="1px"></line><line x1="134.6153846153846" y1="0" x2="134.6153846153846" y2="5" style="visibility: inherit;" fill="rgb(0, 0, 0)" stroke="rgb(204, 204, 204)" stroke-width="1px"></line><line x1="153.84615384615387" y1="0" x2="153.84615384615387" y2="5" style="visibility: inherit;" fill="rgb(0, 0, 0)" stroke="rgb(204, 204, 204)" stroke-width="1px"></line><line x1="173.07692307692307" y1="0" x2="173.07692307692307" y2="5" style="visibility: inherit;" fill="rgb(0, 0, 0)" stroke="rgb(204, 204, 204)" stroke-width="1px"></line><line x1="192.30769230769232" y1="0" x2="192.30769230769232" y2="5" style="visibility: inherit;" fill="rgb(0, 0, 0)" stroke="rgb(204, 204, 204)" stroke-width="1px"></line><line x1="211.53846153846155" y1="0" x2="211.53846153846155" y2="5" style="visibility: inherit;" fill="rgb(0, 0, 0)" stroke="rgb(204, 204, 204)" stroke-width="1px"></line><line x1="230.76923076923077" y1="0" x2="230.76923076923077" y2="5" style="visibility: inherit;" fill="rgb(0, 0, 0)" stroke="rgb(204, 204, 204)" stroke-width="1px"></line><line x1="250" y1="0" x2="250" y2="5" style="visibility: inherit;" fill="rgb(0, 0, 0)" stroke="rgb(204, 204, 204)" stroke-width="1px"></line></g><g transform="translate(0, 8)"><text x="0" y="0" dx="0em" dy="0.95em" style="text-anchor: middle; visibility: hidden; font-family: Roboto, sans-serif; font-size: 12px; font-weight: 200;" fill="rgb(33, 33, 33)" stroke="none" stroke-width="1px">-500</text><text x="19.230769230769234" y="0" dx="0em" dy="0.95em" style="text-anchor: middle; visibility: inherit; font-family: Roboto, sans-serif; font-size: 12px; font-weight: 200;" fill="rgb(33, 33, 33)" stroke="none" stroke-width="1px">0</text><text x="38.46153846153847" y="0" dx="0em" dy="0.95em" style="text-anchor: middle; visibility: hidden; font-family: Roboto, sans-serif; font-size: 12px; font-weight: 200;" fill="rgb(33, 33, 33)" stroke="none" stroke-width="1px">500</text><text x="57.69230769230769" y="0" dx="0em" dy="0.95em" style="text-anchor: middle; visibility: inherit; font-family: Roboto, sans-serif; font-size: 12px; font-weight: 200;" fill="rgb(33, 33, 33)" stroke="none" stroke-width="1px">1k</text><text x="76.92307692307693" y="0" dx="0em" dy="0.95em" style="text-anchor: middle; visibility: hidden; font-family: Roboto, sans-serif; font-size: 12px; font-weight: 200;" fill="rgb(33, 33, 33)" stroke="none" stroke-width="1px">1.5k</text><text x="96.15384615384616" y="0" dx="0em" dy="0.95em" style="text-anchor: middle; visibility: inherit; font-family: Roboto, sans-serif; font-size: 12px; font-weight: 200;" fill="rgb(33, 33, 33)" stroke="none" stroke-width="1px">2k</text><text x="115.38461538461539" y="0" dx="0em" dy="0.95em" style="text-anchor: middle; visibility: hidden; font-family: Roboto, sans-serif; font-size: 12px; font-weight: 200;" fill="rgb(33, 33, 33)" stroke="none" stroke-width="1px">2.5k</text><text x="134.6153846153846" y="0" dx="0em" dy="0.95em" style="text-anchor: middle; visibility: inherit; font-family: Roboto, sans-serif; font-size: 12px; font-weight: 200;" fill="rgb(33, 33, 33)" stroke="none" stroke-width="1px">3k</text><text x="153.84615384615387" y="0" dx="0em" dy="0.95em" style="text-anchor: middle; visibility: hidden; font-family: Roboto, sans-serif; font-size: 12px; font-weight: 200;" fill="rgb(33, 33, 33)" stroke="none" stroke-width="1px">3.5k</text><text x="173.07692307692307" y="0" dx="0em" dy="0.95em" style="text-anchor: middle; visibility: inherit; font-family: Roboto, sans-serif; font-size: 12px; font-weight: 200;" fill="rgb(33, 33, 33)" stroke="none" stroke-width="1px">4k</text><text x="192.30769230769232" y="0" dx="0em" dy="0.95em" style="text-anchor: middle; visibility: hidden; font-family: Roboto, sans-serif; font-size: 12px; font-weight: 200;" fill="rgb(33, 33, 33)" stroke="none" stroke-width="1px">4.5k</text><text x="211.53846153846155" y="0" dx="0em" dy="0.95em" style="text-anchor: middle; visibility: inherit; font-family: Roboto, sans-serif; font-size: 12px; font-weight: 200;" fill="rgb(33, 33, 33)" stroke="none" stroke-width="1px">5k</text><text x="230.76923076923077" y="0" dx="0em" dy="0.95em" style="text-anchor: middle; visibility: hidden; font-family: Roboto, sans-serif; font-size: 12px; font-weight: 200;" fill="rgb(33, 33, 33)" stroke="none" stroke-width="1px">5.5k</text><text x="250" y="0" dx="0em" dy="0.95em" style="text-anchor: middle; visibility: hidden; font-family: Roboto, sans-serif; font-size: 12px; font-weight: 200;" fill="rgb(33, 33, 33)" stroke="none" stroke-width="1px">6k</text></g><line x1="0" y1="0" x2="250" y2="0" fill="rgb(0, 0, 0)" stroke="rgb(204, 204, 204)" stroke-width="1px"></line></g></g></g></g></svg>