<svg viewBox="0 0 330 200" xmlns="http://www.w3.org/2000/svg"><g><g><g><g><g><line x1="60" y1="177" x2="55" y2="177" style="visibility: inherit;" fill="rgb(0, 0, 0)" stroke="rgb(204, 204, 204)" stroke-width="1px"></line><line x1="60" y1="160.9090909090909" x2="55" y2="160.9090909090909" style="visibility: inherit;" fill="rgb(0, 0, 0)" stroke="rgb(204, 204, 204)" stroke-width="1px"></line><line x1="60" y1="144.8181818181818" x2="55" y2="144.8181818181818" style="visibility: inherit;" fill="rgb(0, 0, 0)" stroke="rgb(204, 204, 204)" stroke-width="1px"></line><line x1="60" y1="128.72727272727272" x2="55" y2="128.72727272727272" style="visibility: inherit;" fill="rgb(0, 0, 0)" stroke="rgb(204, 204, 204)" stroke-width="1px"></line><line x1="60" y1="112.63636363636364" x2="55" y2="112.63636363636364" style="visibility: inherit;" fill="rgb(0, 0, 0)" stroke="rgb(204, 204, 204)" stroke-width="1px"></line><line x1="60" y1="96.54545454545453" x2="55" y2="96.54545454545453" style="visibility: inherit;" fill="rgb(0, 0, 0)" stroke="rgb(204, 204, 204)" stroke-width="1px"></line><line x1="60" y1="80.45454545454547" x2="55" y2="80.45454545454547" style="visibility: inherit;" fill="rgb(0, 0, 0)" stroke="rgb(204, 204, 204)" stroke-width="1px"></line><line x1="60" y1="64.36363636363636" x2="55" y2="64.36363636363636" style="visibility: inherit;" fill="rgb(0, 0, 0)" stroke="rgb(204, 204, 204)" stroke-width="1px"></line><line x1="60" y1="48.272727272727266" x2="55" y2="48.272727272727266" style="visibility: inherit;" fill="rgb(0, 0, 0)" stroke="rgb(204, 204, 204)" stroke-width="1px"></line><line x1="60" y1="32.18181818181817" x2="55" y2="32.18181818181817" style="visibility: inherit;" fill="rgb(0, 0, 0)" stroke="rgb(204, 204, 204)" stroke-width="1px"></line><line x1="60" y1="16.090909090909097" x2="55" y2="16.090909090909097" style="visibility: inherit;" fill="rgb(0, 0, 0)" stroke="rgb(204, 204, 204)" stroke-width="1px"></line><line x1="60" y1="0" x2="55" y2="0" style="visibility: inherit;" fill="rgb(0, 0, 0)" stroke="rgb(204, 204, 204)" stroke-width="1px"></line></g><g transform="translate(50, 0)"><text x="0" y="177" dx="0em" dy="0.3em" style="text-anchor: end; visibility: hidden; font-family: Roboto, sans-serif; font-size: 12px; font-weight: 200;" fill="rgb(33, 33, 33)" stroke="none" stroke-width="1px">-1e+3</text><text x="0" y="160.9090909090909" dx="0em" dy="0.3em" style="text-anchor: end; visibility: inherit; font-family: Roboto, sans-serif; font-size: 12px; font-weight: 200;" fill="rgb(33, 33, 33)" stroke="none" stroke-width="1px">-900</text><text x="0" y="144.8181818181818" dx="0em" dy="0.3em" style="text-anchor: end; visibility: hidden; font-family: Roboto, sans-serif; font-size: 12px; font-weight: 200;" fill="rgb(33, 33, 33)" stroke="none" stroke-width="1px">-800</text><text x="0" y="128.72727272727272" dx="0em" dy="0.3em" style="text-anchor: end; visibility: inherit; font-family: Roboto, sans-serif; font-size: 12px; font-weight: 200;" fill="rgb(33, 33, 33)" stroke="none" stroke-width="1px">-700</text><text x="0" y="112.63636363636364" dx="0em" dy="0.3em" style="text-anchor: end; visibility: hidden; font-family: Roboto, sans-serif; font-size: 12px; font-weight: 200;" fill="rgb(33, 33, 33)" stroke="none" stroke-width="1px">-600</text><text x="0" y="96.54545454545453" dx="0em" dy="0.3em" style="text-anchor: end; visibility: inherit; font-family: Roboto, sans-serif; font-size: 12px; font-weight: 200;" fill="rgb(33, 33, 33)" stroke="none" stroke-width="1px">-500</text><text x="0" y="80.45454545454547" dx="0em" dy="0.3em" style="text-anchor: end; visibility: hidden; font-family: Roboto, sans-serif; font-size: 12px; font-weight: 200;" fill="rgb(33, 33, 33)" stroke="none" stroke-width="1px">-400</text><text x="0" y="64.36363636363636" dx="0em" dy="0.3em" style="text-anchor: end; visibility: inherit; font-family: Roboto, sans-serif; font-size: 12px; font-weight: 200;" fill="rgb(33, 33, 33)" stroke="none" stroke-width="1px">-300</text><text x="0" y="48.272727272727266" dx="0em" dy="0.3em" style="text-anchor: end; visibility: hidden; font-family: Roboto, sans-serif; font-size: 12px; font-weight: 200;" fill="rgb(33, 33, 33)" stroke="none" stroke-width="1px">-200</text><text x="0" y="32.18181818181817" dx="0em" dy="0.3em" style="text-anchor: end; visibility: inherit; font-family: Roboto, sans-serif; font-size: 12px; font-weight: 200;" fill="rgb(33, 33, 33)" stroke="none" stroke-width="1px">-100</text><text x="0" y="16.090909090909097" dx="0em" dy="0.3em" style="text-anchor: end; visibility: hidden; font-family: Roboto, sans-serif; font-size: 12px; font-weight: 200;" fill="rgb(33, 33, 33)" stroke="none" stroke-width="1px">0</text><text x="0" y="0" dx="0em" dy="0.3em" style="text-anchor: end; visibility: hidden; font-family: Roboto, sans-serif; font-size: 12px; font-weight: 200;" fill="rgb(33, 33, 33)" stroke="none" stroke-width="1px">100</text></g><line x1="60" y1="0" x2="60" y2="177" fill="rgb(0, 0, 0)" stroke="rgb(204, 204, 204)" stroke-width="1px"></line></g></g><g transform="translate(60, 0)" clip-path="url(#clip_0)"><clipPath id="clip_0"><rect width="270" height="177"></rect></clipPath><g><g><g><line x1="0" y1="0" x2="0" y2="177" fill="rgb(0, 0, 0)" stroke="rgb(66, 66, 66)" stroke-width="1px" opacity="0.25"></line><line x1="27" y1="0" x2="27" y2="177" fill="rgb(0, 0, 0)" stroke="rgb(66, 66, 66)" stroke-width="1px" opacity="0.25"></line><line x1="54" y1="0" x2="54" y2="177" fill="rgb(0, 0, 0)" stroke="rgb(66, 66, 66)" stroke-width="1px" opacity="0.25"></line><line x1="81" y1="0" x2="81" y2="177" fill="rgb(0, 0, 0)" stroke="rgb(66, 66, 66)" stroke-width="1px" opacity="0.25"></line><line x1="108" y1="0" x2="108" y2="177" fill="rgb(0, 0, 0)" stroke="rgb(66, 66, 66)" stroke-width="1px" opacity="0.25"></line><line x1="135" y1="0" x2="135" y2="177" fill="rgb(0, 0, 0)" stroke="rgb(66, 66, 66)" stroke-width="1px" opacity="0.25"></line><line x1="162" y1="0" x2="162" y2="177" fill="rgb(0, 0, 0)" stroke="rgb(66, 66, 66)" stroke-width="1px" opacity="0.25"></line><line x1="189" y1="0" x2="189" y2="177" fill="rgb(0, 0, 0)" stroke="rgb(66, 66, 66)" stroke-width="1px" opacity="0.25"></line><line x1="216" y1="0" x2="216" y2="177" fill="rgb(0, 0, 0)" stroke="rgb(66, 66, 66)" stroke-width="1px" opacity="0.25"></line><line x1="243" y1="0" x2="243" y2="177" fill="rgb(0, 0, 0)" stroke="rgb(66, 66, 66)" stroke-width="1px" opacity="0.25"></line><line x1="270" y1="0" x2="270" y2="177" fill="rgb(0, 0, 0)" stroke="rgb(66, 66, 66)" stroke-width="1px" opacity="0.25"></line></g><g><line x1="0" y1="177" x2="270" y2="177" fill="rgb(0, 0, 0)" stroke="rgb(66, 66, 66)" stroke-width="1px" opacity="0.25"></line><line x1="0" y1="160.9090909090909" x2="270" y2="160.9090909090909" fill="rgb(0, 0, 0)" stroke="rgb(66, 66, 66)" stroke-width="1px" opacity="0.25"></line><line x1="0" y1="144.8181818181818" x2="270" y2="144.8181818181818" fill="rgb(0, 0, 0)" stroke="rgb(66, 66, 66)" stroke-width="1px" opacity="0.25"></line><line x1="0" y1="128.72727272727272" x2="270" y2="128.72727272727272" fill="rgb(0, 0, 0)" stroke="rgb(66, 66, 66)" stroke-width="1px" opacity="0.25"></line><line x1="0" y1="112.63636363636364" x2="270" y2="112.63636363636364" fill="rgb(0, 0, 0)" stroke="rgb(66, 66, 66)" stroke-width="1px" opacity="0.25"></line><line x1="0" y1="96.54545454545453" x2="270" y2="96.54545454545453" fill="rgb(0, 0, 0)" stroke="rgb(66, 66, 66)" stroke-width="1px" opacity="0.25"></line><line x1="0" y1="80.45454545454547" x2="270" y2="80.45454545454547" fill="rgb(0, 0, 0)" stroke="rgb(66, 66, 66)" stroke-width="1px" opacity="0.25"></line><line x1="0" y1="64.36363636363636" x2="270" y2="64.36363636363636" fill="rgb(0, 0, 0)" stroke="rgb(66, 66, 66)" stroke-width="1px" opacity="0.25"></line><line x1="0" y1="48.272727272727266" x2="270" y2="48.272727272727266" fill="rgb(0, 0, 0)" stroke="rgb(66, 66, 66)" stroke-width="1px" opacity="0.25"></line><line x1="0" y1="32.18181818181817" x2="270" y2="32.18181818181817" fill="rgb(0, 0, 0)" stroke="rgb(66, 66, 66)" stroke-width="1px" opacity="0.25"></line><line x1="0" y1="16.090909090909097" x2="270" y2="16.090909090909097" fill="rgb(0, 0, 0)" stroke="rgb(66, 66, 66)" stroke-width="1px" opacity="0.25"></line><line x1="0" y1="0" x2="270" y2="0" fill="rgb(0, 0, 0)" stroke="rgb(66, 66, 66)" stroke-width="1px" opacity="0.25"></line></g></g></g><g><g><line x1="0" y1="16.090909090909097" x2="270" y2="16.090909090909097" fill="rgb(0, 0, 0)" stroke="rgb(153, 153, 153)" stroke-width="1.5px"></line></g></g><g><g><line x1="27" y1="0" x2="27" y2="177" fill="rgb(0, 0, 0)" stroke="rgb(153, 153, 153)" stroke-width="1.5px"></line></g></g><g><g><g><g><g><path stroke="rgb(255, 112, 67)" stroke-width="2px" d="M27.270000000000003,16.13924423786726L27.54,16.14038686773067L27.81,16.212632055209152L28.08,16.28655357856268L28.349999999999998,16.32759149053355L28.619999999999997,16.356485101780912L28.89,16.37555160366824L29.16,16.404721230821046L29.43,16.43452307714522L29.7,16.47832836812458L29.97,16.530348313910114L30.240000000000002,16.58600813596135L30.51,16.63282987738739L30.78,16.686209018981955L31.05,16.740062259631262L31.32,16.757055490073434L31.590000000000003,16.788319254955343L31.86,16.82578549261862L32.129999999999995,16.82175890953543L32.4,16.81435689904068L32.67,16.812960248181692L32.94,16.830901675506787L33.21,16.84673623771297L33.48,16.860242487037276L33.75,16.85604977942199L34.02,16.88393259680901L34.29,16.87862578102613L34.56,16.889701040412575L34.83,16.945658368507452L35.1,16.999112007602537L35.370000000000005,16.994130418891675L35.64,17.005863298221545L35.910000000000004,17.01641457434261L36.18,17.05124373594511L36.45,17.072675896552454L36.720000000000006,17.117100340305516L36.99,17.201813781811566L37.260000000000005,17.280093468806022L37.53,17.312385208920773L37.800000000000004,17.335437283098475L38.06999999999999,17.390772439895752L38.339999999999996,17.405536611234044L38.61,17.39965163916005L38.879999999999995,17.414132523544662L39.15,17.419870476102634L39.419999999999995,17.44783683569483L39.69,17.486955004636755L39.96,17.561781597500552L40.23,17.569133248188535L40.5,17.623594002997354L40.769999999999996,17.6459885925849L41.04,17.68006929816345L41.31,17.703048186867175L41.58,17.721870857619265L41.85,17.799474845418256L42.12,17.87133921875634L42.39,17.844616512050532L42.660000000000004,17.879676465588673L42.93,17.921405387289212L43.2,17.991724379243497L43.47,18.005230187033277L43.74,18.063677553591642L44.010000000000005,18.04859721029176L44.28,18.129483969040535L44.550000000000004,18.185129669577336L44.82,18.180189154753826L45.09,18.23347063663942L45.36,18.308331895581084L45.63,18.33289026101178L45.900000000000006,18.41192961668981L46.17,18.39258759770575L46.44,18.504387153063053L46.709999999999994,18.530826340233777L46.98,18.561365061662105L47.25,18.620743317060754L47.519999999999996,18.68381268037807L47.79,18.72666149172361L48.059999999999995,18.770793619084504L48.33,18.79659260829335L48.6,18.834868507764075L48.87,18.894147217687436L49.14,18.930906357052677L49.41,18.918171981493035L49.68,18.97934833257586L49.95,19.05160288126376L50.22,19.096556548461333L50.49,19.116697233957442L50.76,19.20872151207512L51.03,19.347614809137298L51.3,19.36149278763216L51.57,19.34443699952433L51.84,19.45289673310538L52.11,19.438722416715507L52.38,19.458689474441076L52.65,19.59351913484146L52.92,19.612161206498513L53.190000000000005,19.68992923426178L53.46,19.727910188066566L53.730000000000004,19.828318519352244L54,19.86714418558296L54.27,19.901007318255623L54.540000000000006,19.917354527261388L54.81,20.002754231717205L55.08,20.05714396113527L55.349999999999994,20.13597244396336L55.62,20.15897088054446L55.89,20.255761047624766L56.16,20.252287613494897L56.43,20.273531920190116L56.699999999999996,20.34809174403996L56.97,20.4794675859957L57.239999999999995,20.511545332106778L57.51,20.58004425234974L57.78,20.677129215445493L58.05,20.680145312648232L58.32,20.97078832835745L58.589999999999996,20.67087661082177L58.86,20.645587250202784L59.13,20.616994607110506L59.4,20.71603713466232L59.67,20.738096244173015L59.94,20.776866675665357L60.21,20.820097827551614L60.480000000000004,20.986417289061283L60.75,20.93133031889187L61.02,20.928588963477797L61.29,20.965039901034192L61.56,21.052892039264883L61.830000000000005,21.10112431884724L62.1,21.173353805290976L62.370000000000005,21.13348275854757L62.64,21.186966038772695L62.910000000000004,21.121519114176362L63.18000000000001,21.297919446540572L63.449999999999996,21.35863981685752L63.72,21.365438396793614L63.989999999999995,21.420699193805156L64.25999999999999,21.48288895142854L64.53,21.582496248328606L64.8,21.718205092587908L65.07,21.63280186986979L65.34,21.616965735870995L65.61,21.693073276846814L65.88,21.8401847711079L66.15,21.677350019408287L66.42,21.68019236420718L66.69,21.844759662954843L66.96,22.066739290317134L67.23,22.38799955148159L67.5,22.741011839191433L67.77,23.021351140288445L68.04,23.222100561034154L68.31,23.355928845137974L68.58,23.53231147126241L68.85,23.682990399449213L69.12,23.846386410856343L69.39,24.0332344851146L69.66,24.21709753284552L69.93,24.363644298178738L70.2,24.486974041178666L70.47,24.632881581757363L70.74000000000001,24.80467462934533L71.01,24.879629790746787L71.28,24.923495325771956L71.55,24.984922701903194L71.82000000000001,25.113925705757595L72.09,25.217154359714126L72.36,25.339621601501797L72.63000000000001,25.487398816609954L72.9,25.611209291486432L73.17,25.714607559156388L73.44000000000001,25.822810231298423L73.71000000000001,25.93966961994671L73.98,26.06782386221782L74.25,26.20356796224176L74.52000000000001,26.34663175083268L74.79,26.534840603605936L75.06,26.68823639654555L75.33000000000001,26.850574382391528L75.60000000000001,26.984473805352835L75.87,27.133529941017134L76.13999999999999,27.26615913777707L76.41,27.325958508923886L76.67999999999999,27.430198677658897L76.94999999999999,27.579596652892214L77.22,27.741083216046917L77.49,27.869532310874224L77.75999999999999,28.008343068744434L78.03,28.163815741716565L78.3,28.307864509067976L78.57,28.44346021232898L78.83999999999999,28.562992841794223L79.11,28.69682644152917L79.38,28.840199638622153L79.64999999999999,28.9991508335679L79.92,29.15761461465204L80.19,29.29403503685272L80.46,29.421801357480188L80.72999999999999,29.530032994952194L81,29.65253523709815L81.27,29.738049877357078L81.53999999999999,29.801717566863108L81.81,29.927757425873224L82.08,30.048846555656848L82.35,30.09042782568516L82.62,30.173913660318632L82.89,30.303996228410085L83.16,30.35017453535527L83.42999999999999,30.4808563112523L83.7,30.637686394022708L83.97,30.788585887516096L84.24,30.96017543920723L84.51,31.11316596538173L84.78,31.220770722719383L85.05,31.320970875245887L85.32000000000001,31.469097140284102L85.59,31.59156292039625L85.86,31.666852501320896L86.13,31.77262734321171L86.4,31.919590631422878L86.67,32.02861154240239L86.94,32.16747270974633L87.21000000000001,32.32994969179182L87.48,32.49279074647002L87.75,32.6342645648512L88.02000000000001,32.79322571137354L88.29,32.91279658378145L88.56,33.01487268503653L88.83,33.1311405034278L89.10000000000001,33.28683528368408L89.37,33.44826565011693L89.64,33.613627240733045L89.91000000000001,33.79312128481009L90.18,33.93688350622268L90.45,34.0814166979606L90.72,34.25324669381485L90.99000000000001,34.411402838223374L91.26,34.54464506536477L91.53,34.64911908389203L91.80000000000001,34.760758241095445L92.07000000000001,34.870373206046125L92.34,34.9678609128471L92.61000000000001,35.054710745969565L92.88,35.16441857538641L93.14999999999999,35.30130167642394L93.41999999999999,35.44816689193754L93.69,35.55845028056711L93.96,35.678667095113646L94.22999999999999,35.81047524439519L94.5,36.04530064936888L94.77,36.0714035844314L95.03999999999999,36.16917212464653L95.30999999999999,36.3136485997203L95.58,36.44820214467948L95.85,36.584583290393155L96.11999999999999,36.7203349645023L96.39,36.8645594221307L96.66,37.01422801509746L96.92999999999999,37.141079136476385L97.2,37.27663058012255L97.47,37.43028761002665L97.74,37.61154785044893L98.00999999999999,37.77723997633858L98.28,37.951475216939656L98.55,38.117714635891026L98.82,38.27867779940622L99.09,38.44023727369549L99.36,38.58145303209084L99.63,38.72726838963113L99.9,38.88090739907835L100.17,39.044436662417766L100.44,39.16534054279531L100.71,39.28956972252346L100.98,39.39472694374488L101.25,39.45811806046325L101.52,39.565932453230644L101.79,39.67792441758335L102.06,39.77745015603892L102.33,39.891902694421496L102.6,40.00777312357788L102.87,40.13954386641249L103.14,40.25450358201886L103.41,40.387349346669694L103.68,40.5294793573563L103.95,40.65610747516478L104.22,40.77428215706081L104.49000000000001,40.88519368056723L104.76,41.01383541737508L105.03,41.148316831363886L105.3,41.29443699263238L105.57000000000001,41.44833231828886L105.84,41.59430154441292L106.11,41.757129450022994L106.38000000000001,41.85381864435641L106.65,41.95738912635084L106.92,42.05398646857175L107.19000000000001,42.187313118131755L107.46000000000001,42.29408380287382L107.73,42.40346942710375L108,42.53975128116L108.27000000000001,42.69828658639141L108.54,42.854970191027945L108.81,42.989689446511385L109.08000000000001,43.09976291737057L109.35000000000001,43.14628707525358L109.62,43.23179283648271L109.88999999999999,43.31738782584102L110.16,43.423185670236336L110.42999999999999,43.53082442183611L110.69999999999999,43.62760682657425L110.97,43.750922606370445L111.24,43.81639269698522L111.50999999999999,43.934051730397506L111.78,44.05266671647929L112.05,44.17432914418499L112.32,44.265548418381734L112.58999999999999,44.38453591663875L112.86,44.44383903442914L113.13,44.49764980686978L113.39999999999999,44.61448339717526L113.67,44.74032490568243L113.94,44.91599425280143L114.21,45.077000707301934L114.47999999999999,45.212650244395L114.75,45.32284800901012L115.02,45.46891798084294L115.28999999999999,45.627902042865024L115.56,45.786638656572485L115.83,45.95530773662721L116.1,46.135973657190334L116.37,46.28764096526878L116.64,46.41117438059743L116.91,46.55962032368481L117.17999999999999,46.72629825368543L117.45,46.904957664714715L117.72,47.08040503643291L117.99,47.245099190944394L118.26,47.41033476022149L118.53,47.58289949479316L118.8,47.702625652775396L119.07000000000001,47.837153278896324L119.34,48.00604552178746L119.61,48.158361191748504L119.88,48.2902292827774L120.15,48.42280801655065L120.42,48.57210372107438L120.69,48.7323656412797L120.96000000000001,48.85353393983973L121.23,48.98797000622731L121.5,49.1149154193071L121.77000000000001,49.22932704298642L122.04,49.3841538309964L122.31,49.55581742509042L122.58,49.71282459274092L122.85000000000001,49.9041862420605L123.12,50.07895426286366L123.39,50.25097329987446L123.66000000000001,50.40562909400644L123.93,50.58472517131944L124.2,50.751908276497325L124.47,50.90867748666214L124.74000000000001,51.03368771476176L125.01,51.20663608424359L125.28,51.354827676981365L125.55000000000001,51.52468266653316L125.82000000000001,51.70667355859652L126.09,51.8665901434922L126.36000000000001,51.9774906219526L126.63,52.13128830301408L126.89999999999999,52.27993034459146L127.16999999999999,52.40799071011795L127.44,52.55649370574926L127.71,52.71793208032768L127.97999999999999,52.89774076175974L128.25,53.066087574044744L128.51999999999998,53.244594193954256L128.79,53.42298976654514L129.06,53.60284318845787L129.32999999999998,53.78208995036315L129.6,53.97880296071228L129.87,54.111001367695394L130.14,54.253909644972914L130.41,54.42035497472541L130.68,54.53815418025211L130.95,54.67671919983193L131.22,54.85669602581601L131.49,55.046680934667236L131.76,55.21364181507526L132.03,55.390748915181454L132.3,55.5873109846337L132.57,55.754801046171444L132.84,55.93565174420448L133.10999999999999,56.116332810129066L133.38,56.32709140776925L133.65,56.49682290135819L133.92,56.616085777136654L134.19,56.78942437861391L134.46,56.98702619623292L134.73,57.17977195034368L135,57.336145072736954L135.27,57.477241380649936L135.54,57.54752606037405L135.81,57.67987235821269L136.08,57.82508732389134L136.35,57.95588882106554L136.62,58.052529818346144L136.89000000000001,58.1791473858667L137.16,58.31837108045893L137.43,58.49337051776903L137.7,58.65048123369303L137.97,58.82240496453173L138.24,59.0012630593619L138.51,59.170862153084116L138.78,59.29509558966764L139.05,59.42792227409875L139.32,59.607984066728804L139.59,59.77763160195039L139.86,59.95886288880255L140.13,60.134992371388975L140.4,60.3302482126322L140.67000000000002,60.52887825824631L140.94,60.70743645192304L141.21,60.89599776554686L141.48000000000002,61.07842085335426L141.75,61.2629601780837L142.02,61.43707153248278L142.29000000000002,61.61301539380155L142.56,61.78990037338476L142.83,62.01517504518991L143.1,62.22215040293767L143.37,62.43421450302902L143.64000000000001,62.64046523653248L143.91,62.84953147377815L144.18,63.03653824669133L144.45000000000002,63.213283273400236L144.72,63.35038979950476L144.99,63.49950139513879L145.26000000000002,63.661705262936664L145.53,63.812735049937274L145.8,63.95265327177705L146.07000000000002,64.11225215782264L146.34,64.30086374014306L146.61,64.53226688723944L146.88000000000002,64.7463983525648L147.15,64.95594447287914L147.42000000000002,65.17371301421392L147.69,65.40492856124777L147.96,65.61955174123092L148.23000000000002,65.76618180689606L148.5,65.94706670577912L148.77,66.14315484503072L149.04000000000002,66.34518994679523L149.31,66.55684182986194L149.58,66.78699100348133L149.85000000000002,66.9909855659509L150.12,67.20325331016804L150.39000000000001,67.40204375431296L150.66000000000003,67.60170803367029L150.93,67.80079195502985L151.20000000000002,67.9923614659408L151.47000000000003,68.08327296406479L151.74,68.24005390775545L152.01,68.36009682642205L152.27999999999997,68.47820956049941L152.54999999999998,68.63758551975515L152.82,68.83869855851842L153.08999999999997,69.06137816875346L153.35999999999999,69.25599894977594L153.63,69.46166224063774L153.89999999999998,69.6797122078163L154.17,69.73773304959147L154.44,69.80131530865687L154.70999999999998,69.89546618262516L154.98,70.07380167455312L155.25,70.27973190450342L155.51999999999998,70.50560707471678L155.79,70.7428624384408L156.06,70.98196249142671L156.32999999999998,71.18138595186292L156.6,71.4193093180156L156.86999999999998,71.49843140822321L157.14,71.65389734719083L157.41,71.84345698275513L157.67999999999998,72.07523762126706L157.95,72.26216212396085L158.22,72.46937895644828L158.48999999999998,72.68359570081903L158.76,72.8707280341347L159.03,73.07960388847448L159.29999999999998,73.31662054455644L159.57,73.5112576867205L159.84,73.6934908135009L160.10999999999999,73.93020167099631L160.38,74.13937846621921L160.65,74.38412486706468L160.92,74.60601744063925L161.19,74.8211314306381L161.45999999999998,75.06334121147442L161.73,75.28120411586869L162,75.50169222246053L162.26999999999998,75.7520659420076L162.54,75.95783019360815L162.81,76.18089428590352L163.07999999999998,76.42529118278917L163.35,76.68610339480887L163.62,76.9243901449171L163.89,77.2109274332404L164.16,77.44694737093131L164.43,77.68997771189707L164.7,77.90655843415664L164.97,78.10383917659952L165.24,78.32735918699511L165.51,78.54777194325308L165.78,78.76788181354557L166.05,78.97712602883915L166.32,79.22480196610432L166.59,79.47478911221799L166.85999999999999,79.7688224894542L167.13,80.03150258709431L167.4,80.28802379468536L167.67,80.55205996201478L167.94,80.80260639864258L168.21,81.0669958590768L168.48,81.29626727232365L168.75,81.44247682162961L169.02,81.60497949554284L169.29,81.7929301890672L169.56,82.01478768535331L169.83,82.08036526222178L170.1,82.16457919860675L170.37,82.36909411385079L170.64000000000001,82.56318839410297L170.91,82.73730198570769L171.18,82.94993004038051L171.45,83.16467190846235L171.72,83.35786626207371L171.99,83.5946176402272L172.26,83.72389915764826L172.53,83.95687212429952L172.8,84.18898877008318L173.07,84.3993145324248L173.34,84.62768751549014L173.61,84.92102233049805L173.88,85.20817087411042L174.15,85.44276207808146L174.42000000000002,85.70529432392621L174.69,85.93468659336351L174.96,86.17331357773227L175.23000000000002,86.39538994607419L175.5,86.65819340139748L175.77,86.91669976439431L176.04000000000002,87.18283596377766L176.31,87.43607722247118L176.58,87.64989702535833L176.85,87.81326170975593L177.12,88.02585122490406L177.39000000000001,88.27085193204954L177.66,88.45950539369277L177.93,88.71886155915915L178.20000000000002,88.96662319187071L178.47,89.16175410061084L178.74,89.36066567013724L179.01000000000002,89.61607392279663L179.28,89.79120027667955L179.55,89.92874969429951L179.82000000000002,90.17204663169623L180.09,90.40756123445506L180.36,90.70648355977885L180.63000000000002,90.93597277832221L180.9,91.18612437722044L181.17000000000002,91.44249955985492L181.44,91.73446646146547L181.71,92.01400691276743L181.98000000000002,92.28168321289189L182.25,92.45309363451773L182.52,92.63138074694496L182.79000000000002,92.73910927481052L183.06,92.89932460255346L183.33,93.07742601278804L183.60000000000002,93.21820304831171L183.87,93.38485537560504L184.14000000000001,93.61024446417115L184.41000000000003,93.86332697488464L184.68,94.10381222243007L184.95000000000002,94.35642429014517L185.22000000000003,94.60137668378742L185.49,94.79614753838906L185.76,95.07653481477766L186.02999999999997,95.36322279295995L186.29999999999998,95.6699505948818L186.57,95.89133855383429L186.83999999999997,96.20479096099098L187.10999999999999,96.45988859641274L187.38,96.71426065145566L187.64999999999998,96.97747860693876L187.92,97.2746018416948L188.19,97.5386765292367L188.45999999999998,97.82889828756815L188.73,98.01942882295874L189,98.21076029440162L189.26999999999998,98.41340261516271L189.54,98.65146062408915L189.81,98.91149396167124L190.07999999999998,99.18136109302361L190.35,99.4265579015399L190.61999999999998,99.6785416517695L190.89,99.96735525089457L191.16,100.25700596270948L191.42999999999998,100.49094192873393L191.7,100.72695822446153L191.97,100.94599173197568L192.23999999999998,101.20272268748813L192.51,101.42026635679782L192.78,101.6631408759184L193.04999999999998,101.81082836378721L193.32,101.91618407835969L193.59,102.08831797571862L193.85999999999999,102.30559004907823L194.13,102.58588084008036L194.4,102.88689675310597L194.67,103.15824717809241L194.94,103.45636775846032L195.20999999999998,103.66539085975448L195.48,103.96033357377686L195.75,104.12237779075032L196.01999999999998,104.31223737448562L196.29,104.54542558849673L196.56,104.7160498660325L196.82999999999998,104.97521870199884L197.1,105.18793940863314L197.37,105.40696981883869L197.64,105.63904424542679L197.91,105.96936989327533L198.18,106.21950227170487L198.45,106.54377926722402L198.72,106.77895744196786L198.99,107.00978830306192L199.26,107.29037431034787L199.53,107.56524358491781L199.8,107.84964204057772L200.07,108.19189296266289L200.34,108.55966860017278L200.60999999999999,108.89635237912108L200.88,109.20142017606344L201.15,109.49834453736264L201.42,109.54545624039447L201.69,109.75775597724946L201.96,110.06236942741687L202.23,110.38504183237042L202.5,110.70392417648318L202.77,110.98914256928546L203.04,111.32133562573014L203.31,111.59334623880298L203.58,111.91316514183377L203.85,112.21629869690697L204.12,112.3872832858149L204.39000000000001,112.60643263887945L204.66,112.84401845410649L204.93,113.1809389036638L205.2,113.42584071570063L205.47,113.75733521016147L205.74,114.09100642576122L206.01,114.3932584443788L206.28,114.69636021138949L206.55,114.98796766148503L206.82,115.30520161792109L207.09,115.53849464067976L207.36,115.80803351286937L207.63,116.18782727576878L207.9,116.29127778283157L208.17000000000002,116.51477142505536L208.44,116.8487103757589L208.71,117.09006772991167L208.98000000000002,117.37920584277852L209.25,117.49647387240675L209.52,117.77322385328219L209.79000000000002,118.05011483588004L210.06,118.30256093092181L210.33,118.61222042697707L210.6,118.96817278609058L210.87,119.23753786368188L211.14000000000001,119.50287165999525L211.41,119.68248517548446L211.68,119.80554553166384L211.95000000000002,120.04717018214701L212.22,120.30553671559713L212.49,120.65641217982356L212.76000000000002,121.04749140026964L213.03,121.40381679944701L213.3,121.80906747718974L213.57000000000002,122.18561276214434L213.84,122.493688114298L214.11,122.83263781233269L214.38000000000002,123.05853619543859L214.65,123.3392585126792L214.92000000000002,123.40844559669263L215.19,123.61653589529439L215.46,123.93076934204457L215.73000000000002,124.28359876169841L216,124.5699890229866L216.27,124.82024225892746L216.54000000000002,125.10728387592069L216.81,125.33246192300716L217.08,125.63542336402624L217.35000000000002,125.91150962905216L217.62,126.25455776101337L217.89000000000001,126.54562000909345L218.16000000000003,126.81120997575131L218.43,127.1620278912259L218.70000000000002,127.47337533085225L218.97000000000003,127.81998517914546L219.24,128.12978083186303L219.51,128.53639607340685L219.77999999999997,128.8729443885693L220.04999999999998,129.21078039846228L220.32,129.51335488390495L220.58999999999997,129.86451050198852L220.85999999999999,130.1336110594005L221.13,130.32900513014965L221.39999999999998,130.65621433493632L221.67,130.93541517220663L221.94,131.32842160687704L222.20999999999998,131.75910107506468L222.48,132.1205373885791L222.75,132.4097297172742L223.01999999999998,132.73583376938882L223.29,133.14749277528105L223.56,133.4722385993251L223.82999999999998,133.9025758436661L224.1,134.27673678423196L224.36999999999998,134.64453073788584L224.64,135.00624666196768L224.91,135.35764595598457L225.17999999999998,135.75503165883072L225.45,136.0863044863846L225.72,136.40852294407057L225.98999999999998,136.65355332651328L226.26,136.95882395492896L226.53,137.28595824527042L226.79999999999998,137.66609686708608L227.07,138.05141032116885L227.34,138.4653424224055L227.60999999999999,138.88939494530428L227.88,139.19476608888777L228.15,139.44576753525573L228.42,139.7648960554779L228.69,140.0301791075843L228.95999999999998,140.34798463097226L229.23,140.73148902870216L229.5,141.13952115216944L229.76999999999998,141.44812074344628L230.04,141.7793101623023L230.31,142.0043552403631L230.57999999999998,142.33694657868202L230.85,142.68604238781805L231.12,142.90966942092675L231.39,143.187381552362L231.66,143.46946813023962L231.93,143.81598055663085L232.2,144.2198337974736L232.47,144.57295386232832L232.74,144.90146047574027L233.01,145.15530923431677L233.28,145.5716624087339L233.55,145.93027361447344L233.82,146.24168069394378L234.09,146.61167537242747L234.35999999999999,147.0295637540316L234.63,147.44698539463906L234.9,147.81181387715833L235.17,148.1701256735087L235.44,148.50507972344894L235.71,148.93091984752868L235.98,149.29008012291663L236.25,149.6738801049678L236.52,149.99628755870256L236.79,150.3331061161077L237.06,150.71265188137033L237.33,151.08610742291486L237.6,151.4755354302282L237.87,151.75744757322153L238.14000000000001,152.1559887537002L238.41,152.41785283267694L238.68,152.89404317647214L238.95,153.3081512088678L239.22,153.71493777633853L239.49,154.1392816351733L239.76,154.55760406037533L240.03,154.96729394626735L240.3,155.32621154879197L240.57,155.7201951509684L240.84,156.12166013439847L241.11,156.53890919495822L241.38,156.952764493026L241.65,157.29399689361784L241.92000000000002,157.68171166770685L242.19,158.09291372665356L242.46,158.47882824155303L242.73000000000002,158.95782151834905L243,159.37403762633127L243.27,159.79007112996783L243.54000000000002,158.20930542685886L243.81,159.36271305847228L244.08,160.16921863841694L244.35,160.70933049950523L244.62,161.28879602700124L244.89000000000001,161.76454575577358L245.16,162.15875730330058L245.43,162.54558086625326L245.70000000000002,163.00195230790905L245.97,163.31361205735703L246.24,163.74790690974044L246.51000000000002,164.11691318219857L246.78,164.58775529508418L247.05,164.98534997645513L247.32000000000002,165.3587956862652L247.59,165.6699639645994L247.86,166.0757467356684L248.13000000000002,166.34738224786008L248.4,166.6372174887026L248.67000000000002,167.01862265200887L248.94,167.36608966505312L249.21,168.22933190459185L249.48000000000002,168.1798349589957L249.75,168.34820570921752L250.02,168.498319765313L250.29000000000002,168.7077101202923L250.56,169.0098207238446L250.83,169.31081716347308L251.10000000000002,169.64073528544634L251.37,170.03293772840368L251.64000000000001,170.53181804845744L251.91000000000003,170.9674454118314L252.18,171.44582893837105L252.45000000000002,171.9573683171291L252.72000000000003,172.37544674152645L252.99,172.78111587271025" style="fill: none;" fill="none"></path></g></g></g></g><g opacity="0.2"><g><g><g><path stroke="rgb(255, 112, 67)" stroke-width="2px" d="M27.270000000000003,16.13924423786726L27.54,16.140981035259628L27.81,16.269734651392156L28.08,16.355375108177018L28.349999999999998,16.368798649419446L28.619999999999997,16.386596421653575L28.89,16.39579861131582L29.16,16.43599678516387L29.43,16.46663581414656L29.7,16.52565217755058L29.97,16.586621791232716L30.240000000000002,16.646260951215563L30.51,16.683533603928296L30.78,16.744024668606837L31.05,16.79839710408991L31.32,16.775463811267503L31.590000000000003,16.822187365618618L31.86,16.866373313557013L32.129999999999995,16.817396811571985L32.4,16.806338086561713L32.67,16.81144721291282L32.94,16.85033820065585L33.21,16.86389033707706L33.48,16.874874252839525L33.75,16.85150768019937L34.02,16.914138979911808L34.29,16.872876730832193L34.56,16.901699237823482L34.83,17.006278806599695L35.1,17.057020116285848L35.370000000000005,16.98873369780454L35.64,17.018573917475617L35.910000000000004,17.027845123464413L36.18,17.08897532766516L36.45,17.095894070538602L36.720000000000006,17.16522682103243L36.99,17.293586676771L37.260000000000005,17.36489646304738L37.53,17.347367927377864L37.800000000000004,17.36041036345742L38.06999999999999,17.450718859759245L38.339999999999996,17.42153113018383L38.61,17.393276252746585L38.879999999999995,17.429820148294628L39.15,17.426086591373796L39.419999999999995,17.478133725253024L39.69,17.529333020990553L39.96,17.64284373976968L40.23,17.577097536433826L40.5,17.682593154040255L40.769999999999996,17.67024939797142L41.04,17.71699006254023L41.31,17.72794198296286L41.58,17.74226208426736L41.85,17.88354583220049L42.12,17.949192289872595L42.39,17.81566691311923L42.660000000000004,17.91765808192166L42.93,17.96661171913148L43.2,18.067903287194L43.47,18.019861478805545L43.74,18.126995534029874L44.010000000000005,18.03226017171686L44.28,18.217111291018398L44.550000000000004,18.245412511825556L44.82,18.174836930361668L45.09,18.291192242015494L45.36,18.389431592767895L45.63,18.359495156895022L45.900000000000006,18.49755558534102L46.17,18.371633743806328L46.44,18.62550333803351L46.709999999999994,18.559468793002047L46.98,18.5944486765428L47.25,18.685069760409267L47.519999999999996,18.75213782397183L47.79,18.77308103734796L48.059999999999995,18.81860342372548L48.33,18.82454151326959L48.6,18.876334065524006L48.87,18.958365820104422L49.14,18.970728758031665L49.41,18.90437640797008L49.68,19.045622712915602L49.95,19.1298786423423L50.22,19.145256354592053L50.49,19.138516309911548L50.76,19.308414480035953L51.03,19.498082547621294L51.3,19.37652726433493L51.57,19.325959895740848L51.84,19.57039477781815L52.11,19.42336690729314L52.38,19.4803204536438L52.65,19.739584600275222L52.92,19.632356784126973L53.190000000000005,19.7741779310053L53.46,19.76905622135509L53.730000000000004,19.93709421157837L54,19.909205323999586L54.27,19.937692378651004L54.540000000000006,19.935064003684314L54.81,20.095270578210997L55.08,20.116066168004817L55.349999999999994,20.221369967027155L55.62,20.1838858535073L55.89,20.36061706196178L56.16,20.248524726520884L56.43,20.296546585776593L56.699999999999996,20.428864886543966L56.97,20.621791414781047L57.239999999999995,20.54629622372713L57.51,20.65425141594627L57.78,20.782304592132572L58.05,20.68341275128451L58.32,21.285651595375754L58.589999999999996,20.345972250158137L58.86,20.618190442865554L59.13,20.58601924376055L59.4,20.823333206176752L59.67,20.761993612809622L59.94,20.818867976448743L60.21,20.86693157542836L60.480000000000004,21.16659670569679L60.75,20.871652767874988L61.02,20.925619161779238L61.29,21.004528416720298L61.56,21.148065189014783L61.830000000000005,21.153375955061477L62.1,21.251602415605017L62.370000000000005,21.09028912457553L62.64,21.244906259016552L62.910000000000004,21.050618279197003L63.18000000000001,21.489019806601792L63.449999999999996,21.424420218034225L63.72,21.372803525057712L63.989999999999995,21.480565057234337L64.25999999999999,21.550261188853874L64.53,21.690404153303675L64.8,21.865223007202154L65.07,21.54028171192516L65.34,21.599809924038976L65.61,21.775523112903947L65.88,21.999555556557397L66.15,21.500945705067032L66.42,21.68327157107266L66.69,22.02304090326482L66.96,22.307217219959607L67.23,22.73603150107644L67.5,23.123441817543718L67.77,23.325052049810242L68.04,23.439579100175337L68.31,23.500909486250446L68.58,23.72339264956387L68.85,23.846225904984912L69.12,24.023398756547408L69.39,24.23565323222767L69.66,24.41628250122071L69.93,24.5224032939564L70.2,24.62058126276189L70.47,24.790948084050957L70.74000000000001,24.990783764232283L71.01,24.960831215598365L71.28,24.97101632204922L71.55,25.05146902604537L71.82000000000001,25.25367895993319L72.09,25.328985401500358L72.36,25.4722944467718L72.63000000000001,25.647490799643776L72.9,25.745337305935948L73.17,25.826622349132187L73.44000000000001,25.94002979278564L73.71000000000001,26.066267290982335L73.98,26.206657624678186L74.25,26.350624070601036L74.52000000000001,26.501617521806196L74.79,26.73873352744363L75.06,26.854415172230105L75.33000000000001,27.026440533724692L75.60000000000001,27.1295315135609L75.87,27.29500742132013L76.13999999999999,27.40984076760033L76.41,27.390741160999642L76.67999999999999,27.54312552712181L76.94999999999999,27.741444459394973L77.22,27.916026992797846L77.49,28.00868549693715L77.75999999999999,28.158721389770502L78.03,28.33224447076972L78.3,28.46391734036533L78.57,28.590355557528405L78.83999999999999,28.692486523714933L79.11,28.841812841242007L79.38,28.99552060213956L79.64999999999999,29.17134796142579L79.92,29.329283710826534L80.19,29.44182382757014L80.46,29.560214871493244L80.72999999999999,29.647283935546866L81,29.78524599942293L81.27,29.830690737637614L81.53999999999999,29.87069089716132L81.81,30.06430060646751L82.08,30.180026446255763L82.35,30.13547420154919L82.62,30.264356647838238L82.89,30.444919010509143L83.16,30.400201034545894L83.42999999999999,30.62242823514072L83.7,30.807585650357325L83.97,30.95206033880061L84.24,31.14606412020597L84.51,31.27890570207075L84.78,31.337342543168496L85.05,31.42952104048296L85.32000000000001,31.629567260742196L85.59,31.724234182184397L85.86,31.74841621398926L86.13,31.887216755260123L86.4,32.07880086031827L86.67,32.14671752929687L86.94,32.31790564103561L87.21000000000001,32.50596642234109L87.48,32.66920188903809L87.75,32.78752786809748L88.02000000000001,32.96543362010608L88.29,33.04233169555664L88.56,33.12545512806286L88.83,33.25709730668501L89.10000000000001,33.455504628961734L89.37,33.623148547085854L89.64,33.792768963900485L89.91000000000001,33.98757316589356L90.18,34.09262591275302L90.45,34.237994322343305L90.72,34.43939585599032L90.99000000000001,34.582738661332556L91.26,34.68899081143466L91.53,34.76229927062988L91.80000000000001,34.88170066139915L92.07000000000001,34.989122751409354L92.34,35.07347259521485L92.61000000000001,35.14879806518555L92.88,35.28326872392133L93.14999999999999,35.44959170254795L93.41999999999999,35.607270875410606L93.69,35.677923951582464L93.96,35.80890197753906L94.22999999999999,35.95326740611683L94.5,36.299694838090375L94.77,36.099681764082476L95.03999999999999,36.27508804321289L95.30999999999999,36.47016478105026L95.58,36.593968485051924L95.85,36.73232953158291L96.11999999999999,36.86739927812056L96.39,37.02080258456144L96.66,37.17636899081143L96.92999999999999,37.278501184636895L97.2,37.423477977405895L97.47,37.596749392422765L97.74,37.80791311090643L98.00999999999999,37.956739779385664L98.28,38.14023006092418L98.55,38.29780733975496L98.82,38.45305455988103L99.09,38.615260037508875L99.36,38.73443677035245L99.63,38.88523502696645L99.9,39.04734965931286L100.17,39.22159336436878L100.44,39.296319746537634L100.71,39.424151333895594L100.98,39.50864726673472L101.25,39.52679177024148L101.52,39.6827313787287L101.79,39.799249045632095L102.06,39.88526970603248L102.33,40.01589294433593L102.6,40.13329942183061L102.87,40.28229550448331L103.14,40.379043273925774L103.41,40.531265591708106L103.68,40.68345353560015L103.95,40.79328793612393L104.22,40.90230472911488L104.49000000000001,41.00534783103249L104.76,41.1531972989169L105.03,41.29400502985173L105.3,41.45273383400657L105.57000000000001,41.615052254416725L105.84,41.75243487271395L106.11,41.93352634776722L106.38000000000001,41.95856527155097L106.65,42.06959048184481L106.92,42.15863358931108L107.19000000000001,42.33175032182174L107.46000000000001,42.409752044677724L107.73,42.52197052001953L108,42.68738995638761L108.27000000000001,42.870033167058764L108.54,43.02471076271751L108.81,43.13563530661843L109.08000000000001,43.219009177468045L109.35000000000001,43.1966882462935L109.62,43.32442407781428L109.88999999999999,43.41011573097922L110.16,43.5378000016646L110.42999999999999,43.647433069402524L110.69999999999999,43.732454431707204L110.97,43.884514701149676L111.24,43.88731862848456L111.50999999999999,44.06151568326082L111.78,44.181166284734545L112.05,44.30613010753286L112.32,44.36436929876155L112.58999999999999,44.51343903975053L112.86,44.50808407870206L113.13,44.55594481034712L113.39999999999999,44.74105312000622L113.67,44.87665320656516L113.94,45.10630271218039L114.21,45.2514243663441L114.47999999999999,45.35960390957919L114.75,45.4422289206765L115.02,45.62716045032848L115.28999999999999,45.8001347767223L115.56,45.95860332142223L115.83,46.138032573353165L116.1,46.331695071133694L116.37,46.45194721568714L116.64,46.54500224720349L116.91,46.72043676202947L117.17999999999999,46.90686601118608L117.45,47.098505359996444L117.72,47.27047302246094L117.99,47.42351785833186L118.26,47.589339960271666L118.53,47.76984462391246L118.8,47.832328990589495L119.07000000000001,47.98289154052734L119.34,48.18901211825285L119.61,48.32336983420632L119.88,48.43308638139205L120.15,48.56643497813832L120.42,48.733840734308416L120.69,48.905982721502134L120.96000000000001,48.9847995966131L121.23,49.13360907814719L121.5,49.25243961681019L121.77000000000001,49.35327296863902L122.04,49.55188285134056L122.31,49.7417863186923L122.58,49.88291569102895L122.85000000000001,50.111494695490066L123.12,50.26828628540039L123.39,50.43732725663619L123.66000000000001,50.573172870982766L123.93,50.77874592174183L124.2,50.93302330710671L124.47,51.078510797674014L124.74000000000001,51.16911546186968L125.01,51.393996817848894L125.28,51.515368569113996L125.55000000000001,51.70869223854759L125.82000000000001,51.90383035833185L126.09,52.03983311046253L126.36000000000001,52.097632806951346L126.63,52.29790245749733L126.89999999999999,52.44095922296698L127.16999999999999,52.54672277277166L127.44,52.71737195101651L127.71,52.89282365278765L127.97999999999999,53.092533499977804L128.25,53.24846328735351L128.51999999999998,53.437976365522914L128.79,53.61625163685192L129.06,53.79768439553L129.32999999999998,53.976273942427206L129.6,54.19190872192382L129.87,54.25421630859376L130.14,54.40872694535688L130.41,54.600670748623926L130.68,54.66576998623934L130.95,54.82683130437677L131.22,55.0516709206321L131.49,55.252497919256044L131.76,55.39451610218394L132.03,55.582614940296516L132.3,55.8002532265403L132.57,55.93624861283735L132.84,56.13157333374023L133.10999999999999,56.3120706315474L133.38,56.55541322187945L133.65,56.68069868607954L133.92,56.74528722589667L134.19,56.97720786354758L134.46,57.20109483198687L134.73,57.388579850630336L135,57.505549288663005L135.27,57.63009571422229L135.54,57.623667796741834L135.81,57.82324751420454L136.08,57.982403536709874L136.35,58.097590443004265L136.62,58.15722423206675L136.89000000000001,58.316316417347295L137.16,58.46919674960049L137.43,58.68295324152166L137.7,58.82068450927735L137.97,59.00865567294035L138.24,59.19502599542792L138.51,59.354594504616486L138.78,59.429681812633156L139.05,59.57181784889914L139.32,59.80305100874467L139.59,59.9614164317738L139.86,60.1551967828924L140.13,60.32579931085759L140.4,60.54177537397905L140.67000000000002,60.74406080766157L140.94,60.9008744950728L141.21,61.10027252197266L141.48000000000002,61.276045865145605L141.75,61.462877779873935L142.02,61.625692166415135L142.29000000000002,61.80362124356356L142.56,61.98152576793324L142.83,62.25922260631214L143.1,62.446373707164426L143.37,62.663950611461296L143.64000000000001,62.86390353116123L143.91,63.07601989746093L144.18,63.2391289173473L144.45000000000002,63.40475705233487L144.72,63.49892186945135L144.99,63.66103895707563L145.26000000000002,63.837426119717676L145.53,63.97635065252131L145.8,64.10423134543679L146.07000000000002,64.28515095103872L146.34,64.5051929543235L146.61,64.7829536299272L146.88000000000002,64.97837410666725L147.15,65.18295276988637L147.42000000000002,65.40962893399326L147.69,65.65541207053444L147.96,65.85206018621273L148.23000000000002,65.92503104469994L148.5,66.1430253462358L148.77,66.35558366255326L149.04000000000002,66.56406130704012L149.31,66.78613136985085L149.58,67.03631927490234L149.85000000000002,67.21197967529297L150.12,67.43321003306995L150.39000000000001,67.61740006880326L150.66000000000003,67.81801100297409L150.93,68.01646620316939L151.20000000000002,68.199895102761L151.47000000000003,68.18176042036576L151.74,68.40989993008701L152.01,68.49014332164417L152.27999999999997,68.60616502241655L152.54999999999998,68.81024280894887L152.82,69.05657101717863L153.08999999999997,69.30261441317471L153.35999999999999,69.46683812921698L153.63,69.68446413907137L153.89999999999998,69.91593300559303L154.17,69.80058896151456L154.44,69.8701960893111L154.70999999999998,69.99746296275745L154.98,70.26699845747515L155.25,70.50282298694957L155.51999999999998,70.75030517578125L155.79,70.99988908247515L156.06,71.24098754882813L156.32999999999998,71.39742803400213L156.6,71.67705963134766L156.86999999999998,71.58414700594815L157.14,71.82231878107244L157.41,72.04881325461648L157.67999999999998,72.32633331298828L157.95,72.4646636685458L158.22,72.69386385830965L158.48999999999998,72.91566384055398L158.76,73.07345472856001L159.03,73.30588606400923L159.29999999999998,73.57338858864524L159.57,73.72211459073154L159.84,73.89091003417968L160.10999999999999,74.18663843328302L160.38,74.36598666104405L160.65,74.64926680131391L160.92,74.84640106201172L161.19,75.05417158647016L161.45999999999998,75.32573514071377L161.73,75.51722226229582L162,75.74055433793502L162.26999999999998,76.02330413818359L162.54,76.18074146617543L162.81,76.42254705255682L163.07999999999998,76.69005448774858L163.35,76.96864995783025L163.62,77.182534124201L163.89,77.52134282892402L164.16,77.70263563676313L164.43,77.95326058127664L164.7,78.14118754993785L164.97,78.31755998091263L165.24,78.56950586492364L165.51,78.78655242919922L165.78,79.00633417302913L166.05,79.20380726207387L166.32,79.49311756480823L166.59,79.74560852050782L166.85999999999999,80.08735864812677L167.13,80.31607269287109L167.4,80.56592176957565L167.67,80.83809914328835L167.94,81.07403170498934L168.21,81.35341777454722L168.48,81.54464463667435L168.75,81.6008705000444L169.02,81.78102405894886L169.29,81.9965434403853L169.56,82.25513330632991L169.83,82.15140763716265L170.1,82.2558109630238L170.37,82.59065193869851L170.64000000000001,82.77345719770952L170.91,82.92592504327948L171.18,83.18027709960937L171.45,83.3973089322177L171.72,83.56716014515271L171.99,83.85109829989347L172.26,83.86395413485441L172.53,84.20925950483841L172.8,84.44044846968218L173.07,84.6271674416282L173.34,84.87509158047763L173.61,85.2388017134233L173.88,85.5192484630238L174.15,85.69690254905008L174.42000000000002,85.98970425692472L174.69,86.18319488525391L174.96,86.43182614413175L175.23000000000002,86.6359726784446L175.5,86.94289714466441L175.77,87.19674832430753L176.04000000000002,87.47115017977627L176.31,87.7104219193892L176.58,87.8815351451527L176.85,87.99024011785333L177.12,88.25615653298118L177.39000000000001,88.53626936479048L177.66,88.66387997713954L177.93,88.99983073841443L178.20000000000002,89.23503162730823L178.47,89.37314591841265L178.74,89.57615320379082L179.01000000000002,89.892766196511L179.28,89.98092049338601L179.55,90.0777615633878L179.82000000000002,90.43561831387608L180.09,90.66270205411044L180.36,91.03031607887961L180.63000000000002,91.18458609841086L180.9,91.45712194269355L181.17000000000002,91.72023934104226L181.44,92.05076393821024L181.71,92.3168424016779L181.98000000000002,92.57166587136008L182.25,92.63878825794568L182.52,92.82452511874112L182.79000000000002,92.85581517999823L183.06,93.07289120760831L183.33,93.27036920720882L183.60000000000002,93.37071150346236L183.87,93.56539539683949L184.14000000000001,93.85441597678444L184.41000000000003,94.13749969482421L184.68,94.36433790727094L184.95000000000002,94.6300873635032L185.22000000000003,94.86674177689986L185.49,95.00714929754083L185.76,95.38028769753195L186.02999999999997,95.67380143599078L186.29999999999998,96.00223904696378L186.57,96.13117550936612L186.83999999999997,96.54436440207742L187.10999999999999,96.73624436811969L187.38,96.98983037775213L187.64999999999998,97.26263139204546L187.92,97.59648534601385L188.19,97.8247574407404L188.45999999999998,98.1433051924272L188.73,98.2258369029652L189,98.4180360551314L189.26999999999998,98.6329317959872L189.54,98.90935680042614L189.81,99.19319674405185L190.07999999999998,99.47371715198864L190.35,99.69218777743252L190.61999999999998,99.95152404785156L190.89,100.28023664994673L191.16,100.57079423384234L191.42999999999998,100.74437255859375L191.7,100.98264254483311L191.97,101.18327803178268L192.23999999999998,101.48084788929333L192.51,101.65593866521662L192.78,101.92625493829901L193.04999999999998,101.9708231423118L193.32,102.0303194358132L193.59,102.27479636452415L193.85999999999999,102.54096812855114L194.13,102.88952919699929L194.4,103.21299732555043L194.67,103.45221013849432L194.94,103.77933172052558L195.20999999999998,103.89183255282315L195.48,104.27985484730115L195.75,104.2979256924716L196.01999999999998,104.51791859019886L196.29,104.79804615367543L196.56,104.90089283336293L196.82999999999998,105.25598494096236L197.1,105.4183868408203L197.37,105.64425276322797L197.64,105.89045820756392L197.91,106.32722267844461L198.18,106.49047901500354L198.45,106.89507934570312L198.72,107.03373379794036L198.99,107.25985506924717L199.26,107.59434248490768L199.53,107.86301863236861L199.8,108.15774036754263L200.07,108.56266479492187L200.34,108.95809220747515L200.60999999999999,109.26109313964844L200.88,109.53191028941761L201.15,109.82001259543678L201.42,109.59649391867897L201.69,109.98774735884234L201.96,110.39236733176492L202.23,110.7346036044034L202.5,111.049380049272L202.77,111.29812916148792L203.04,111.68121143687854L203.31,111.88802440296521L203.58,112.25963562011721L203.85,112.5446933815696L204.12,112.5725165904652L204.39000000000001,112.84384443803266L204.66,113.10140308726918L204.93,113.54593605735086L205.2,113.69115101207386L205.47,114.11645424582741L205.74,114.45248357599432L206.01,114.7206981312145L206.28,115.02472045898438L206.55,115.30387573242187L206.82,115.64887173739348L207.09,115.79122874866833L207.36,116.10003395774147L207.63,116.5992705189098L207.9,116.40334916548295L208.17000000000002,116.7568895374645L208.44,117.2104775723544L208.71,117.35153819691052L208.98000000000002,117.69243879838425L209.25,117.62351423783736L209.52,118.07303633256392L209.79000000000002,118.3500800670277L210.06,118.57604420055043L210.33,118.94768488103693L210.6,119.35378784179687L210.87,119.52935003107244L211.14000000000001,119.79031660600141L211.41,119.8770664839311L211.68,119.93886091752485L211.95000000000002,120.30893022017045L212.22,120.58543379350141L212.49,121.03652726606889L212.76000000000002,121.47116055575283L213.03,121.7898359818892L213.3,122.24808904474432L213.57000000000002,122.59353682084516L213.84,122.82743641246448L214.11,123.19983331853692L214.38000000000002,123.30325944380327L214.65,123.64337435635655L214.92000000000002,123.48339827104047L215.19,123.84196705211292L215.46,124.27118890935725L215.73000000000002,124.66583063299005L216,124.8802451393821L216.27,125.09134993119673L216.54000000000002,125.41824562766337L216.81,125.57640480735085L217.08,125.96363159179687L217.35000000000002,126.21060308283025L217.62,126.62619323730469L217.89000000000001,126.8609374445135L218.16000000000003,127.09893243963069L218.43,127.54208063299005L218.70000000000002,127.81066839044745L218.97000000000003,128.19547918146304L219.24,128.46539278897373L219.51,128.97689591841265L219.77999999999997,129.23753839666193L220.04999999999998,129.5767694091797L220.32,129.84114390980113L220.58999999999997,130.24492908824575L220.85999999999999,130.4251366632635L221.13,130.54068204012785L221.39999999999998,131.01069097345524L221.67,131.2378827459162L221.94,131.7541785777699L222.20999999999998,132.22567049893465L222.48,132.51209339488636L222.75,132.7230214066939L223.01999999999998,133.08911315917967L223.29,133.59345669833095L223.56,133.82404657537288L223.82999999999998,134.36877452503552L224.1,134.68207780317826L224.36999999999998,135.04297418767754L224.64,135.39810557972302L224.91,135.73832852450283L225.17999999999998,136.18553283691406L225.45,136.4451833829013L225.72,136.75759293989702L225.98999999999998,136.9190029074929L226.26,137.28953380237925L226.53,137.64035372647373L226.79999999999998,138.07791370738636L227.07,138.46883322975853L227.34,138.91376886541192L227.60999999999999,139.34878517844461L227.88,139.52558482776988L228.15,139.717685768821L228.42,140.11061861905185L228.69,140.31756908069957L228.95999999999998,140.69227394797585L229.23,141.14695212624292L229.5,141.58155595259234L229.76999999999998,141.78243696732955L230.04,142.1380986993963L230.31,142.24815407492898L230.57999999999998,142.6972538618608L230.85,143.06422951438208L231.12,143.15193204012783L231.39,143.4882363614169L231.66,143.77506192294035L231.93,144.1913690185547L232.2,144.65734147505327L232.47,144.95550059925426L232.74,145.25734264026988L233.01,145.43031205610797L233.28,146.0227116810192L233.55,146.31876908735796L233.82,146.57903836337002L234.09,147.0125029407848L234.35999999999999,147.48227616743605L234.63,147.8991921719638L234.9,148.20704473322087L235.17,148.5582967862216L235.44,148.86794661088422L235.71,149.39224664861504L235.98,149.67917042125356L236.25,150.08966341885653L236.52,150.3455623002486L236.79,150.69799288662995L237.06,151.12382646040484L237.33,151.49068425958808L237.6,151.8974157714844L237.87,152.06285239479757L238.14000000000001,152.58774169921875L238.41,152.7015389182351L238.68,153.4099160489169L238.95,153.75676824396308L239.22,154.15562322443182L239.49,154.59898748224433L239.76,155.01078668767758L240.03,155.41112465598366L240.3,155.715038951527L240.57,156.1470107199929L240.84,156.55658053311436L241.11,156.99092901056463L241.38,157.40110773259943L241.65,157.66366532759233L241.92000000000002,158.10173600630327L242.19,158.53838262384588L242.46,158.8969022993608L242.73000000000002,159.47673090154476L243,159.8249384099787L243.27,160.24077409224077L243.54000000000002,156.49680924849076L243.81,160.61223799272017L244.08,161.04293301669034L244.35,161.29445168235085L244.62,161.91655034845525L244.89000000000001,162.279941295277L245.16,162.58581981312145L245.43,162.9646397261186L245.70000000000002,163.49635470303622L245.97,163.65124345259233L246.24,164.21839299982244L246.51000000000002,164.51666997736152L246.78,165.09783425071024L247.05,165.41607754794035L247.32000000000002,165.76336187189276L247.59,166.00706293279475L247.86,166.5153447376598L248.13000000000002,166.64165405273437L248.4,166.95120566628196L248.67000000000002,167.431811578924L248.94,167.74251226251775L249.21,169.16451099742542L249.48000000000002,168.12621326793325L249.75,168.53060735529118L250.02,168.6609433260831L250.29000000000002,168.93454967151987L250.56,169.33710721102628L250.83,169.63689663973722L251.10000000000002,169.99814658425072L251.37,170.45782370827413L251.64000000000001,171.07227172851563L251.91000000000003,171.4393750554865L252.18,171.96407775878907L252.45000000000002,172.5115359774503L252.72000000000003,172.82836503462357L252.99,173.220590764826" style="fill: none;" fill="none"></path></g></g></g></g></g></g><g transform="translate(60, 177)" clip-path="url(#clip_1)"><clipPath id="clip_1"><rect width="270" height="23"></rect></clipPath><g><g><line x1="0" y1="0" x2="0" y2="5" style="visibility: inherit;" fill="rgb(0, 0, 0)" stroke="rgb(204, 204, 204)" stroke-width="1px"></line><line x1="27" y1="0" x2="27" y2="5" style="visibility: inherit;" fill="rgb(0, 0, 0)" stroke="rgb(204, 204, 204)" stroke-width="1px"></line><line x1="54" y1="0" x2="54" y2="5" style="visibility: inherit;" fill="rgb(0, 0, 0)" stroke="rgb(204, 204, 204)" stroke-width="1px"></line><line x1="81" y1="0" x2="81" y2="5" style="visibility: inherit;" fill="rgb(0, 0, 0)" stroke="rgb(204, 204, 204)" stroke-width="1px"></line><line x1="108" y1="0" x2="108" y2="5" style="visibility: inherit;" fill="rgb(0, 0, 0)" stroke="rgb(204, 204, 204)" stroke-width="1px"></line><line x1="135" y1="0" x2="135" y2="5" style="visibility: inherit;" fill="rgb(0, 0, 0)" stroke="rgb(204, 204, 204)" stroke-width="1px"></line><line x1="162" y1="0" x2="162" y2="5" style="visibility: inherit;" fill="rgb(0, 0, 0)" stroke="rgb(204, 204, 204)" stroke-width="1px"></line><line x1="189" y1="0" x2="189" y2="5" style="visibility: inherit;" fill="rgb(0, 0, 0)" stroke="rgb(204, 204, 204)" stroke-width="1px"></line><line x1="216" y1="0" x2="216" y2="5" style="visibility: inherit;" fill="rgb(0, 0, 0)" stroke="rgb(204, 204, 204)" stroke-width="1px"></line><line x1="243" y1="0" x2="243" y2="5" style="visibility: inherit;" fill="rgb(0, 0, 0)" stroke="rgb(204, 204, 204)" stroke-width="1px"></line><line x1="270" y1="0" x2="270" y2="5" style="visibility: inherit;" fill="rgb(0, 0, 0)" stroke="rgb(204, 204, 204)" stroke-width="1px"></line></g><g transform="translate(0, 8)"><text x="0" y="0" dx="0em" dy="0.95em" style="text-anchor: middle; visibility: hidden; font-family: Roboto, sans-serif; font-size: 12px; font-weight: 200;" fill="rgb(33, 33, 33)" stroke="none" stroke-width="1px">-100</text><text x="27" y="0" dx="0em" dy="0.95em" style="text-anchor: middle; visibility: inherit; font-family: Roboto, sans-serif; font-size: 12px; font-weight: 200;" fill="rgb(33, 33, 33)" stroke="none" stroke-width="1px">0</text><text x="54" y="0" dx="0em" dy="0.95em" style="text-anchor: middle; visibility: inherit; font-family: Roboto, sans-serif; font-size: 12px; font-weight: 200;" fill="rgb(33, 33, 33)" stroke="none" stroke-width="1px">100</text><text x="81" y="0" dx="0em" dy="0.95em" style="text-anchor: middle; visibility: inherit; font-family: Roboto, sans-serif; font-size: 12px; font-weight: 200;" fill="rgb(33, 33, 33)" stroke="none" stroke-width="1px">200</text><text x="108" y="0" dx="0em" dy="0.95em" style="text-anchor: middle; visibility: inherit; font-family: Roboto, sans-serif; font-size: 12px; font-weight: 200;" fill="rgb(33, 33, 33)" stroke="none" stroke-width="1px">300</text><text x="135" y="0" dx="0em" dy="0.95em" style="text-anchor: middle; visibility: inherit; font-family: Roboto, sans-serif; font-size: 12px; font-weight: 200;" fill="rgb(33, 33, 33)" stroke="none" stroke-width="1px">400</text><text x="162" y="0" dx="0em" dy="0.95em" style="text-anchor: middle; visibility: inherit; font-family: Roboto, sans-serif; font-size: 12px; font-weight: 200;" fill="rgb(33, 33, 33)" stroke="none" stroke-width="1px">500</text><text x="189" y="0" dx="0em" dy="0.95em" style="text-anchor: middle; visibility: inherit; font-family: Roboto, sans-serif; font-size: 12px; font-weight: 200;" fill="rgb(33, 33, 33)" stroke="none" stroke-width="1px">600</text><text x="216" y="0" dx="0em" dy="0.95em" style="text-anchor: middle; visibility: inherit; font-family: Roboto, sans-serif; font-size: 12px; font-weight: 200;" fill="rgb(33, 33, 33)" stroke="none" stroke-width="1px">700</text><text x="243" y="0" dx="0em" dy="0.95em" style="text-anchor: middle; visibility: inherit; font-family: Roboto, sans-serif; font-size: 12px; font-weight: 200;" fill="rgb(33, 33, 33)" stroke="none" stroke-width="1px">800</text><text x="270" y="0" dx="0em" dy="0.95em" style="text-anchor: middle; visibility: hidden; font-family: Roboto, sans-serif; font-size: 12px; font-weight: 200;" fill="rgb(33, 33, 33)" stroke="none" stroke-width="1px">900</text></g><line x1="0" y1="0" x2="270" y2="0" fill="rgb(0, 0, 0)" stroke="rgb(204, 204, 204)" stroke-width="1px"></line></g></g></g></g></svg>