<svg viewBox="0 0 330 200" xmlns="http://www.w3.org/2000/svg"><g><g><g><g><g><line x1="50" y1="177" x2="45" y2="177" style="visibility: inherit;" fill="rgb(0, 0, 0)" stroke="rgb(204, 204, 204)" stroke-width="1px"></line><line x1="50" y1="151.71428571428572" x2="45" y2="151.71428571428572" style="visibility: inherit;" fill="rgb(0, 0, 0)" stroke="rgb(204, 204, 204)" stroke-width="1px"></line><line x1="50" y1="126.42857142857143" x2="45" y2="126.42857142857143" style="visibility: inherit;" fill="rgb(0, 0, 0)" stroke="rgb(204, 204, 204)" stroke-width="1px"></line><line x1="50" y1="101.14285714285714" x2="45" y2="101.14285714285714" style="visibility: inherit;" fill="rgb(0, 0, 0)" stroke="rgb(204, 204, 204)" stroke-width="1px"></line><line x1="50" y1="75.85714285714286" x2="45" y2="75.85714285714286" style="visibility: inherit;" fill="rgb(0, 0, 0)" stroke="rgb(204, 204, 204)" stroke-width="1px"></line><line x1="50" y1="50.57142857142857" x2="45" y2="50.57142857142857" style="visibility: inherit;" fill="rgb(0, 0, 0)" stroke="rgb(204, 204, 204)" stroke-width="1px"></line><line x1="50" y1="25.285714285714295" x2="45" y2="25.285714285714295" style="visibility: inherit;" fill="rgb(0, 0, 0)" stroke="rgb(204, 204, 204)" stroke-width="1px"></line><line x1="50" y1="0" x2="45" y2="0" style="visibility: inherit;" fill="rgb(0, 0, 0)" stroke="rgb(204, 204, 204)" stroke-width="1px"></line></g><g transform="translate(40, 0)"><text x="0" y="177" dx="0em" dy="0.3em" style="text-anchor: end; visibility: hidden; font-family: Roboto, sans-serif; font-size: 12px; font-weight: 200;" fill="rgb(33, 33, 33)" stroke="none" stroke-width="1px">-300</text><text x="0" y="151.71428571428572" dx="0em" dy="0.3em" style="text-anchor: end; visibility: inherit; font-family: Roboto, sans-serif; font-size: 12px; font-weight: 200;" fill="rgb(33, 33, 33)" stroke="none" stroke-width="1px">-250</text><text x="0" y="126.42857142857143" dx="0em" dy="0.3em" style="text-anchor: end; visibility: inherit; font-family: Roboto, sans-serif; font-size: 12px; font-weight: 200;" fill="rgb(33, 33, 33)" stroke="none" stroke-width="1px">-200</text><text x="0" y="101.14285714285714" dx="0em" dy="0.3em" style="text-anchor: end; visibility: inherit; font-family: Roboto, sans-serif; font-size: 12px; font-weight: 200;" fill="rgb(33, 33, 33)" stroke="none" stroke-width="1px">-150</text><text x="0" y="75.85714285714286" dx="0em" dy="0.3em" style="text-anchor: end; visibility: inherit; font-family: Roboto, sans-serif; font-size: 12px; font-weight: 200;" fill="rgb(33, 33, 33)" stroke="none" stroke-width="1px">-100</text><text x="0" y="50.57142857142857" dx="0em" dy="0.3em" style="text-anchor: end; visibility: inherit; font-family: Roboto, sans-serif; font-size: 12px; font-weight: 200;" fill="rgb(33, 33, 33)" stroke="none" stroke-width="1px">-50</text><text x="0" y="25.285714285714295" dx="0em" dy="0.3em" style="text-anchor: end; visibility: inherit; font-family: Roboto, sans-serif; font-size: 12px; font-weight: 200;" fill="rgb(33, 33, 33)" stroke="none" stroke-width="1px">0</text><text x="0" y="0" dx="0em" dy="0.3em" style="text-anchor: end; visibility: hidden; font-family: Roboto, sans-serif; font-size: 12px; font-weight: 200;" fill="rgb(33, 33, 33)" stroke="none" stroke-width="1px">50</text></g><line x1="50" y1="0" x2="50" y2="177" fill="rgb(0, 0, 0)" stroke="rgb(204, 204, 204)" stroke-width="1px"></line></g></g><g transform="translate(50, 0)" clip-path="url(#clip_0)"><clipPath id="clip_0"><rect width="280" height="177"></rect></clipPath><g><g><g><line x1="0" y1="0" x2="0" y2="177" fill="rgb(0, 0, 0)" stroke="rgb(66, 66, 66)" stroke-width="1px" opacity="0.25"></line><line x1="28" y1="0" x2="28" y2="177" fill="rgb(0, 0, 0)" stroke="rgb(66, 66, 66)" stroke-width="1px" opacity="0.25"></line><line x1="56" y1="0" x2="56" y2="177" fill="rgb(0, 0, 0)" stroke="rgb(66, 66, 66)" stroke-width="1px" opacity="0.25"></line><line x1="84" y1="0" x2="84" y2="177" fill="rgb(0, 0, 0)" stroke="rgb(66, 66, 66)" stroke-width="1px" opacity="0.25"></line><line x1="112" y1="0" x2="112" y2="177" fill="rgb(0, 0, 0)" stroke="rgb(66, 66, 66)" stroke-width="1px" opacity="0.25"></line><line x1="140" y1="0" x2="140" y2="177" fill="rgb(0, 0, 0)" stroke="rgb(66, 66, 66)" stroke-width="1px" opacity="0.25"></line><line x1="168" y1="0" x2="168" y2="177" fill="rgb(0, 0, 0)" stroke="rgb(66, 66, 66)" stroke-width="1px" opacity="0.25"></line><line x1="196" y1="0" x2="196" y2="177" fill="rgb(0, 0, 0)" stroke="rgb(66, 66, 66)" stroke-width="1px" opacity="0.25"></line><line x1="224" y1="0" x2="224" y2="177" fill="rgb(0, 0, 0)" stroke="rgb(66, 66, 66)" stroke-width="1px" opacity="0.25"></line><line x1="252" y1="0" x2="252" y2="177" fill="rgb(0, 0, 0)" stroke="rgb(66, 66, 66)" stroke-width="1px" opacity="0.25"></line><line x1="280" y1="0" x2="280" y2="177" fill="rgb(0, 0, 0)" stroke="rgb(66, 66, 66)" stroke-width="1px" opacity="0.25"></line></g><g><line x1="0" y1="177" x2="280" y2="177" fill="rgb(0, 0, 0)" stroke="rgb(66, 66, 66)" stroke-width="1px" opacity="0.25"></line><line x1="0" y1="151.71428571428572" x2="280" y2="151.71428571428572" fill="rgb(0, 0, 0)" stroke="rgb(66, 66, 66)" stroke-width="1px" opacity="0.25"></line><line x1="0" y1="126.42857142857143" x2="280" y2="126.42857142857143" fill="rgb(0, 0, 0)" stroke="rgb(66, 66, 66)" stroke-width="1px" opacity="0.25"></line><line x1="0" y1="101.14285714285714" x2="280" y2="101.14285714285714" fill="rgb(0, 0, 0)" stroke="rgb(66, 66, 66)" stroke-width="1px" opacity="0.25"></line><line x1="0" y1="75.85714285714286" x2="280" y2="75.85714285714286" fill="rgb(0, 0, 0)" stroke="rgb(66, 66, 66)" stroke-width="1px" opacity="0.25"></line><line x1="0" y1="50.57142857142857" x2="280" y2="50.57142857142857" fill="rgb(0, 0, 0)" stroke="rgb(66, 66, 66)" stroke-width="1px" opacity="0.25"></line><line x1="0" y1="25.285714285714295" x2="280" y2="25.285714285714295" fill="rgb(0, 0, 0)" stroke="rgb(66, 66, 66)" stroke-width="1px" opacity="0.25"></line><line x1="0" y1="0" x2="280" y2="0" fill="rgb(0, 0, 0)" stroke="rgb(66, 66, 66)" stroke-width="1px" opacity="0.25"></line></g></g></g><g><g><line x1="0" y1="25.285714285714295" x2="280" y2="25.285714285714295" fill="rgb(0, 0, 0)" stroke="rgb(153, 153, 153)" stroke-width="1.5px"></line></g></g><g><g><line x1="28" y1="0" x2="28" y2="177" fill="rgb(0, 0, 0)" stroke="rgb(153, 153, 153)" stroke-width="1.5px"></line></g></g><g><g><g><g><g><path stroke="rgb(255, 112, 67)" stroke-width="2px" d="M28.28,25.344883188051835L28.56,25.255095078063427L28.84,25.237069401950066L29.119999999999997,25.215496591527696L29.4,25.21635322880151L29.68,25.217351105692156L29.96,25.201339791334252L30.24,25.197914107123804L30.52,25.1914362741446L30.8,25.200568097307944L31.080000000000002,25.264169287821755L31.36,25.310208450812393L31.64,25.322884861604262L31.92,25.342072241329856L32.2,25.365251317683924L32.480000000000004,25.37790027881891L32.760000000000005,25.339165591615668L33.04,25.34583787355629L33.32,24.977626955444283L33.6,24.765150193284313L33.879999999999995,24.466340290970408L34.16,24.425365976353124L34.44,24.428076627960248L34.72,24.23875393890362L35,23.943610540057524L35.28,23.764063336798177L35.56,23.722288622844957L35.84,23.542217341476466L36.120000000000005,23.543993992440342L36.4,23.49912426319276L36.68,23.518247743198167L36.96,23.46095589729551L37.24,23.335660138091086L37.52,23.29436911887902L37.800000000000004,23.245470760127272L38.080000000000005,23.077840407918348L38.36,22.860161901331978L38.64,23.025359676104625L38.92,22.951534479868258L39.2,22.918824014649246L39.48,22.86105293333107L39.76,23.273694294720034L40.04,23.037482020236354L40.32,22.84138599484832L40.599999999999994,23.218706031281688L40.879999999999995,22.959050966571265L41.16,22.78075185130217L41.44,22.70129082382217L41.72,23.041264061879257L42,22.788320808794108L42.28,22.727252407818348L42.56,22.766518806953563L42.839999999999996,23.051407285806583L43.12,23.227524857205495L43.4,23.417846330505853L43.68,23.530622272278613L43.96,23.30219857482743L44.24,23.237822394042087L44.52,23.32341943715565L44.800000000000004,23.456754208460563L45.08,23.628410646389874L45.36,23.747723048495423L45.64,23.632916241129315L45.92,23.734724204808472L46.2,23.926085227574447L46.480000000000004,23.96703470833158L46.760000000000005,23.812421666583674L47.040000000000006,23.749750105137558L47.32,23.885314346358545L47.6,23.847955379596726L47.88,24.00635958116015L48.16,24.035076544515817L48.44,23.959348122893978L48.72,23.937460494206906L49,24.022111551452582L49.279999999999994,24.09416851522179L49.559999999999995,24.164003009559437L49.839999999999996,23.993170958913588L50.12,24.114191587168325L50.4,24.140167652954638L50.68,24.490279891802512L50.96,24.42883419125274L51.24,24.244018900213852L51.519999999999996,24.1192448357188L51.8,24.13375379720491L52.08,24.384858558823034L52.36,24.195863580671322L52.64,24.112957113685095L52.92,24.676837495111684L53.2,24.713561289094944L53.480000000000004,24.833971224495695L53.76,24.667761384873554L54.04,24.33895101042269L54.32,24.01478966063447L54.6,24.33305699512067L54.88,23.98349780385767L55.160000000000004,24.3919892308327L55.440000000000005,23.945632405927253L55.720000000000006,24.302229695383666L56,23.93016940460785L56.28,24.331339703032093L56.56,24.396598010747844L56.84,24.8936953436597L57.12,24.888085280359935L57.4,24.751687397523163L57.68,24.065245112793086L57.959999999999994,24.264114622087114L58.239999999999995,24.130700178916012L58.519999999999996,24.25068686367274L58.8,24.41371268221933L59.08,23.84858470111217L59.36,23.561351831225576L59.64,23.384965590002356L59.92,23.922471561125114L60.199999999999996,23.462547570532294L60.48,26.119703811427406L60.76,25.874151890690346L61.04,25.040517677834963L61.32,24.567857099447885L61.6,24.938839592404335L61.88,24.052919164300604L62.160000000000004,23.589216719665195L62.44,23.743368613785936L62.72,23.822697390359053L63,23.531456644495126L63.28,23.47594245335001L63.56,23.409218845534827L63.84,23.615406616406982L64.12,23.67935110008624L64.4,23.744228627342707L64.68,23.745839205388474L64.96000000000001,24.22000341244984L65.24000000000001,24.765768488624484L65.52000000000001,24.52074090120718L65.8,24.076081916489777L66.08,23.276022114571326L66.36,23.447670376028842L66.64,23.34085227961703L66.92,23.819151714900464L67.2,24.074832114208306L67.48,25.03796292358352L67.75999999999999,24.639645243295483L68.03999999999999,23.890227190114032L68.32,23.72782401262114L68.6,23.143876557590495L68.88,24.161836954160055L69.16,25.404748238210008L69.44,27.063090275493426L69.72,28.524332292464873L70,29.66701155673018L70.28,30.820654675183984L70.56,32.04449678354755L70.84,32.60813636429252L71.12,33.66794284093322L71.4,34.64493765556373L71.68,35.03750533113727L71.96000000000001,35.33250380455746L72.24000000000001,35.70905190861541L72.52,35.10813931495491L72.8,35.982168820729676L73.08,36.71806017988072L73.36,38.534221357712084L73.64,38.35743539357308L73.92,37.037823839611946L74.2,35.939032701495L74.48,35.50149749654637L74.76,36.08241983764327L75.04,36.66023813212027L75.32000000000001,36.912882717165125L75.60000000000001,37.5387289646209L75.88000000000001,38.04537054092067L76.16000000000001,36.91083729972185L76.44000000000001,37.9775941805582L76.72,37.76279436312017L77,38.541467505380815L77.28,37.16709000883877L77.56,38.60155250109448L77.84,40.38055523932473L78.12,39.62337302969439L78.4,40.84422682351586L78.68,39.59152154790737L78.96,42.51187782251786L79.24,44.88966560693918L79.52,41.54279973708578L79.8,39.81629572970481L80.08,42.99218018988177L80.36,44.70263033482948L80.64,42.046834261450904L80.91999999999999,44.31724767407388L81.19999999999999,45.55648340407868L81.47999999999999,41.1762609810654L81.75999999999999,42.75198770827065L82.03999999999999,43.537404904338665L82.32,41.978460549558555L82.6,40.760678773054195L82.88,40.88189227996392L83.16,44.22013461860299L83.44,47.78035436272267L83.72,44.690870307259765L84,44.92585685839393L84.28,48.21809504843795L84.56,46.096975810511395L84.84,48.746936128566915L85.12,45.88901818996585L85.39999999999999,50.40133406501828L85.67999999999999,47.55639474443172L85.96,46.08840486915527L86.24,51.216462909541654L86.52,51.320739184990124L86.8,46.15297083859719L87.08,43.82765052367519L87.36,41.70016666691209L87.64,45.604858834763036L87.92,42.09962700301234L88.2,38.29377044237555L88.48,42.53411809027526L88.76,46.49250820381813L89.04,40.27006709121563L89.32000000000001,41.2397201988858L89.60000000000001,38.54787753896053L89.88,37.58383539496651L90.16,37.923056921077325L90.44,37.549662841147715L90.72,47.54592721645932L91,42.9652563329439L91.28,39.42849729633952L91.56,49.65240917375615L91.84,42.13942211413809L92.12,37.45521230103984L92.4,47.19251208111104L92.68,41.97682017116352L92.96000000000001,43.10821318647992L93.24000000000001,47.25913511826977L93.52000000000001,49.197133403590136L93.80000000000001,48.87063926314253L94.08000000000001,46.16938574063435L94.36,46.89385741444068L94.64,50.91770929266039L94.92,41.56177949345571L95.2,36.518756734825196L95.48,50.649043206350186L95.76,39.60155702793617L96.04,51.419706114487745L96.32,38.95182302988414L96.6,42.21047751306765L96.88,50.39829926940678L97.16,53.794725955959294L97.44,46.1046036327015L97.72,41.968040605313384L98,60.48072930114687L98.28,54.35439255097977L98.55999999999999,53.964759131741054L98.83999999999999,42.54418165681313L99.11999999999999,52.13069896977383L99.39999999999999,57.34372239634155L99.67999999999999,51.329482308346485L99.96,44.076812875186704L100.24,55.59563847843972L100.52,56.78440588574178L100.8,54.91487938543228L101.08,44.121877642101666L101.36,38.93053985176328L101.64,51.58705578569592L101.92,48.999612882376056L102.2,47.629361214530306L102.48,49.26878143193244L102.75999999999999,57.327105696585896L103.03999999999999,51.4074995206789L103.32,50.81397946615482L103.6,40.76181618955314L103.88,50.33942529886895L104.16,60.711534034178605L104.44,57.74817639301561L104.72,63.19860047227548L105,48.28979175765076L105.28,57.131219577399165L105.56,67.15218847363484L105.84,61.10922216156355L106.12,49.482420762050154L106.4,43.29721969104147L106.68,48.4470759852958L106.96000000000001,61.297662649212086L107.24000000000001,51.03408991293487L107.52,51.72684942667089L107.8,59.705712992326454L108.08,63.72585565068052L108.36,63.307104815586015L108.64,54.11152447759803L108.92,48.38299369793803L109.2,55.7318984186588L109.48,50.07125639156976L109.76,55.0597313474723L110.04,72.0255833475606L110.32000000000001,51.6870683623554L110.60000000000001,62.606988051912516L110.88000000000001,63.08105181154809L111.16000000000001,52.77884864227007L111.44000000000001,69.20983474473378L111.72,56.15036938080787L112,50.69125509943472L112.28,53.60313066509891L112.56,58.43915432350211L112.84,56.721610870779685L113.12,72.33462938690143L113.4,76.76028031062512L113.68,79.65334339684873L113.96,55.43446180527909L114.24,57.86730872691477L114.52,58.31115777153363L114.8,63.708767805706394L115.08,71.28770788131666L115.36,83.20286661530474L115.64,81.61754531001985L115.91999999999999,55.25120016076738L116.19999999999999,67.51543671613251L116.47999999999999,75.25446988326503L116.75999999999999,84.70509561440943L117.03999999999999,66.56076821837684L117.32,53.62582570820997L117.6,66.71485437175691L117.88,45.926930030890674L118.16,56.723670235064276L118.44,46.325537909789226L118.72,54.738034118084805L119,68.45190578618647L119.28,68.62454480694755L119.56,75.31906296130357L119.84,71.64342062562004L120.12,48.14733976418438L120.39999999999999,57.41213411599195L120.67999999999999,70.5811022696127L120.96,69.79049218829013L121.24,70.15457160825126L121.52,77.7059415917594L121.8,58.200114480358586L122.08,61.68611972440142L122.36,52.17133569558382L122.64,45.34460397506853L122.92,60.12260221435707L123.2,74.75738681497013L123.48,71.44193682947086L123.76,73.62236220852351L124.04,51.535954776218915L124.32000000000001,55.43783108882357L124.60000000000001,67.76841048929091L124.88,78.14730328841566L125.16,72.45904323871498L125.44,81.83137100394205L125.72,86.48079173064362L126,92.82256050713336L126.28,86.18011472612564L126.56,81.76929840967797L126.84,82.40015012838968L127.12,60.26321313581954L127.4,48.50463401596379L127.68,53.60668577647082L127.96000000000001,68.13409758939541L128.24,60.44488758067925L128.52,61.207662872868376L128.8,76.34349333646969L129.08,84.71273773334595L129.36,84.50941042030752L129.64000000000001,78.06704379523401L129.92000000000002,75.02700143842125L130.20000000000002,74.04173021156723L130.48000000000002,67.2394930484636L130.76000000000002,82.36460918793546L131.04000000000002,69.1548736959742L131.32,69.61416498248136L131.6,66.94841793235236L131.88,61.69392539436844L132.16,64.50717885504368L132.44,67.4856245120167L132.72,66.63789354158908L133,67.75776747993548L133.28,77.81151070298722L133.56,65.66311463049476L133.84,49.25963265630174L134.12,39.680776289757304L134.4,34.47992126972513L134.68,64.13893399747805L134.96,44.22294696129881L135.24,44.19685099025763L135.51999999999998,34.90349256221441L135.79999999999998,44.368527284346456L136.07999999999998,30.760021375708956L136.35999999999999,39.95995579484689L136.64,47.031051589562L136.92,43.80591868762136L137.2,41.45533917560579L137.48,30.425037753063744L137.76,53.750100354946966L138.04,74.48077546163714L138.32,79.76728409245086L138.6,85.94062965050747L138.88,76.94828488896702L139.16,77.08893305506977L139.44,61.98369474918315L139.72,64.42395741982635L140,85.25260088286326L140.28,101.40333691081882L140.56,87.78975098603651L140.84,85.93821944200795L141.12,62.72051937961952L141.4,75.2152340422459L141.68,56.787195285952244L141.96,79.15289166030232L142.24,79.2860648275592L142.52,80.81163497079397L142.8,90.11660846466778L143.08,84.92858421831251L143.36,88.28367083174795L143.64000000000001,92.1646241366384L143.92000000000002,95.47537668414348L144.20000000000002,97.45664167653587L144.48000000000002,74.70282943212231L144.76,77.51124230079736L145.04,76.0282672505999L145.32,76.84039732410659L145.6,90.02125782923855L145.88,90.05961508543398L146.16,58.580898909061894L146.44,69.41434915355482L146.72,72.7206754130851L147,49.087265072291515L147.28,71.97613257391971L147.56,70.3006947873501L147.84,73.6645254949187L148.12,73.84928982613565L148.4,71.47194105417758L148.68,67.95240858087321L148.96,64.62914755133978L149.24,60.28234045821174L149.52,45.67430155975449L149.8,52.228223111295556L150.08,87.20928304214823L150.36,75.49354272669946L150.64000000000001,87.96548778847524L150.92000000000002,96.30813246557634L151.20000000000002,95.92713779672022L151.48000000000002,100.03847670730791L151.76000000000002,92.03963627786706L152.04000000000002,91.96775028273865L152.32000000000002,92.09538107475846L152.60000000000002,96.30458619598379L152.88000000000002,97.54803284786021L153.16000000000003,94.54098878568644L153.44,68.74527690136247L153.72,91.65006168541606L154,89.66652326293979L154.28,96.65016270219743L154.56,85.42520416429446L154.84,87.02742053136502L155.12,95.84553554572946L155.4,67.9205099848954L155.68,80.614306026409L155.96,91.02459012424607L156.24,101.8824064935142L156.52,76.67906093822059L156.8,113.6790077676738L157.08,108.24551841419037L157.36,94.64333375646157L157.64,106.96875077573726L157.92,74.32568170744308L158.2,76.50716727735144L158.48,78.83560268874284L158.76,88.16399233927349L159.04,96.56849542211418L159.32,73.11791874952169L159.6,97.1744288407111L159.88,92.08565143815751L160.16,89.60616177727829L160.44,86.749680808755L160.72,90.76310720693654L161,92.36279568622307L161.28,89.79519658607707L161.56,87.8511414721094L161.83999999999997,90.41072444579822L162.11999999999998,91.40529153463872L162.39999999999998,130.4906639445523L162.67999999999998,116.9984470508324L162.95999999999998,104.25532442792839L163.23999999999998,97.05909610556408L163.51999999999998,97.28777692662322L163.79999999999998,92.11638862377487L164.07999999999998,93.89061506008836L164.35999999999999,81.53281057831627L164.64,76.95582381238741L164.92,74.93284337616355L165.2,78.97293390228474L165.48,71.00098951381418L165.76,70.47342707159743L166.04,80.74205033894941L166.32,86.73133900688985L166.6,92.87463963598229L166.88,81.3547222298514L167.16,92.63132509774819L167.44,91.28903744647636L167.72,80.01085249602374L168,86.27741469162655L168.28,69.15436467982437L168.56,87.64690438518278L168.84,83.82916024751044L169.12,94.09613417831481L169.4,99.76848388544691L169.68,78.19426464952002L169.96,76.27223852316337L170.24,72.4290532549802L170.51999999999998,89.42341424950935L170.79999999999998,94.74237732101717L171.07999999999998,90.68497145734746L171.35999999999999,93.85020500994122L171.64,90.45757316836699L171.92,85.31808955424727L172.2,89.63352696441393L172.48,95.56478567467607L172.76,97.34084895819764L173.04,83.13844498435093L173.32,77.74181880885467L173.6,87.99401179622943L173.88,94.1947609526777L174.16,90.48237408406428L174.44,87.8572437173518L174.72,119.46921680277741L175,102.6068145461775L175.28,102.48075891696992L175.56,103.99094211868818L175.84,117.61052516259956L176.12,120.57807320313437L176.4,109.05022352600932L176.68,113.52846845869226L176.96,105.23010718389943L177.24,87.33634740345695L177.52,98.18874086324628L177.8,103.56997459459117L178.08,113.88392183383029L178.36,114.23447291246451L178.64000000000001,106.49131408412441L178.92000000000002,94.2793505565851L179.20000000000002,103.2611785561653L179.48000000000002,103.22072274736445L179.76,95.31270227952237L180.04,105.7213703848494L180.32,107.55700979599222L180.6,97.7448950241615L180.88,97.7972437663586L181.16,110.11245182407568L181.44,116.89517532519346L181.72,108.59454064594212L182,104.32298780999703L182.28,96.9755635244797L182.56,88.218699338533L182.84,81.40439635065214L183.12,109.69184009926992L183.4,91.07142869523085L183.68,97.94253789919861L183.96,105.29978604407881L184.24,112.81440126384732L184.52,114.66042775457785L184.8,112.58463497423314L185.08,111.99462353063026L185.36,110.78937343235631L185.64000000000001,108.50443883326278L185.92000000000002,135.0401473116002L186.20000000000002,128.78420581520174L186.48000000000002,98.68135458807903L186.76000000000002,108.98576028005331L187.04000000000002,109.50770279540451L187.32000000000002,90.83391740952551L187.60000000000002,92.01903859452693L187.88000000000002,106.28086819833928L188.16000000000003,114.14151355856053L188.44,96.05705080603181L188.72,109.16170384240665L189,127.28674566602021L189.28,131.57164592992427L189.56,121.61871110816999L189.84,130.71761396988677L190.12,130.30254375094827L190.4,126.02197187158686L190.68,131.07506738633901L190.96,116.32149435311727L191.24,120.12747398744911L191.52,111.43333153485746L191.8,96.48997087120064L192.08,98.43505839515602L192.36,101.63167854488962L192.64,94.67762559515621L192.92,94.60872658877811L193.2,81.0625512085586L193.48,94.66848589184332L193.76,113.44852537999738L194.04,109.01892617332408L194.32,107.86365911152362L194.6,111.12216349413067L194.88,108.72681532805285L195.16,86.8605052533721L195.44,88.476287208595L195.72,118.43125419779976L196,141.24782349982016L196.28,139.80561509490647L196.56,135.8650034361259L196.83999999999997,134.0667584274105L197.11999999999998,135.74236793275568L197.39999999999998,117.23448873993249L197.67999999999998,115.54225961909526L197.95999999999998,85.15305240322698L198.23999999999998,103.71849234872936L198.51999999999998,116.99912963043525L198.79999999999998,112.5343864354491L199.07999999999998,112.63876326367682L199.35999999999999,111.56298261558295L199.64,128.68197640653167L199.92,123.68515782347238L200.2,150.97101508996903L200.48,125.76666507474148L200.76,90.60175244775228L201.04,85.08787297414257L201.32,103.23153411117468L201.6,111.46707648362556L201.88,111.77572578850535L202.16,134.59945973424155L202.44,126.7319655601315L202.72,141.13472889930406L203,153.837033134781L203.28,139.36115723706155L203.56,143.71219325322738L203.84,127.68913064234788L204.12,123.46672472671062L204.4,126.51449122870427L204.68,105.85505791032689L204.96,114.68935327185213L205.24,113.16318591815997L205.51999999999998,112.61167726198559L205.79999999999998,121.28354354900036L206.07999999999998,119.1522508346543L206.35999999999999,123.42460947559388L206.64,116.48364873394945L206.92,130.76264129394167L207.2,121.96154491537197L207.48,130.6384695948327L207.76,129.83880364522818L208.04,124.78723178781776L208.32,118.7351088416072L208.6,130.73039071454423L208.88,139.5095627139737L209.16,139.56395826974847L209.44,125.1106412801799L209.72,148.42408899024713L210,141.83766201014055L210.28,129.85042276368827L210.56,139.73153418561122L210.84,139.28714126145087L211.12,136.88382024306384L211.4,143.1445801299088L211.68,128.11376646805482L211.96,135.0347342260559L212.24,129.69385465469193L212.52,124.14708188277241L212.8,132.82804449310416L213.08,137.283466883624L213.36,133.3449131798751L213.64000000000001,137.67788069756406L213.92000000000002,131.47301904950788L214.20000000000002,125.46028924865705L214.48000000000002,125.2873646601387L214.76,135.52515682053777L215.04,132.37451025761715L215.32,178.994295585077L215.6,162.33516072711953L215.88,152.8727992728566L216.16,134.86985511267787L216.44,117.60335426238711L216.72,83.00377565477837L217,123.83652369204722L217.28,108.02374281512127L217.56,106.64294434561529L217.84,109.4402817433137L218.12,116.70202075317492L218.4,114.14551297078042L218.68,113.32512368537503L218.96,167.36810937777895L219.24,154.88753499865487L219.52,143.7554199361867L219.8,112.98334789388184L220.08,101.56475119708978L220.36,106.50238575920544L220.64000000000001,70.61556151589454L220.92000000000002,92.2102105499281L221.20000000000002,99.19380599126394L221.48000000000002,99.57901586210905L221.76000000000002,105.36446640817393L222.04000000000002,122.26474001271917L222.32000000000002,79.97135409320019L222.60000000000002,146.31513493203553L222.88000000000002,137.97236093614285L223.16000000000003,126.45600667674964L223.44,124.04479642112857L223.72,128.76815436499132L224,113.556245933858L224.28,116.01046905608604L224.56,129.6117358594996L224.84,113.34744463215182L225.12,117.62080856921001L225.4,123.41194378885751L225.68,136.68480168817464L225.96,121.29089563622135L226.24,133.10581357542216L226.52,127.66382946965479L226.8,133.0364291102138L227.08,139.74706523552544L227.36,140.82748724557592L227.64,126.98114987579099L227.92,134.75878802330195L228.2,134.6290205673179L228.48,137.0495446570589L228.76,133.26665812959473L229.04,125.29463088670846L229.32,137.58804554713748L229.6,130.2635162598463L229.88,109.55698797311673L230.16,132.98150591398945L230.44,132.27961223961606L230.72,124.27243152587266L231,121.7319811484761L231.28,143.63220366260936L231.56,133.08427082085151L231.83999999999997,134.0649893117758L232.11999999999998,117.94511781684443L232.39999999999998,140.13722460181268L232.67999999999998,143.61144273741803L232.95999999999998,147.09398639812258L233.23999999999998,147.3700427861197L233.51999999999998,148.25153617177332L233.79999999999998,149.01008922505875L234.07999999999998,158.79059148631626L234.35999999999999,149.7350070427505L234.64,148.6425627861142L234.92,160.46597829610084L235.2,138.2530872993519L235.48,133.45409935492637L235.76,164.32527886043226L236.04,184.5612654454828L236.32,209.1285210338832L236.6,171.2324559515702L236.88,162.54940798906873L237.16,143.0590970580546L237.44,138.27903480194064L237.72,153.86610373316984L238,149.37807897752063L238.28,152.42005143103395L238.56,158.34891364424925L238.84,159.88799208440693L239.12,138.30031798629116L239.4,199.31386610621962L239.96,190.634036851037L240.24,165.20043349568658L240.51999999999998,144.14777677099363L240.79999999999998,97.27482188722529L241.07999999999998,68.3174804718287L241.35999999999999,56.04481090247981L241.64,95.62400904233638L241.92,140.57018411607743L242.2,144.63161121190046L242.48,159.79590814268823L242.76,155.36566871857286L243.04,143.6180892166378L243.32,159.07237411028558L243.6,156.53964655604273L243.88,178.1330521466422L244.16,120.95629625408877L244.44,118.38006247288509L244.72,124.88110112429311L245,140.2443288625342L245.28,169.21298172838385L245.56,168.6418795863712L245.84,151.1107932889309L246.12,139.90463819383783L246.4,136.61276623440057L246.68,133.75066072843964L246.96,152.86971062677966L247.24,143.81602126839195L247.52,151.7362910205013L247.8,158.74063998300446L248.08,149.91435769350605L248.36,173.3976712043062L248.64000000000001,145.820274538237L248.92000000000002,152.88722141501717L249.20000000000002,184.0546180543357L249.48000000000002,151.65854092508494L249.76,130.0529858750732L250.04,152.70527197702467L250.32,168.98921939959303L250.6,186.15896050798926L251.44,182.46664256638414L251.72,166.19898767944164L252,158.57459869794135L252.28,191.14658706790718L252.84,179.0488336841777L253.12,158.6024433902144L253.4,183.82768814103648L253.68,158.730309224243L253.96,202.329256806651L254.24,207.37064282238262L254.52,157.90736028605414L254.8,124.6295188666053L255.08,157.44462603831334L255.36,147.74239262139614L255.64000000000001,159.29204057774652L255.92000000000002,157.37692725556215L256.2,193.36181068293692L256.48,243.00406298369862L256.76,162.3037881874887L257.04,130.67184929387804L257.32,189.23859187835228L257.6,174.36681059203337L257.88,173.34840453799129L258.16,170.5021310600903L258.44,260.86209687892557L259.28000000000003,211.41430494647875L259.56,167.1759495933743L259.84000000000003,176.62302381087608L260.12,168.97391512719128L260.40000000000003,177.99865588567073L260.68,171.34349252260233L260.96000000000004,172.77684522726662L261.24,169.28947858904917L261.52000000000004,153.97941395977654L261.8,158.44648796276684L262.08000000000004,166.9233882774691L262.36,174.96449651644912" style="fill: none;" fill="none"></path></g></g></g></g><g opacity="0.2"><g><g><g><path stroke="rgb(255, 112, 67)" stroke-width="2px" d="M28.28,25.344883188051835L28.56,25.208405260869434L28.84,25.222821907550102L29.119999999999997,25.195412132441994L29.4,25.21721339898451L29.68,25.218391037668493L29.96,25.184337133680078L30.24,25.194241102593292L30.52,25.184456137929644L30.8,25.21043340465852L31.080000000000002,25.33297097721271L31.36,25.360046719780986L31.64,25.33661227213485L31.92,25.362854344419066L32.2,25.390359329708982L32.480000000000004,25.391602566923417L32.760000000000005,25.297204213078526L33.04,25.353066071569923L33.32,24.578734876768923L33.6,24.534967959267753L33.879999999999995,24.142630239895404L34.16,24.380977183750687L34.44,24.431013165542048L34.72,24.033654419354026L35,23.623871906825475L35.28,23.56955388205391L35.56,23.677032684598654L35.84,23.347140124184747L36.120000000000005,23.545918697629663L36.4,23.450515390123645L36.68,23.53896484647479L36.96,23.398889730998455L37.24,23.1999230657305L37.52,23.24963718141829L37.800000000000004,23.192497538157866L38.080000000000005,22.89624085971288L38.36,22.624343519210807L38.64,23.20432393210275L38.92,22.87155718394689L39.2,22.88338767732892L39.48,22.79846759523664L39.76,23.720722436223706L40.04,22.781585389545988L40.32,22.628948634011397L40.599999999999994,23.627469404084337L40.879999999999995,22.677757979801733L41.16,22.58759447642734L41.44,22.615208044052114L41.72,23.409568403107773L42,22.51429895128523L42.28,22.66109497342791L42.56,22.809057406016763L42.839999999999996,23.36003647123065L43.12,23.41831889288766L43.4,23.624027926581245L43.68,23.65279620919909L43.96,23.054739569255283L44.24,23.16808153152466L44.52,23.416149567195355L44.800000000000004,23.601200210707532L45.08,23.81437178747995L45.36,23.876978150776463L45.64,23.508542199816027L45.92,23.84501616546086L46.2,24.133393002237593L46.480000000000004,24.011396645818433L46.760000000000005,23.644924204690117L47.040000000000006,23.681855913570946L47.32,24.03217560768128L47.6,23.807483165604733L47.88,24.177964132853923L48.16,24.066186588151115L48.44,23.877308999470305L48.72,23.913748896462568L49,24.113816863468713L49.279999999999994,24.172230225971774L49.559999999999995,24.239657045091906L49.839999999999996,23.808102904047296L50.12,24.245297267777573L50.4,24.168308390889855L50.68,24.869568150554375L50.96,24.362268015657158L51.24,24.04380233492171L51.519999999999996,23.984072932515822L51.8,24.149471838814875L52.08,24.65688871724265L52.36,23.991119021006995L52.64,24.02314177445004L52.92,25.28770790832384L53.2,24.753345399243496L53.480000000000004,24.964415321179807L53.76,24.487700725282938L54.04,23.982739771434236L54.32,23.663614865030556L54.6,24.67784660748073L54.88,23.604808679989414L55.160000000000004,24.83452161005565L55.440000000000005,23.462079178946354L55.720000000000006,24.68854342562811L56,23.5271040896007L56.28,24.76594085965837L56.56,24.467294510773247L56.84,25.43221745431423L57.12,24.88200771178519L57.4,24.60392302445002L57.68,23.321599304335457L57.959999999999994,24.47955659048897L58.239999999999995,23.986167865480688L58.519999999999996,24.38067243882588L58.8,24.590323985644755L59.08,23.23636272157942L59.36,23.25018288884844L59.64,23.19388049534389L59.92,24.50476969650814L60.199999999999996,22.964296580723364L60.48,28.99828973906381L60.76,25.608137309891838L61.04,24.137413947241647L61.32,24.055808139528548L61.6,25.34073729310717L61.88,23.093172033854902L62.160000000000004,23.086872404643465L62.44,23.91036649908339L62.72,23.908636898313244L63,23.215945836475914L63.28,23.415802079609456L63.56,23.336934937068396L63.84,23.83877670151847L64.12,23.74862429073879L64.4,23.81451261520385L64.68,23.7475839982714L64.96000000000001,24.733681303433016L65.24000000000001,25.357013987813676L65.52000000000001,24.25529434817178L65.8,23.594368016379224L66.08,22.409290662493028L66.36,23.63362265927451L66.64,23.225132675170897L66.92,24.337309436457502L67.2,24.351819213458466L67.48,26.081354633740016L67.75999999999999,24.20813442298345L68.03999999999999,23.078357632500776L68.32,23.551887237003875L68.6,22.51126681464059L68.88,25.264627383777068L69.16,26.751235462597435L69.44,28.859627482550486L69.72,30.10734447751727L70,30.904914093017574L70.28,32.070434720175605L70.56,33.37032573427472L70.84,33.21874591009958L71.12,34.81606652396065L71.4,35.70334870474679L71.68,35.4627869796753L71.96000000000001,35.65208548409599L72.24000000000001,36.11697902134486L72.52,34.45715067182268L72.8,36.92903411865233L73.08,37.515275818961L73.36,40.501729300362726L73.64,38.165917265755795L73.92,35.60824465615408L74.2,34.74867563520159L74.48,35.02750102451869L74.76,36.711752373831615L75.04,37.286207951136994L75.32000000000001,37.18658101763043L75.60000000000001,38.21672906603131L75.88000000000001,38.594232248578756L76.16000000000001,35.68175962175642L76.44000000000001,39.13324746813092L76.72,37.53009456089565L77,39.38503007616316L77.28,35.678181054251525L77.56,40.155553534371506L77.84,42.3078082057408L78.12,38.803092302594855L78.4,42.16681843348912L78.68,38.23442416599818L78.96,45.67559712001256L79.24,47.465602373395654L79.52,37.91702837807792L79.8,37.945916388375416L80.08,46.432721688406815L80.36,46.55561799185617L80.64,39.1697218486241L80.91999999999999,46.77686220441546L81.19999999999999,46.89898877825056L81.47999999999999,36.431020022801L81.75999999999999,44.4590249960763L82.03999999999999,44.38827353341239L82.32,40.28960416521345L82.6,39.44141518184117L82.88,41.013206912449434L83.16,47.836563818795334L83.44,51.63725908551898L83.72,41.34392924717495L84,45.18042562212263L84.28,51.78468642098563L84.56,43.79909663609095L84.84,51.61772647312709L85.12,42.792940423148025L85.39999999999999,55.289676262991776L85.67999999999999,44.47437714712961L85.96,44.49808250427247L86.24,56.77185911996025L86.52,51.43370515005928L86.8,40.55455513000488L87.08,41.30855351584297L87.36,39.39539248875209L87.64,49.83494201660155L87.92,38.302292518615715L88.2,34.17075916835239L88.48,47.12782804216657L88.76,50.78076416015625L89.04,33.52908921922957L89.32000000000001,42.29017773219518L89.60000000000001,35.631714657374786L89.88,36.539456405639655L90.16,38.29054690769741L90.44,37.14515258789063L90.72,58.375213623046875L91,38.00286287580217L91.28,35.59700834001813L91.56,60.72831370762417L91.84,34.00035279955183L92.12,32.38065167018345L92.4,57.74125350952148L92.68,36.326487268720356L92.96000000000001,44.33388895307268L93.24000000000001,51.755967211042126L93.52000000000001,51.29663154602051L93.80000000000001,48.51693727765765L94.08000000000001,43.243027757917126L94.36,47.67870172773089L94.64,55.27688216073172L94.92,31.426188877650674L95.2,31.055482079642157L95.48,65.95685355050223L95.76,27.633447001320977L96.04,64.22270095825195L96.32,25.44494968823023L96.6,45.74068653651646L96.88,59.268439505440845L97.16,57.47418819972447L97.44,37.77363778250559L97.72,37.48676399230958L98,80.53614205496652L98.28,47.71752773829869L98.55999999999999,53.54265626089913L98.83999999999999,30.171889392307822L99.11999999999999,62.516092725481315L99.39999999999999,62.99116444178989L99.67999999999999,44.81405554635184L99.96,36.219754322596955L100.24,68.07436621529716L100.52,58.072237243652346L100.8,52.88955901009697L101.08,32.429459086826874L101.36,33.30659057889666L101.64,65.29828138078962L101.92,46.196549737112875L102.2,46.1449219076974L102.48,51.04482000078473L102.75999999999999,66.0569569832938L103.03999999999999,44.99459283011301L103.32,50.17099940708705L103.6,29.8719726399013L103.88,60.71516850062778L104.16,71.94798516409739L104.44,54.53787228175571L104.72,69.10322655814035L105,32.13858231680734L105.28,66.70943304879326L105.56,78.00823811122349L105.84,54.56267532348634L106.12,36.88671924591065L106.4,36.596585197448725L106.68,54.02608697073801L106.96000000000001,75.21913153512136L107.24000000000001,39.91521944863456L107.52,52.4773388998849L107.8,68.34948185511998L108.08,68.08101019723075L108.36,62.85345807756696L108.64,44.14964577811106L108.92,42.17708535330637L109.2,63.6932118661063L109.48,43.938894195556635L109.76,60.463912549700055L110.04,90.40525634765626L110.32000000000001,29.653677128383094L110.60000000000001,74.43690104893275L110.88000000000001,63.594620884486616L111.16000000000001,41.6181285422189L111.44000000000001,87.01006968906947L111.72,42.00261523655483L112,44.77721462794713L112.28,56.75766252790178L112.56,63.67817995343889L112.84,54.86093879699707L113.12,89.24873277936662L113.4,81.55473547799247L113.68,82.78749507359096L113.96,29.197340081078668L114.24,60.502892892020085L114.52,58.79199423653739L114.8,69.55617867606027L115.08,79.4982262965611L115.36,96.11095524379185L115.64,79.90011389596121L115.91999999999999,26.687659582410532L116.19999999999999,80.80169298444476L116.47999999999999,83.63842248099192L116.75999999999999,94.94327348981587L117.03999999999999,46.90441353934151L117.32,39.612971322195875L117.6,80.89463542393275L117.88,23.40667866161892L118.16,68.42013878958566L118.44,35.06089455740792L118.72,63.85157167707172L119,83.30860009329659L119.28,68.81157041277204L119.56,82.57145762852261L119.84,67.6614747619629L120.12,22.693252164295735L120.39999999999999,67.44899466378348L120.67999999999999,84.84748443603516L120.96,68.933997933524L121.24,70.54899097987584L121.52,85.88659240722656L121.8,37.06880177634103L122.08,65.46262540544782L122.36,41.863652997698104L122.64,37.948977944510325L122.92,76.13210030691965L123.2,90.61173679896763L123.48,67.85019934517997L123.76,75.98448970249721L124.04,27.609013391222273L124.32000000000001,59.66486376081193L124.60000000000001,81.12653817313058L124.88,89.3911038208008L125.16,66.29676151820591L125.44,91.98472608293805L125.72,91.51766418457031L126,99.6928100149972L126.28,78.98413179670061L126.56,76.99091406685966L126.84,83.08357282366072L127.12,36.28153139386858L127.4,35.76617330278669L127.68,59.133908517020096L127.96000000000001,83.87212705339705L128.24,52.11491007123674L128.52,62.03400277273996L128.8,92.7406430053711L129.08,93.77941916329519L129.36,84.2891391645159L129.64000000000001,71.08781328473773L129.92000000000002,71.73362221854073L130.20000000000002,72.97435304914201L130.48000000000002,59.87040278843472L130.76000000000002,98.75015167236329L131.04000000000002,54.84432691301618L131.32,70.11173054286411L131.6,64.0605252947126L131.88,56.00155847821916L132.16,67.55487010410855L132.44,70.71227397373744L132.72,65.71951832362585L133,68.9709642464774L133.28,88.70306586129325L133.56,52.50235221862793L133.84,31.489193850925993L134.12,29.303681892667505L134.4,28.845661664690287L134.68,96.26953111921038L134.96,22.64729433877127L135.24,44.16858035496302L135.51999999999998,24.835687598500925L135.79999999999998,54.62231489998955L136.07999999999998,16.01747330801827L136.35999999999999,49.92655141557967L136.64,54.691405367170056L136.92,40.31202471051898L137.2,38.908878037588934L137.48,18.475544545309877L137.76,79.01891817365374L138.04,96.9390068272182L138.32,85.49433510916575L138.6,92.62842067173548L138.88,67.20657806396484L139.16,77.24130190168108L139.44,45.61968658447265L139.72,67.06757531302316L140,107.81696463448662L140.28,118.89996760777065L140.56,73.04169956752233L140.84,83.93239360264369L141.12,37.56801097869872L141.4,88.75117492675781L141.68,36.82348663330079L141.96,103.38239606584823L142.24,79.43033575875418L142.52,82.46433595929827L142.8,100.1969964163644L143.08,79.3082246180943L143.36,91.91834799630301L143.64000000000001,96.36899021693638L143.92000000000002,99.06202527727399L144.20000000000002,99.60301208496094L144.48000000000002,50.05286616734096L144.76,80.55368957519532L145.04,74.4217109462193L145.32,77.72020490373885L145.6,104.30052337646485L145.88,90.10116877964565L146.16,24.478956384658808L146.44,81.15058691842215L146.72,76.30252886090959L147,23.48440386976514L147.28,96.7724057006836L147.56,68.48563718523299L147.84,77.30867542811804L148.12,74.04945118495397L148.4,68.89647988455636L148.68,64.13958173479354L148.96,61.02894810267857L149.24,55.5732994406564L149.52,29.848926086425784L149.8,59.32830479213169L150.08,125.105431300572L150.36,62.8014907182966L150.64000000000001,101.476761605399L150.92000000000002,105.34599753243582L151.20000000000002,95.5143935721261L151.48000000000002,104.49242719377791L151.76000000000002,83.3742258126395L152.04000000000002,91.88987378801619L152.32000000000002,92.23364776611328L152.60000000000002,100.86455841064453L152.88000000000002,98.89510005405971L153.16000000000003,91.28335771833146L153.44,40.799922360011514L153.72,116.46357853480748L154,87.51768997192383L154.28,104.21577209472656L154.56,73.26483241489956L154.84,88.76315492902485L155.12,105.39849347795759L155.4,37.66839896065848L155.68,94.3659184047154L155.96,102.3023978969029L156.24,113.64504089355468L156.52,49.37543658665249L156.8,153.76228349958146L157.08,102.35923828125001L157.36,79.90763371058874L157.64,120.32128587995255L157.92,38.96235688345772L158.2,78.8704433114188L158.48,81.35807438441684L158.76,98.26974779401507L159.04,105.67337376185826L159.32,47.71312735421318L159.6,123.23564810616631L159.88,86.57280925205777L160.16,86.92004797799248L160.44,83.65515975952148L160.72,95.1109858049665L161,94.09579153878347L161.28,87.01363089425223L161.56,85.7450817653111L161.83999999999997,93.18360600062779L162.11999999999998,92.48273921421594L162.39999999999998,172.8331507219587L162.67999999999998,102.38187874930246L162.95999999999998,90.45027491978237L163.23999999999998,89.26318208966937L163.51999999999998,97.53551448277064L163.79999999999998,86.51405129568917L164.07999999999998,95.81269369942801L164.35999999999999,68.14518905639649L164.64,71.99742148263115L164.92,72.74128123692104L165.2,83.34969863891602L165.48,62.36471642630441L165.76,69.9019010925293L166.04,91.86639221191408L166.32,93.21973506382534L166.6,99.52988198416573L166.88,68.87481170654297L167.16,104.847644871303L167.44,89.8348924909319L167.72,67.79281879970006L168,93.06619040352957L168.28,50.60439383370536L168.56,107.68048906598771L168.84,79.69327076503208L169.12,105.21868927001951L169.4,105.9135294015067L169.68,54.82219381059919L169.96,74.19004355294364L170.24,68.26560254778181L170.51999999999998,107.8339719935826L170.79999999999998,100.50458731515067L171.07999999999998,86.28944843837193L171.35999999999999,97.27920802525111L171.64,86.78222200666154L171.92,79.7503156389509L172.2,94.30858415876118L172.48,101.99031594412666L172.76,99.26491751534599L173.04,67.75250734601703L173.32,71.8954737854004L173.6,99.10055419921875L173.88,100.91223920549665L174.16,86.4606216430664L174.44,85.01335248674664L174.72,153.71552097865515L175,84.33921210152762L175.28,102.34419865199497L175.56,105.62697392054966L175.84,132.36507346017018L176.12,123.79291691371374L176.4,96.56171970912388L176.68,118.37990046909879L176.96,96.24021580287388L177.24,67.95144097464426L177.52,109.94550044468473L177.8,109.39964447021485L178.08,125.05736467633928L178.36,114.61423658098494L178.64000000000001,98.10289202008927L178.92000000000002,81.04972340175084L179.20000000000002,112.99149222237725L179.48000000000002,103.1768956211635L179.76,86.74568010602678L180.04,116.99742749895367L180.32,109.54561915806362L180.6,87.11510402134486L180.88,97.85395490373884L181.16,123.4539272199358L181.44,124.24312578473773L181.72,99.60218641008649L182,99.69547223772322L182.28,89.01585388183594L182.56,78.7320964704241L182.84,74.02223478044782L183.12,140.33657082693918L183.4,70.89931634085518L183.68,105.38623953683037L183.96,113.27013820103237L184.24,120.95523441859653L184.52,116.66028978620257L184.8,110.33585946219308L185.08,111.3554444667271L185.36,109.48368582589286L185.64000000000001,106.02909301757812L185.92000000000002,163.7871648297991L186.20000000000002,122.0069358607701L186.48000000000002,66.06993242536272L186.76000000000002,120.14886644635882L187.04000000000002,110.0731405203683L187.32000000000002,70.60398324148996L187.60000000000002,93.30291987827847L187.88000000000002,121.7311836024693L188.16000000000003,122.65721269880024L188.44,76.46554949079241L188.72,123.35841129847934L189,146.92220764160157L189.28,136.21362121582033L189.56,110.83636505126951L189.84,140.57475873674665L190.12,129.8528843470982L190.4,121.38468566894532L190.68,136.54925419398717L190.96,100.33845690046039L191.24,124.25061859130861L191.52,102.01467721121652L191.8,80.30133015223912L192.08,100.54223654610769L192.36,105.09468370710101L192.64,87.14406823294505L192.92,94.53408599853516L193.2,66.38752787998745L193.48,109.40824846540178L193.76,133.7935681588309L194.04,104.22019369942801L194.32,106.6121197945731L194.6,114.65220990862164L194.88,106.13185481480188L195.16,63.17200267246791L195.44,90.22671766008649L195.72,150.88246843610492L196,165.96577357700895L196.28,138.24322265625L196.56,131.59600747244698L196.83999999999997,132.11865966796876L197.11999999999998,137.55761156354632L197.39999999999998,97.18428628104074L197.67999999999998,113.70901140485492L197.95999999999998,52.23141125270298L198.23999999999998,123.83105228969028L198.51999999999998,131.38648668561663L198.79999999999998,107.69758130754744L199.07999999999998,112.75183816092355L199.35999999999999,110.39755358014787L199.64,147.22755301339285L199.92,118.27193769182479L200.2,180.5306937953404L200.48,98.46195255824499L200.76,52.50643043518067L201.04,79.11450354439872L201.32,122.88716700962613L201.6,120.38891405378071L201.88,112.11009586879184L202.16,159.32517150878905L202.44,118.20884687151228L202.72,156.7377225167411L203,167.5978627232143L203.28,123.67895834786552L203.56,148.42581560407365L203.84,110.33081281389511L204.12,118.89245165143694L204.4,129.8162382725307L204.68,83.47400514875139L204.96,124.25983991350448L205.24,111.50983795166015L205.51999999999998,112.01420955113001L205.79999999999998,130.67806535993304L206.07999999999998,116.84335039411272L206.35999999999999,128.05299800327845L206.64,108.96427459716797L206.92,146.2315499005999L207.2,112.42702383858818L207.48,140.03847133091517L207.76,128.97249886648993L208.04,119.31469560895647L208.32,112.17864231654576L208.6,143.725279410226L208.88,149.02033238002232L209.16,139.62288678850445L209.44,109.45288120814733L209.72,173.6803240094866L210,134.70236611502511L210.28,116.86424691336495L210.56,150.43607155936104L210.84,138.8057155936105L211.12,134.28022247314453L211.4,149.9270700073242L211.68,111.83038500104632L211.96,142.5324492972238L212.24,123.90790178571429L212.52,118.13807804652623L212.8,142.23242065429687L213.08,142.1101744733538L213.36,129.07814666748047L213.64000000000001,142.3719288417271L213.92000000000002,124.75108559744699L214.20000000000002,118.94649863106864L214.48000000000002,125.10002968924387L214.76,146.6160983276367L215.04,128.96130981445313L215.32,229.4990630231585L215.6,144.28776463099888L215.88,142.62190769740513L216.16,115.3666656058175L216.44,98.89797834123883L216.72,45.52089882986887L217,168.07200073242188L217.28,90.89323019845145L217.56,105.14707933698382L217.84,112.47073059082031L218.12,124.56890468052454L218.4,111.3759628731864L218.68,112.43636862618582L218.96,225.9146772112165L219.24,141.3669127546038L219.52,131.69562861851284L219.8,79.64693651471819L220.08,89.19460477556503L220.36,111.85148986816405L220.64000000000001,31.73816858564105L220.92000000000002,115.60441367013114L221.20000000000002,106.75936771937779L221.48000000000002,99.99632655552456L221.76000000000002,111.63203783307756L222.04000000000002,140.57336975097655L222.32000000000002,34.15351934705461L222.60000000000002,218.18756417410717L222.88000000000002,128.93435577392577L223.16000000000003,113.97995622907366L223.44,121.43265197753907L223.72,133.88512547084264L224,97.07667846679688L224.28,118.66921077183314L224.56,144.34644156319754L224.84,95.72779580252512L225.12,122.25028616768972L225.4,129.6856736101423L225.68,151.06373107910156L225.96,104.61416407993862L226.24,145.90530800955636L226.52,121.76834668840682L226.8,138.85674538748606L227.08,147.01692103794645L227.36,141.99794442313058L227.64,111.980951058524L227.92,143.18456268310547L228.2,134.4884391566685L228.48,139.6717790876116L228.76,129.1685310581752L229.04,116.65826804024832L229.32,150.90591142926897L229.6,122.32860953194754L229.88,87.12491566249302L230.16,158.35806701660155L230.44,131.5192274257115L230.72,115.59798575265069L231,118.97982657296318L231.28,167.35744471958705L231.56,121.65734357561384L231.83999999999997,135.12743434361047L232.11999999999998,100.48192369733536L232.39999999999998,164.1786736188616L232.67999999999998,147.3751790509905L232.95999999999998,150.86674203055244L233.23999999999998,147.66910387311663L233.51999999999998,149.20648733956475L233.79999999999998,149.8318550327846L234.07999999999998,169.38613560267856L234.35999999999999,139.92479056222098L234.64,147.45908150809151L234.92,173.27467843191965L235.2,114.18912205287388L235.48,128.25519574846538L235.76,197.76905665806362L236.32,235.74304792131696L236.6,130.17838544573104L236.88,153.1427726963588L237.16,121.94459354945592L237.44,133.10063402448384L237.72,170.75209507533484L238,144.51605215890066L238.28,155.7155215890067L238.56,164.77184770856584L238.84,161.5553270612444L239.12,114.91367104666573L239.4,265.41187656947545L239.96,182.71684936523437L240.24,137.64736319405694L240.51999999999998,121.3407319859096L240.79999999999998,46.495787429809575L241.07999999999998,36.947027271815706L241.35999999999999,42.74941886901855L241.64,138.50147369384766L241.92,189.26187377929688L242.2,149.0314905657087L242.48,176.223896484375L242.76,150.56624267578124L243.04,130.89154475620813L243.32,175.81451607840404L243.6,153.79585837227958L243.88,201.52590820312497L244.16,59.01481070382255L244.44,115.58914254324777L244.72,131.92389299665177L245,156.88782557896204L245.28,200.59568899972098L245.56,168.02318559919087L245.84,132.11878313337053L246.12,127.7646368408203L246.4,133.04657161167688L246.68,130.65004643031529L246.96,173.58201468331472L247.24,134.00785779680524L247.52,160.31658325195312L247.8,166.3286846923828L248.08,140.3525518798828L248.36,198.83792750767302L248.64000000000001,115.94476148332868L248.92000000000002,160.54308053152903L249.20000000000002,217.8192977469308L249.48000000000002,116.56279070172991L249.76,106.64696790422713L250.04,177.2452485874721L251.16,234.34626839773998L251.44,150.44398106166295L251.72,148.5756948852539L252,150.3148439679827L252.28,226.43290780203685L252.56,294.3629391043527L252.84,112.27043112618583L253.12,136.45218723842078L253.4,211.15503662109376L253.68,131.54148206438336L253.96,249.56145002092637L254.24,212.8321443394252L254.52,104.32213753836496L254.8,88.57852399553573L255.08,192.99432547433037L255.36,137.2316397530692L255.64000000000001,171.80415919712613L255.92000000000002,155.30222115652901L256.2,232.34543439592633L256.48,296.7831696428571L256.76,74.87849049159459L257.04,96.40391549246651L257.32,252.68589634486605L257.6,158.25571419852122L257.88,172.24513131277902L258.16,167.41866812569754L258.44,358.75205984933035L258.72,121.21705051967075L259,201.9298406982422L259.28000000000003,226.2506574358259L259.56,119.25106462751117L259.84000000000003,186.85735421316963L260.12,160.68738071986607L260.40000000000003,187.77545837402343L260.68,164.13373221261162L260.96000000000004,174.3296439906529L261.24,165.5114980643136L261.52000000000004,137.3935106113979L261.8,163.285818132673L262.08000000000004,176.10669695172993L262.36,183.67569710867747" style="fill: none;" fill="none"></path></g></g></g></g></g></g><g transform="translate(50, 177)" clip-path="url(#clip_1)"><clipPath id="clip_1"><rect width="280" height="23"></rect></clipPath><g><g><line x1="0" y1="0" x2="0" y2="5" style="visibility: inherit;" fill="rgb(0, 0, 0)" stroke="rgb(204, 204, 204)" stroke-width="1px"></line><line x1="28" y1="0" x2="28" y2="5" style="visibility: inherit;" fill="rgb(0, 0, 0)" stroke="rgb(204, 204, 204)" stroke-width="1px"></line><line x1="56" y1="0" x2="56" y2="5" style="visibility: inherit;" fill="rgb(0, 0, 0)" stroke="rgb(204, 204, 204)" stroke-width="1px"></line><line x1="84" y1="0" x2="84" y2="5" style="visibility: inherit;" fill="rgb(0, 0, 0)" stroke="rgb(204, 204, 204)" stroke-width="1px"></line><line x1="112" y1="0" x2="112" y2="5" style="visibility: inherit;" fill="rgb(0, 0, 0)" stroke="rgb(204, 204, 204)" stroke-width="1px"></line><line x1="140" y1="0" x2="140" y2="5" style="visibility: inherit;" fill="rgb(0, 0, 0)" stroke="rgb(204, 204, 204)" stroke-width="1px"></line><line x1="168" y1="0" x2="168" y2="5" style="visibility: inherit;" fill="rgb(0, 0, 0)" stroke="rgb(204, 204, 204)" stroke-width="1px"></line><line x1="196" y1="0" x2="196" y2="5" style="visibility: inherit;" fill="rgb(0, 0, 0)" stroke="rgb(204, 204, 204)" stroke-width="1px"></line><line x1="224" y1="0" x2="224" y2="5" style="visibility: inherit;" fill="rgb(0, 0, 0)" stroke="rgb(204, 204, 204)" stroke-width="1px"></line><line x1="252" y1="0" x2="252" y2="5" style="visibility: inherit;" fill="rgb(0, 0, 0)" stroke="rgb(204, 204, 204)" stroke-width="1px"></line><line x1="280" y1="0" x2="280" y2="5" style="visibility: inherit;" fill="rgb(0, 0, 0)" stroke="rgb(204, 204, 204)" stroke-width="1px"></line></g><g transform="translate(0, 8)"><text x="0" y="0" dx="0em" dy="0.95em" style="text-anchor: middle; visibility: hidden; font-family: Roboto, sans-serif; font-size: 12px; font-weight: 200;" fill="rgb(33, 33, 33)" stroke="none" stroke-width="1px">-100</text><text x="28" y="0" dx="0em" dy="0.95em" style="text-anchor: middle; visibility: inherit; font-family: Roboto, sans-serif; font-size: 12px; font-weight: 200;" fill="rgb(33, 33, 33)" stroke="none" stroke-width="1px">0</text><text x="56" y="0" dx="0em" dy="0.95em" style="text-anchor: middle; visibility: inherit; font-family: Roboto, sans-serif; font-size: 12px; font-weight: 200;" fill="rgb(33, 33, 33)" stroke="none" stroke-width="1px">100</text><text x="84" y="0" dx="0em" dy="0.95em" style="text-anchor: middle; visibility: inherit; font-family: Roboto, sans-serif; font-size: 12px; font-weight: 200;" fill="rgb(33, 33, 33)" stroke="none" stroke-width="1px">200</text><text x="112" y="0" dx="0em" dy="0.95em" style="text-anchor: middle; visibility: inherit; font-family: Roboto, sans-serif; font-size: 12px; font-weight: 200;" fill="rgb(33, 33, 33)" stroke="none" stroke-width="1px">300</text><text x="140" y="0" dx="0em" dy="0.95em" style="text-anchor: middle; visibility: inherit; font-family: Roboto, sans-serif; font-size: 12px; font-weight: 200;" fill="rgb(33, 33, 33)" stroke="none" stroke-width="1px">400</text><text x="168" y="0" dx="0em" dy="0.95em" style="text-anchor: middle; visibility: inherit; font-family: Roboto, sans-serif; font-size: 12px; font-weight: 200;" fill="rgb(33, 33, 33)" stroke="none" stroke-width="1px">500</text><text x="196" y="0" dx="0em" dy="0.95em" style="text-anchor: middle; visibility: inherit; font-family: Roboto, sans-serif; font-size: 12px; font-weight: 200;" fill="rgb(33, 33, 33)" stroke="none" stroke-width="1px">600</text><text x="224" y="0" dx="0em" dy="0.95em" style="text-anchor: middle; visibility: inherit; font-family: Roboto, sans-serif; font-size: 12px; font-weight: 200;" fill="rgb(33, 33, 33)" stroke="none" stroke-width="1px">700</text><text x="252" y="0" dx="0em" dy="0.95em" style="text-anchor: middle; visibility: inherit; font-family: Roboto, sans-serif; font-size: 12px; font-weight: 200;" fill="rgb(33, 33, 33)" stroke="none" stroke-width="1px">800</text><text x="280" y="0" dx="0em" dy="0.95em" style="text-anchor: middle; visibility: hidden; font-family: Roboto, sans-serif; font-size: 12px; font-weight: 200;" fill="rgb(33, 33, 33)" stroke="none" stroke-width="1px">900</text></g><line x1="0" y1="0" x2="280" y2="0" fill="rgb(0, 0, 0)" stroke="rgb(204, 204, 204)" stroke-width="1px"></line></g></g></g></g></svg>